<?xml version="1.0" encoding="utf-8"?>
<!-- Generator: Adobe Illustrator 24.3.0, SVG Export Plug-In . SVG Version: 6.00 Build 0)  -->
<svg version="1.1" id="Calque_1" xmlns="http://www.w3.org/2000/svg" xmlns:xlink="http://www.w3.org/1999/xlink" x="0px" y="0px"
	 viewBox="0 0 369.5 65.9" style="enable-background:new 0 0 369.5 65.9;" xml:space="preserve">
<style type="text/css">
	.st0{fill:url(#SVGID_1_);}
	.st1{fill:url(#SVGID_2_);}
	.st2{fill:url(#SVGID_3_);}
	.st3{fill:url(#SVGID_4_);}
	.st4{fill:url(#SVGID_5_);}
	.st5{fill:url(#SVGID_6_);}
	.st6{fill:url(#SVGID_7_);}
	.st7{fill:url(#SVGID_8_);}
</style>
<g>
	<linearGradient id="SVGID_1_" gradientUnits="userSpaceOnUse" x1="20.8988" y1="2.091838e-11" x2="20.8988" y2="61.9461">
		<stop  offset="0" style="stop-color:#E30613"/>
		<stop  offset="0.4765" style="stop-color:#009FE3"/>
		<stop  offset="1" style="stop-color:#E30613"/>
	</linearGradient>
	<path class="st0" d="M17.9,1.7c2.2,0,4.3,0.4,6.3,1.3c2,0.8,3.7,2,5.2,3.5c1.5,1.5,2.6,3.2,3.5,5.2c0.8,2,1.3,4.1,1.3,6.3
		c0,4-1.2,7.4-3.7,10.4c1.6,0.9,3,2,4.2,3.2c1.2,1.2,2.2,2.6,3,4s1.4,3,1.9,4.6c0.4,1.6,0.6,3.2,0.6,4.9c0,2.6-0.5,5.1-1.5,7.4
		c-1,2.3-2.4,4.4-4.1,6.1c-1.7,1.7-3.8,3.1-6.1,4.1c-2.3,1-4.8,1.5-7.4,1.5H5.8c-0.6,0-1.1-0.1-1.6-0.3c-0.5-0.2-0.9-0.5-1.3-0.9
		c-0.4-0.4-0.7-0.8-0.9-1.3c-0.2-0.5-0.3-1-0.3-1.6V5.8c0-0.6,0.1-1.1,0.3-1.6c0.2-0.5,0.5-0.9,0.9-1.3C3.3,2.5,3.7,2.2,4.2,2
		c0.5-0.2,1-0.3,1.6-0.3H17.9z M10,10v15.8h7.9c1.1,0,2.1-0.2,3.1-0.6c1-0.4,1.8-1,2.5-1.7c0.7-0.7,1.3-1.6,1.7-2.5
		c0.4-1,0.6-2,0.6-3.1c0-1.1-0.2-2.1-0.6-3c-0.4-1-1-1.8-1.7-2.5c-0.7-0.7-1.6-1.3-2.5-1.7c-1-0.4-2-0.6-3-0.6H10z M10,34.1v21.8
		h10.9c1.5,0,2.9-0.3,4.3-0.9c1.3-0.6,2.5-1.4,3.5-2.3c1-1,1.8-2.1,2.3-3.5c0.6-1.3,0.9-2.7,0.9-4.3c0-1.5-0.3-2.9-0.9-4.2
		c-0.6-1.3-1.4-2.5-2.3-3.5c-1-1-2.1-1.8-3.5-2.3c-1.3-0.6-2.7-0.9-4.2-0.9H10z"/>
	<linearGradient id="SVGID_2_" gradientUnits="userSpaceOnUse" x1="66.1918" y1="1.637090e-11" x2="66.1918" y2="61.9461">
		<stop  offset="0" style="stop-color:#E30613"/>
		<stop  offset="0.4765" style="stop-color:#009FE3"/>
		<stop  offset="1" style="stop-color:#E30613"/>
	</linearGradient>
	<path class="st1" d="M45.5,60.1V5.8c0-0.6,0.1-1.1,0.3-1.6c0.2-0.5,0.5-1,0.9-1.3C47.1,2.5,47.5,2.2,48,2c0.5-0.2,1-0.3,1.6-0.3
		h15.1c2.6,0,5.1,0.5,7.4,1.5c2.3,1,4.4,2.4,6.1,4.1c1.7,1.7,3.1,3.8,4.1,6.1c1,2.3,1.5,4.8,1.5,7.4c0,1.7-0.2,3.4-0.6,5
		c-0.4,1.6-1.1,3.2-1.9,4.6c-0.8,1.4-1.9,2.8-3.2,4c-1.3,1.2-2.7,2.3-4.4,3.3l12.5,20c0.4,0.7,0.7,1.5,0.7,2.3
		c0,0.6-0.1,1.1-0.3,1.6c-0.2,0.5-0.5,0.9-0.9,1.3c-0.4,0.4-0.8,0.7-1.3,0.9c-0.5,0.2-1,0.3-1.6,0.3c-1.5,0-2.6-0.7-3.6-2L65.4,40.1
		H53.8v20c0,1.1-0.4,2.1-1.2,2.9c-0.8,0.8-1.8,1.2-2.9,1.2c-1.1,0-2.1-0.4-2.9-1.2C45.9,62.2,45.5,61.2,45.5,60.1z M53.8,10v21.8
		h10.9c1.5,0,2.9-0.3,4.3-0.9c1.3-0.6,2.5-1.4,3.5-2.4c1-1,1.8-2.2,2.3-3.5c0.6-1.3,0.9-2.7,0.9-4.2c0-1.5-0.3-2.9-0.9-4.3
		c-0.6-1.3-1.4-2.5-2.3-3.5c-1-1-2.1-1.8-3.5-2.3c-1.3-0.6-2.7-0.9-4.2-0.9H53.8z"/>
	<linearGradient id="SVGID_3_" gradientUnits="userSpaceOnUse" x1="114.6098" y1="1.182343e-11" x2="114.6098" y2="61.9461">
		<stop  offset="0" style="stop-color:#E30613"/>
		<stop  offset="0.4765" style="stop-color:#009FE3"/>
		<stop  offset="1" style="stop-color:#E30613"/>
	</linearGradient>
	<path class="st2" d="M100.7,5.8V42c0,1.9,0.4,3.7,1.1,5.4c0.7,1.7,1.7,3.2,3,4.4c1.2,1.3,2.7,2.3,4.4,3c1.7,0.7,3.5,1.1,5.4,1.1
		c1.9,0,3.7-0.4,5.4-1.1c1.7-0.7,3.2-1.7,4.4-3c1.3-1.3,2.3-2.8,3-4.4c0.7-1.7,1.1-3.5,1.1-5.4V5.8c0-1.1,0.4-2.1,1.2-2.9
		c0.8-0.8,1.8-1.2,2.9-1.2c1.1,0,2.1,0.4,2.9,1.2c0.8,0.8,1.2,1.8,1.2,2.9V42c0,2-0.3,4-0.8,5.9c-0.5,1.9-1.3,3.6-2.2,5.3
		c-1,1.7-2.1,3.2-3.5,4.5c-1.4,1.4-2.9,2.5-4.5,3.5c-1.7,1-3.4,1.7-5.3,2.3c-1.9,0.5-3.8,0.8-5.9,0.8c-6.1,0-11.4-2.2-15.7-6.5
		c-4.3-4.3-6.5-9.6-6.5-15.7V5.8c0-1.1,0.4-2.1,1.2-2.9c0.8-0.8,1.8-1.2,2.9-1.2c1.1,0,2.1,0.4,2.9,1.2
		C100.3,3.7,100.7,4.7,100.7,5.8z"/>
	<linearGradient id="SVGID_4_" gradientUnits="userSpaceOnUse" x1="149.2778" y1="8.185452e-12" x2="149.2778" y2="61.9461">
		<stop  offset="0" style="stop-color:#E30613"/>
		<stop  offset="0.4765" style="stop-color:#009FE3"/>
		<stop  offset="1" style="stop-color:#E30613"/>
	</linearGradient>
	<path class="st3" d="M153.4,60.1c0,1.1-0.4,2.1-1.2,2.9c-0.8,0.8-1.8,1.2-2.9,1.2c-1.1,0-2.1-0.4-2.9-1.2c-0.8-0.8-1.2-1.8-1.2-2.9
		V5.8c0-1.1,0.4-2.1,1.2-2.9c0.8-0.8,1.8-1.2,2.9-1.2c1.1,0,2.1,0.4,2.9,1.2c0.8,0.8,1.2,1.8,1.2,2.9V60.1z"/>
	<linearGradient id="SVGID_5_" gradientUnits="userSpaceOnUse" x1="181.8168" y1="4.547474e-12" x2="181.8168" y2="61.9461">
		<stop  offset="0" style="stop-color:#E30613"/>
		<stop  offset="0.4765" style="stop-color:#009FE3"/>
		<stop  offset="1" style="stop-color:#E30613"/>
	</linearGradient>
	<path class="st4" d="M161.1,5.8c0-1.1,0.4-2.1,1.2-2.9c0.8-0.8,1.8-1.2,2.9-1.2c1.1,0,2.1,0.4,2.9,1.2c0.8,0.8,1.2,1.8,1.2,2.9
		v50.1h29c1.1,0,2.1,0.4,2.9,1.2c0.8,0.8,1.2,1.8,1.2,2.9c0,1.1-0.4,2.1-1.2,2.9c-0.8,0.8-1.8,1.2-2.9,1.2h-33.1
		c-0.6,0-1.1-0.1-1.6-0.3c-0.5-0.2-0.9-0.5-1.3-0.9c-0.4-0.4-0.7-0.8-0.9-1.3c-0.2-0.5-0.3-1-0.3-1.6V5.8z"/>
	<linearGradient id="SVGID_6_" gradientUnits="userSpaceOnUse" x1="232.9496" y1="-9.094947e-13" x2="232.9496" y2="61.9461">
		<stop  offset="0" style="stop-color:#E30613"/>
		<stop  offset="0.4765" style="stop-color:#009FE3"/>
		<stop  offset="1" style="stop-color:#E30613"/>
	</linearGradient>
	<path class="st5" d="M264.2,32.9c0,8.6-3.1,16-9.2,22.1c-6.1,6.1-13.5,9.1-22.1,9.1c-8.6,0-16-3-22.1-9.1s-9.1-13.5-9.1-22.1
		c0-8.6,3-16,9.1-22.1c6.1-6.1,13.5-9.2,22.1-9.2c8.6,0,16,3.1,22.1,9.2c3.1,3.1,5.4,6.4,6.9,10.1C263.4,24.6,264.2,28.6,264.2,32.9
		z M232.9,10c-3.2,0-6.2,0.6-8.8,1.7c-2.7,1.1-5.1,2.8-7.4,5.1s-4,4.7-5.1,7.4c-1.1,2.7-1.7,5.6-1.7,8.8c0,6.4,2.2,11.8,6.7,16.2
		c4.5,4.5,9.9,6.7,16.2,6.7c6.4,0,11.8-2.2,16.2-6.7c4.5-4.5,6.7-9.9,6.7-16.2c0-6.3-2.2-11.7-6.7-16.2
		C244.7,12.2,239.3,10,232.9,10z"/>
	<linearGradient id="SVGID_7_" gradientUnits="userSpaceOnUse" x1="292.5004" y1="-7.275958e-12" x2="292.5004" y2="61.9461">
		<stop  offset="0" style="stop-color:#E30613"/>
		<stop  offset="0.4765" style="stop-color:#009FE3"/>
		<stop  offset="1" style="stop-color:#E30613"/>
	</linearGradient>
	<path class="st6" d="M270.3,60.1V5.8c0-0.6,0.1-1.1,0.3-1.6c0.2-0.5,0.5-1,0.9-1.3c0.4-0.4,0.8-0.7,1.3-0.9c0.5-0.2,1-0.3,1.6-0.3
		h36.1c1.1,0,2.1,0.4,2.9,1.2c0.8,0.8,1.2,1.8,1.2,2.9c0,1.1-0.4,2.1-1.2,2.9c-0.8,0.8-1.8,1.2-2.9,1.2h-32v18.8h23
		c1.1,0,2.1,0.4,2.9,1.2c0.8,0.8,1.2,1.8,1.2,2.9c0,1.1-0.4,2.1-1.2,2.9c-0.8,0.8-1.8,1.2-2.9,1.2h-23v23c0,1.1-0.4,2.1-1.2,2.9
		c-0.8,0.8-1.8,1.2-2.9,1.2c-1.1,0-2.1-0.4-2.9-1.2C270.7,62.2,270.3,61.2,270.3,60.1z"/>
	<linearGradient id="SVGID_8_" gradientUnits="userSpaceOnUse" x1="344.0431" y1="-1.182343e-11" x2="344.0431" y2="61.9461">
		<stop  offset="0" style="stop-color:#E30613"/>
		<stop  offset="0.4765" style="stop-color:#009FE3"/>
		<stop  offset="1" style="stop-color:#E30613"/>
	</linearGradient>
	<path class="st7" d="M363.6,10h-15.4v50.1c0,1.1-0.4,2.1-1.2,2.9c-0.8,0.8-1.8,1.2-2.9,1.2s-2.1-0.4-2.9-1.2
		c-0.8-0.8-1.2-1.8-1.2-2.9V10h-15.4c-1.1,0-2.1-0.4-2.9-1.2c-0.8-0.8-1.2-1.8-1.2-2.9c0-1.1,0.4-2.1,1.2-2.9
		c0.8-0.8,1.8-1.2,2.9-1.2h39.1c1.1,0,2.1,0.4,2.9,1.2c0.8,0.8,1.2,1.8,1.2,2.9c0,1.1-0.4,2.1-1.2,2.9C365.7,9.6,364.8,10,363.6,10z
		"/>
</g>
</svg>
