<?xml version="1.0" encoding="utf-8"?>
<svg class="brunch-svg" xmlns="http://www.w3.org/2000/svg" xmlns:xlink="http://www.w3.org/1999/xlink" x="0px" y="0px" viewBox="0 0 431.3 408.7">
<path class="brunch-1" d="M63.6,22C46.5,32.4,23.8,56,32.6,70.3c6.1,10,61.3,75.5,73.2,81.7c11.9,6.3,32-7.4,32-7.4s21.4-11.4,21.4-24.9
	c0-13.5-32.5-92.7-38.5-102.8C112,2.5,80.6,11.7,63.6,22z"/>
<path class="brunch-1" d="M18.2,144.9c0.7,34.9,15.2,66.7,30.3,72.1c14,5,21.8-13.6,31-32.5C65.8,178.3,36.5,158.3,18.2,144.9z"/>
<path class="brunch-2" d="M101.2,159.7C88.1,152.8,38.5,93.9,26.9,78c-1.3,1.1-2.4,2.3-3.5,3.4C11.6,93.5-1.9,117.6,8.4,127.5
	c7.1,6.8,66.3,48.6,77.4,51.1c11.1,2.6,24.6-12.9,24.6-12.9s1.4-1.3,3.3-3.4C109.4,162.4,105.1,161.7,101.2,159.7z"/>
<path class="brunch-1" d="M193.5,38.7c30.6,16.8,52.1,44.4,49.9,60.2c-2.1,14.7-22.2,13.1-43.1,12.4C201.1,96.4,196.9,61.1,193.5,38.7z"
	/>
<path class="brunch-2" d="M168.2,119.1c0-14.7-29.3-86-38-103.7c1.6-0.6,3.1-1.1,4.6-1.6c16.2-4.8,43.8-5.6,47.8,8.1
	c2.8,9.5,12.3,81.3,9.5,92.3c-2.9,11-22.8,15.8-22.8,15.8s-1.8,0.6-4.6,1.3C166.8,127.6,168.2,123.5,168.2,119.1z"/>
<path class="brunch-1" d="M412.5,167.6c0-5.2,3-9.7,7.3-11.9v-38.1c0-1.7-1.5-2.9-3.1-2.7l-29.7,4.3c5.1,2.9,8.5,8.4,8.5,14.7
	c0,9.4-7.6,17-17,17c-9.4,0-17-7.6-17-17c0-4.5,1.8-8.6,4.7-11.7l-106.8,15.4c-1.3,0.2-2.3,1.3-2.3,2.7V152c0.5,0,1-0.1,1.5-0.1
	c11.5,0,20.9,9.3,20.9,20.9s-9.3,20.9-20.9,20.9c-0.5,0-1,0-1.5-0.1v5.4c0,1.6,1.4,2.9,3.1,2.7l157.3-18.2c1.4-0.2,2.4-1.3,2.4-2.7
	v-1.4C415.4,177.2,412.5,172.8,412.5,167.6z M300.4,144.4c0-3.9,3.2-7.1,7.1-7.1s7.1,3.2,7.1,7.1c0,3.9-3.2,7.1-7.1,7.1
	S300.4,148.3,300.4,144.4z M318,189.1c-5.9,0-10.8-4.8-10.8-10.8s4.8-10.8,10.8-10.8c5.9,0,10.8,4.8,10.8,10.8S324,189.1,318,189.1z
	"/>
<path class="brunch-1" d="M418.8,104.5c-3.2-7.9-15.7-28-61.1-29.3c-0.5,0-0.9,0.1-1.4,0.3l-37,19.7c0.8,1.5,1.3,3.3,1.3,5.1
	c0,6-4.9,10.9-10.9,10.9c-4.2,0-7.8-2.3-9.6-5.8l-40.1,21.4c-2.7,1.4-1.3,5.5,1.7,5.1l154.9-23.7C418.4,108,419.4,106.2,418.8,104.5
	z M347.8,106.8c-1.8,0-3.2-1.4-3.2-3.2c0-1.8,1.4-3.2,3.2-3.2c1.8,0,3.2,1.4,3.2,3.2C351,105.4,349.6,106.8,347.8,106.8z
	 M375.8,94.6c-4.3,0-7.8-3.5-7.8-7.8s3.5-7.8,7.8-7.8c4.3,0,7.8,3.5,7.8,7.8S380.1,94.6,375.8,94.6z"/>
<path class="brunch-3" d="M147.1,336.1c4.7-7.2,10.1-13.6,16.5-19.2c4.8-4.2,9-9,10.7-15.3c0.8-3.1,0.5-6.6,0.7-9.9
	c-6.9,7.2-13.4,13.7-19.6,20.4c-2.2,2.3-4.2,4.9-5.9,7.6c-5.6,9.3-13.1,16.8-22,22.9c-16.1,11.1-33.8,18.5-52.8,22.6
	c-18.4,4-36.7,5.2-55.2-2.2c1.6,5.4,5.1,8.7,9.5,10.2c6,2.1,12.3,4,18.6,4.4c22.9,1.5,44.4-4.3,64.8-14.3
	C125.9,356.8,138.7,349,147.1,336.1z"/>
<path class="brunch-4" d="M172.3,317.9c-8.3,8.3-16.8,16.3-22.6,27.5c7.5-2.9,14.3-6.7,19.8-12.4c6.3-6.5,13.4-11.9,21.3-16.4
	c5.5-3,10.1-7.1,13.4-12.5c3.2-5.3,2.6-10.5-1.9-14.7c-6.9-6.3-15.5-8.3-24.9-10.1c1.2,3.4,1.9,6.3,3.1,8.9
	c2.9,6.5,2.5,12.9-0.8,18.9C177.6,311,175.3,314.9,172.3,317.9z"/>
<path class="brunch-3" d="M208.1,312.8c-6.9,4.7-13.8,9.3-20.5,14.1c-3,2.1-6.2,4.3-8.7,7c-9,9.9-20.1,16.4-32.6,20.6
	c-7.6,2.6-14.7,5.8-21.4,10.3c-4.7,3.1-9.9,5.4-14.9,8.1c2.3,0.5,4.5,0.3,6.6-0.1c7.7-1.6,15.5-2.9,23-5.1
	c12.9-3.8,24.9-9.4,34.8-19.1c4.6-4.6,10.1-8.4,15.4-12c5.7-3.9,11.9-7.3,15.8-13.3C207.7,319.7,209.1,316.3,208.1,312.8z"/>
<path class="brunch-4" d="M14.2,348.1c1.3,3,3.6,5.6,7.1,7.4c3.5,1.8,7.3,3.5,11.1,4.2c18.6,5.6,46.2,2.3,76.4-13.7c0,0,0,0,0,0
	c9.8-4.7,18.9-10.7,26.1-19c9.6-11,18.7-22.4,28.5-33.3c11.4-12.5,6.6-23.7-10.1-26.7c-14.1-2.6-27.6,0-41,4.1
	c-18.8,5.8-35.7,15.8-52.5,25.6C48.6,303.1,38,311,27.5,318.8c-6,4.5-10.6,10.5-13.2,17.7C12.8,340.8,12.8,344.7,14.2,348.1
	L14.2,348.1C14.2,348.1,14.2,348.1,14.2,348.1z M50.4,315.6c12-1.8,24-3.5,35.9-5.6c2.3-0.4,4.6-1.5,6.5-2.9
	c9.5-7.3,18.8-14.8,28.1-22.3c0.8-0.6,1.6-1.3,2.4-1.9c1.9-1.6,4-2.8,6-0.4c2.1,2.4,0.4,4.2-1.5,5.8c-3.8,3-7.7,6.1-11.5,9.1
	c-6.7,5.4-13.5,10.7-20.6,16.4c2.9,4.9,5.6,9.6,8.3,14.2c1.3,2.1,1.9,4.2-0.5,5.7c-2.6,1.7-4.2,0.1-5.6-2.2
	c-2.5-4.3-5.1-8.6-7.9-13.2c-7.6,6-14.9,11.8-22.3,17.6c-1.9,1.5-3.8,3.1-5.8,4.5c-1.9,1.4-3.9,1.9-5.4-0.2c-1.4-2-0.8-3.8,1.2-5.3
	c6.5-5.1,12.9-10.2,20-15.9c-1.8,0.1-2.7,0-3.6,0.2c-7.5,1.1-15,2.2-22.5,3.4c-2.7,0.4-5.6,0.8-6.1-2.7
	C45.1,316.5,47.9,315.9,50.4,315.6z"/>
<path class="brunch-4" d="M375.9,313.8c-0.5-4.3-4.2-7.6-8.6-7.6h-43.6h-7h-43.6c-4.4,0-8.1,3.3-8.6,7.6c-2.3,19.3,7.4,54.6,19.6,69.5
	c2.6,3.2,6.5,4.9,10.5,4.9h22h7h22c4.1,0,8-1.8,10.5-4.9C368.5,368.5,378.2,333.1,375.9,313.8z"/>
<path class="brunch-3" d="M291.6,261.9c2.2,3.8,0,8.8,0.8,12.7c0.2,0.8,0.4,1.1,1.1,1.6c4.1,2.6,7.1,6.1,6.7,11.4
	c-0.2,3.5-2.9,6.6-5.3,8.3c-1.1,0.8-2.2,1.4-3.1,2.3c-0.3,0.3-0.5,0.6-0.6,1.1c-2.3-2.8,2.6-8.6,1.5-11.8c-0.6-2.5-2.7-3.2-4.8-5.1
	c-3.1-2.8-3.7-7.4-2.2-11.1c0.8-2,1.8-3.6,2.9-5C289.5,265,290.9,263.4,291.6,261.9L291.6,261.9z"/>
<path class="brunch-3" d="M339.9,261.9c2.2,3.8,0,8.8,0.8,12.7c0.2,0.8,0.4,1.1,1.1,1.6c4.1,2.6,7.1,6.1,6.7,11.4
	c-0.2,3.5-2.9,6.6-5.3,8.3c-1.1,0.8-2.2,1.4-3.1,2.3c-0.3,0.3-0.5,0.6-0.6,1.1c-2.3-2.8,2.6-8.6,1.5-11.8c-0.6-2.5-2.7-3.2-4.8-5.1
	c-3.1-2.8-3.7-7.4-2.2-11.1c0.8-2,1.8-3.6,2.9-5C337.8,265,339.3,263.4,339.9,261.9L339.9,261.9z"/>
<path class="brunch-3" d="M319.4,288.8c0.7-3.9-2.6-5.6-5-8.4c-1.3-1.4-2.6-3-3.7-4.9c-2.6-4.2-3-10.4-0.7-14.9c1.3-2.7,3.8-4.3,5.5-6.5
	c1.5-2.1,2.4-4.2,3.9-6.6c2.2,5.3,1.4,10.3-1.5,15.1c-0.6,1.3-0.7,2.2-0.8,3.5c-0.1,2.1,0.1,3.8,0.9,6
	C319.6,276.6,325.5,285,319.4,288.8L319.4,288.8z"/>
<path class="brunch-4" d="M398.7,318.6c-3.9-3.7-9.4-5.3-14.7-5.8c0,0,0,0.1,0,0.1c0.4,3.3,0.5,6.9,0.3,10.8c2.9,0.4,5.5,1.3,7.1,2.8
	c1,0.9,2.3,2.7,1.7,6.9c-1,7.2-7,14.4-14.1,20.5c-1.9,6.4-4.1,12.6-6.7,18.2c12.2-7.8,29.3-21.5,31.4-37.3
	C404.8,326.4,401.6,321.3,398.7,318.6z"/>
</svg>
