<?xml version="1.0" encoding="utf-8"?>
<!-- Generator: Adobe Illustrator 24.3.0, SVG Export Plug-In . SVG Version: 6.00 Build 0)  -->
<svg version="1.1" id="Calque_1" xmlns="http://www.w3.org/2000/svg" xmlns:xlink="http://www.w3.org/1999/xlink" x="0px" y="0px"
	 viewBox="0 0 417.8 391.4" style="enable-background:new 0 0 417.8 391.4;" xml:space="preserve">
<style type="text/css">
	.st0{opacity:0.4;fill:#F9E927;enable-background:new    ;}
	.st1{opacity:0.4;fill:#727271;enable-background:new    ;}
	.st2{opacity:0.4;fill:#E30613;enable-background:new    ;}
	.st3{opacity:0.81;enable-background:new    ;}
	.st4{fill:#9D1D06;}
	.st5{opacity:0.95;fill:#9D1D06;enable-background:new    ;}
	.st6{opacity:0.94;}
	.st7{opacity:0.9;}
	.st8{fill:#F9E927;}
	.st9{opacity:0.9;fill:#F9E927;enable-background:new    ;}
</style>
<path class="st0" d="M330.1,286c-0.5-26.4-40.9-64.8-58.4-38.1s-28.1,54.7-75.2,49.3s-33.1-42.7-4.8-49.3s84.3-47.9,69.2-70.3
	c-15.1-22.4-42.1-44.8-57.8-21.6s-52.7,66.3-61.7,29.8s78.4-84.6,105.3-73.1s64.7-37.3,83.3-28.8c28.4,13.1,16.8-48.2,5.4-62.8
	C299.8-24.4,239.2,38.4,219,58.2s-64.4-15.1-77.7-39s-64.9-5.7-58.1,24.9c6.7,30.7,28.1,86.9,24.7,108.9s-76.3,38.3-83.1,64.1
	s48.1,52.5,67.3,44.1s38.4,0,27.3,26.4s-60,68.8-52.1,77.9s80.5,40.2,94.1,11.6c13.6-28.6,41-44.5,71.7-38.8
	C263.9,344,330.6,311.1,330.1,286z"/>
<path class="st1" d="M319.6,288.2c-13.4,41-51,65.1-75.4,66s-34.4-12.4-68.2-7.9s-98.9-58.1-115.8-96.8S54,162.1,79.8,145.6
	s37.4-47.9,42.8-75.9c5.3-28,18.3-57.4,42.6-58.4c23.4-0.9,29.6,27.9,29.6,27.9S277.7-7.4,319.6,8.1s25.5,38.6-6.9,41
	s-34.2,8.2-55.6,20.6s2.3,29.3,9.2,41.9c6.9,12.6-26.9,34.6-56.4,29.1c-29.6-5.5-40.5,6-44.8,24.9c-4.3,18.8,65.7,10,81.5,0
	s42.8,41.5-7.4,52.2s-69.6,25.6-70,50.6s89,25,112.9-14.2C299.1,226.4,328.5,261,319.6,288.2z"/>
<path class="st2" d="M331.3,83c8.5-13.4-100.6-55.1-133.9-39.6S89.9-0.2,67.4,29.9C54.1,47.5,71.5,45,76.7,60.3
	c8.7,25.6-23.5,51.2-3.9,53.4c22.7,2.6,0.2,97.5-17.5,109.2s38.7,36.8,54.3,51s8.3,56,5.2,72.3c-3.1,16.3,135.6,11.3,149.2-27.2
	s72.7-58.6,53.5-76.2s-85.3,31-131,6.7s25.2-71.2,57.6-72.6s-57.9-20.7-76.5-43.9s82.7-54.2,114-38.3S322.1,97.4,331.3,83z"/>
<path class="st3" d="M87.7,207.5c0-0.8,0-1.5,0.1-2.3C87.7,206,87.7,206.7,87.7,207.5z"/>
<g>
	<path class="st4" d="M176.9,181.4c16.3,2.2,42.4-1.8,49.2-5c6.8-3.3-20.4-5.3-27-5.3C192.7,171,168.3,180.2,176.9,181.4z"/>
	<path class="st4" d="M224.7,166.6c-8.3-1.8-8.3,1.5-1.5,4.5C230,174,232.9,168.3,224.7,166.6z"/>
	<path class="st4" d="M175.1,43.9c7.4-6.9,21.9-17.8,38.8-7.6s27.4,8.6,23.9,1.6s-21.3-7.1-36.7-12.1s-29.6,2.2-33.6,9
		S170.2,48.5,175.1,43.9z"/>
	<path class="st4" d="M220.5,19c-9.9-1.5-21.1-1.5-19.3,2.3c1.7,3.7,19.9,7,26.1,7C233.4,28.4,227.1,20.1,220.5,19z"/>
	<path class="st4" d="M322.6,51c-7.2-0.3-15,8.4-13.2,14.2s14,5.8,13.2,0S332.3,51.5,322.6,51z"/>
	<path class="st4" d="M122.4,34.1c-19-0.3-32.2,7.4-32.4,19.3s-7.7-1.8-4.3-8.4s10.7-14.4,25.6-15.1S133.7,34.3,122.4,34.1z"/>
	<path class="st4" d="M86.4,36.8c5.7-4.1,14.7-8.5,17.7-9.3c3-0.8-9.2-4.6-15.5,0.5S81.2,40.6,86.4,36.8z"/>
	<path class="st4" d="M117,340.8c-3.4,10.1,8.5,22,19.3,23.8s19.6,2.6,6.6,5.5c-13,3-18.1-1.2-22.5-8s-12.4-21.9-8.3-24.3
		C116.2,335.5,117,340.8,117,340.8z"/>
	<path class="st4" d="M110.9,350.6c0,0,9.2,13.1,10.9,16.9s-4.4-4.7-8.6-8.5C109.1,355.3,108.6,347.3,110.9,350.6z"/>
	<path class="st4" d="M201.2,216.9c1.2-6.8,13-11.1,22.8-9.4s-3.2,3.9-8.2,4.5S199.8,224.6,201.2,216.9z"/>
	<path class="st5" d="M321.5,30c-6.1-15.2-52-9.4-69.5,10.4s-69.8,17-92.8,8.2s-60.3-18.6-63.4,0s19.1,86.9,22.6,114.3
		s9.1,165.6,5.4,182.9s60,26.1,60,0c0.1-26.1,3.6-58-6.1-76.6c-9.7-18.6,12.7-57.3,30.7-62.8s76.4,3.3,71.1-21
		c-5.3-24.3-25.7-31.6-41.6-12s-84.2,18.2-87.3-6.8s11.8-65.8,46.9-64S299,82.7,301.7,67C304.5,51.2,327.9,45.9,321.5,30z
		 M166.4,227.6c3.6-8.9,12.9-18.8,8.7-9.3c0,0-9.4,14.8-6.7,35.7s-3.9,26.4-6.6,7.4C159.1,242.4,162.8,236.6,166.4,227.6z
		 M298.3,36.2c5.3,3.8-5.8,21.8-2.5,9.2s-9.6-3-13-10.6c-3.3-7.6,17-11.8,26.3-6.4C316,32.4,293,32.4,298.3,36.2z"/>
	<path class="st4" d="M196.8,219.8c3.3-0.2,5.6,4.2,9.9,0c4.3-4.2,2.5,7.4-6.2,8.4c-8.7,0.9-6.6-4.6-13.4,3.2
		c-4.6,5.2,1.4-7.1,5.7-7.1S194.4,219.9,196.8,219.8z"/>
</g>
<g class="st6">
	<g class="st7">
		<path class="st8" d="M165.2,46.4c-27.1,0-68.6,38.9-66.6,57.5S176.9,46.4,165.2,46.4z"/>
		<path class="st8" d="M81.9,122.4c2.7,2.4,17.6-6.3,15.2-10.8c-2.3-4.4-4.5-17.6-8.1-16.4S78.6,119.5,81.9,122.4z"/>
		<path class="st8" d="M218.2,356.8c21.8-1.8,44.9-8,52.1-14.7c7.1-6.7,12.9,14.2,0,14.7s-25.8,4.4-35.6,9.3
			C224.9,371,205.3,357.9,218.2,356.8z"/>
		<path class="st8" d="M261.4,362.1c-11.5,1-21.8,4.4-20.9,7.5s14.2,4.4,20.9,1.8C268.1,368.8,266.5,361.7,261.4,362.1z"/>
		<path class="st8" d="M201,294.6c16.7-2.9,34.5-15.1,39.5-20.4c4.9-5.3-10.6,0.8-19.7,5.9C211.6,285.2,191.3,296.3,201,294.6z"/>
		<path class="st8" d="M97.3,84c-15.4,5.6-12.5-7-4.4-14.2C101,62.7,112.7,78.4,97.3,84z"/>
		<path class="st8" d="M325,270.4c2.9,8.9,1.1,21.3-4.3,27s9.4-0.5,9.7-13.5C330.7,270.9,323.6,266.1,325,270.4z"/>
	</g>
	<path class="st9" d="M264.6,253.6c-21.3,31.4-60.2,53.8-93,46.1s-75.3-43.1-60.2-88.2s48.8-69.6,62.1-102.1s95.3,6.6,119.8-5.2
		s29-17.7,3-29.4C232,45.9,197.4,28.1,178.8,48.6c-18.6,20.4-64.7,64.7-95.2,81.5s-50,184.2,65.1,210.8s173.6-36.3,174.1-58.5
		C323.1,260.3,285.9,222.2,264.6,253.6z M181.8,60.3c1-5.7,9.1-14,24.1-12.2c15.1,1.8,24.5,5.1,23.9,8.8s-21.1-0.9-27.3-1.7
		C196.2,54.5,180.3,68.9,181.8,60.3z M99.7,149.3c-5.3,7.3-27.3,7.5-14.9,0c16.3-9.9,20.2-16.7,26.1-26.4s19.1-20,14.7-5.8
		C121.2,131.2,105.1,141.9,99.7,149.3z M140.5,334.9c-8.6-3.9-10.6-11.3-18.3-12.1c-7.7-0.9-18.2-24.7-12.6-18.1
		c6.5,7.7,27.1,25.2,34.2,23.4C150.9,326.3,149.1,338.7,140.5,334.9z M281.5,270.4c-5.1,0,0.1-6.4,0.1-11.5s-1-9.2,4.1-9.2
		s9.2,4.1,9.2,9.2C294.8,264,286.5,270.4,281.5,270.4z"/>
</g>
</svg>
