<?xml version="1.0" encoding="utf-8"?>
<!-- Generator: Adobe Illustrator 27.0.0, SVG Export Plug-In . SVG Version: 6.00 Build 0)  -->
<svg version="1.1" id="Calque_1" xmlns="http://www.w3.org/2000/svg" xmlns:xlink="http://www.w3.org/1999/xlink" x="0px" y="0px"
	 viewBox="0 0 417.8 391.4" style="enable-background:new 0 0 417.8 391.4;" xml:space="preserve">
<style type="text/css">
	.st0{opacity:0.4;fill:#F9E927;enable-background:new    ;}
	.st1{opacity:0.4;fill:#727271;enable-background:new    ;}
	.st2{opacity:0.4;fill:#E30613;enable-background:new    ;}
	.st3{fill:#9D1D06;}
	.st4{opacity:0.95;fill:#9D1D06;enable-background:new    ;}
	.st5{opacity:0.94;}
	.st6{opacity:0.9;}
	.st7{fill:#F9E927;}
	.st8{opacity:0.9;fill:#F9E927;enable-background:new    ;}
</style>
<path class="st0" d="M360.1,286c-0.5-26.4-70.9-84.8-88.4-58.1s-28.1,44.7-75.2,39.3s6.9-32.7,35.2-39.3S336,200,320.9,177.6
	s-82.1-44.8-97.8-21.6s-42.7,56.3-51.7,19.8s48.4-44.6,75.3-33.1s84.7-17.3,103.3-8.8c28.4,13.1-23.2-78.2-34.6-92.8
	C279.8-4.4,239.2-1.6,219,18.2s-34.4,24.9-47.7,1S46.4,13.5,53.2,44.1C59.9,74.8,81.3,131,77.9,153s-56.3,26.3-63.1,52.1
	s28.1,64.5,47.3,56.1s28.4,20,17.3,46.4s-50,48.8-42.1,57.9s140.5,40.2,154.1,11.6s101-44.5,131.7-38.8
	C353.9,344,360.6,311.1,360.1,286z"/>
<path class="st1" d="M319.6,288.2c-13.4,41,36.6,90.5,12.2,91.4s-122-37.8-155.8-33.3s-124.1,19-141-19.7s-24.8-162.5,1-179
	s4.6-73.2,10-101.2c5.3-28,94.9-34.1,119.2-35.1c23.4-0.9,29.6,27.9,29.6,27.9S277.7-7.4,319.6,8.1s25.5,38.6-6.9,41
	s-34.2,8.2-55.6,20.6s52.3,39.3,59.2,51.9c6.9,12.6-76.9,24.6-106.4,19.1c-29.6-5.5-40.5,6-44.8,24.9c-4.3,18.8,65.7,10,81.5,0
	s42.8,41.5-7.4,52.2s-69.6,25.6-70,50.6s89,25,112.9-14.2C299.1,226.4,328.5,261,319.6,288.2z"/>
<path class="st2" d="M331.3,83c8.5-13.4-100.6-55.1-133.9-39.6S47.5-12,25,18.1C11.7,35.7,30.8,52.7,36,68
	c8.7,25.6-23.6,36.6-4,38.8c22.7,2.6,20.3,86.7,2.6,98.4S26.4,305.4,42,319.6s41.8,43.7,38.7,60c-3.1,16.3,216.1-0.3,229.7-38.8
	s26.3-80.4,7.1-98s-25.9,5.8-71.6-18.5s-34.2-46-1.8-47.4s15.9-30.9-2.7-54.1s8.9-44,40.2-28.1S322.1,97.4,331.3,83z"/>
<g>
	<path class="st3" d="M170.6,181.3c18.4,2.6,47.7-2.1,55.4-6s-23-6.3-30.4-6.3C188.4,168.9,160.9,179.8,170.6,181.3z"/>
	<path class="st3" d="M224.3,161.8c-11.1-2.5-11.1,2-2,6.1C231.4,171.9,235.2,164.1,224.3,161.8z"/>
	<path class="st3" d="M174.8,44.9c7.4-6.9,26.6-16.3,43.5-6.1s23,6.1,19.5-0.9s-26.9-9.7-42.3-14.7s-28-0.1-32,6.7
		S169.9,49.5,174.8,44.9z"/>
	<path class="st3" d="M219.1,14.4c-11.4-1.7-24.2-1.7-22.2,2.6s22.9,8,30,8C233.9,25.2,226.7,15.6,219.1,14.4z"/>
	<path class="st3" d="M325.2,45.9c-7.2-0.3-21.6,21.4-19.8,27.2s7.5,1.4,6.7-4.4S334.9,46.4,325.2,45.9z"/>
	<path class="st3" d="M124.5,30.6c-19-0.3-38,10.4-38.2,22.3s-7.7-0.5-4.3-7.1S97.3,27.7,112.2,27S135.8,30.8,124.5,30.6z"/>
	<path class="st3" d="M81,37.8c5.7-4.1,20.4-12.7,23.4-13.5S89.3,21.7,83,26.8S75.8,41.6,81,37.8z"/>
	<path class="st3" d="M115.8,335.6c-3.4,10.1,19.6,27.1,30.4,28.9s18.9,5.3,5.9,8.2c-13,3-27.3-3.8-31.7-10.6s-17.7-27.8-13.6-30.2
		C110.9,329.6,115.8,335.6,115.8,335.6z"/>
	<path class="st3" d="M106,343.1c0,0,15.7,23.6,17.4,27.4s-11.2-4.4-15.4-8.2C103.9,358.5,103.7,339.8,106,343.1z"/>
	<path class="st3" d="M199.7,214.4c1.2-6.8,31-10.5,40.8-8.8s-10,4.4-15,5S198.3,222.1,199.7,214.4z"/>
	<path class="st4" d="M321.5,30c-6.1-15.2-52-9.4-69.5,10.4s-69.8,17-92.8,8.2s-60.3-18.6-63.4,0s19.1,86.9,22.6,114.3
		s9.1,165.6,5.4,182.9s67.7,26.8,67.7,0.7c0.1-26.1-4.1-58.7-13.8-77.3c-9.7-18.6,12.7-57.3,30.7-62.8s87.3-0.1,82-24.4
		c-5.3-24.3-27.9-36-43.8-16.4s-89.8,32.6-92.9,7.6s8.7-72.4,43.8-70.6S299,82.7,301.7,67C304.5,51.2,327.9,45.9,321.5,30z
		 M166.8,206.1c3.6-8.9,24.5-7.8,20.3,1.7c0,0-21.3,25.3-18.6,46.2s-7.9,40.5-10.6,21.5C155.1,256.5,163.2,215.1,166.8,206.1z
		 M305.2,39.8c5.3,3.8-22,27.1-18.7,14.5s-12.3-8.8-15.7-16.4c-3.3-7.6,29-14.8,38.3-9.4C316,32.4,299.9,36,305.2,39.8z"/>
	<path class="st3" d="M194.4,219.9c3.3-0.2,17,0.4,21.3-3.8s2,8.9-6.7,9.9c-8.7,0.9-16.8,2.5-23.6,10.3c-4.6,5.2,1.1-11.1,5.4-11.1
		S192,220,194.4,219.9z"/>
</g>
<g class="st5">
	<g class="st6">
		<path class="st7" d="M160.8,42.4c-10.8,0-21.5-1.3-33.2,7.3c-17.7,13-20.9,40.4-19.7,51.6c1,9.6,26.1-13.6,44.4-31
			C169.5,54,166.5,42.4,160.8,42.4z"/>
		<path class="st7" d="M80,126.6c2.7,2.4,28.4-14,26-18.5c-2.3-4.4-1.5-22.4-5.1-21.2S76.7,123.7,80,126.6z"/>
		<path class="st7" d="M206.3,353.3c21.8-1.8,81.5-21.2,88.7-27.9c7.1-6.7,0.6,23.6-12.3,24.1s-57.5,9-67.3,13.9
			C205.6,368.4,193.4,354.4,206.3,353.3z"/>
		<path class="st7" d="M278.9,351.8c-11.5,1-59.2,10.3-58.3,13.4s37.6,1.9,44.3-0.7C271.6,361.9,284,351.4,278.9,351.8z"/>
		<path class="st7" d="M205.2,296.7c16.7-2.9,42.8-26.1,47.8-31.4c4.9-5.3-18.8,14.7-27.9,19.8C215.9,290.2,195.5,298.4,205.2,296.7
			z"/>
		<path class="st7" d="M92.9,89.8c-15.4,5.6,11.7-32.9,19.8-40.1C120.8,42.6,108.3,84.2,92.9,89.8z"/>
		<path class="st7" d="M322.8,264.4c2.9,8.9,3.5,24.2-1.9,29.9s16,0.8,16.3-12.2C337.6,269.1,321.4,260.1,322.8,264.4z"/>
	</g>
	<path class="st8" d="M264.6,253.6c-21.3,31.4-60.2,53.8-93,46.1s-75.3-43.1-60.2-88.2s48.8-69.6,62.1-102.1s95.3,6.6,119.8-5.2
		s29-17.7,3-29.4C232,45.9,197.4,28.1,178.8,48.6c-18.6,20.4-64.7,64.7-95.2,81.5s-50,184.2,65.1,210.8s173.6-36.3,174.1-58.5
		C323.1,260.3,285.9,222.2,264.6,253.6z M176.1,60.9c1-5.7,14.3-18.9,29.3-17.1c15.1,1.8,39.5,13.4,38.9,17.1s-33.8-0.7-40-1.5
		C197.9,58.6,174.6,69.5,176.1,60.9z M82.9,149.1c-5.3,7.3-11.1-6.7,1.3-14.2c16.3-9.9,26.7-12,32.6-21.7s12.7-3.2,8.3,11
		C120.7,138.3,88.3,141.7,82.9,149.1z M160.7,340c-8.6-3.9-22.3-7.8-30-8.6c-7.7-0.9,3-18.1,8.6-11.5c6.5,7.7,13.6,6.4,20.7,4.6
		C167.1,322.7,169.3,343.8,160.7,340z M302.2,290.7c-5.1,0-4.3-17.8-4.3-22.9s-17.3-18.1-12.2-18.1s23.6,8.5,23.6,13.6
		C309.2,268.4,307.2,290.7,302.2,290.7z"/>
</g>
</svg>
