<?xml version="1.0" encoding="utf-8"?>
<svg class="sleep-house" xmlns="http://www.w3.org/2000/svg" xmlns:xlink="http://www.w3.org/1999/xlink" x="0px" y="0px" viewBox="0 0 431.3 408.7">
	<path class="sleep-house-1" d="M425.1,188L224.3,6.3c-4.9-4.5-12.4-4.5-17.3,0L6.2,188c-8.8,7.9-3.2,22.5,8.7,22.5h0c0.1,0,0.2,0,0.3-0.1
		l192-173.7c4.8-4.4,12.2-4.4,17,0l192,173.7c0.1,0.1,0.2,0.1,0.3,0.1h0C428.3,210.5,433.9,196,425.1,188z"/>
	<path class="sleep-house-1" d="M360.5,114.9V39.1c0-6.9-5.6-12.5-12.5-12.5h-22.6c-6.9,0-12.5,5.6-12.5,12.5v32.9L360.5,114.9z"/>
	<path class="sleep-house-2" d="M398.6,217.4c0.4-3.2-0.5-6.7-3.4-9.2l-172.4-156c-4-3.7-10.2-3.7-14.3,0l-172.4,156c-2.9,2.6-3.8,6-3.4,9.2
		c-0.1,0.5-0.1,1.1-0.1,1.7v174.2c0,6.9,5.6,12.5,12.5,12.5h119.5V303c0-11,8.9-20,20-20h62.3c11,0,20,8.9,20,20v102.7h119.5
		c6.9,0,12.5-5.6,12.5-12.5V219C398.7,218.5,398.7,217.9,398.6,217.4z"/>
</svg>
