<?xml version="1.0" encoding="utf-8"?>
<svg xmlns="http://www.w3.org/2000/svg" xmlns:xlink="http://www.w3.org/1999/xlink" x="0px" y="0px" viewBox="0 0 431.3 408.7">
<path d="M3.7,360.7V400c0,1.6,1.3,2.8,2.8,2.8h209.2h209.2c1.6,0,2.8-1.3,2.8-2.8v-39.3c0-1.6-1.3-2.8-2.8-2.8H215.7H6.5
	C4.9,357.8,3.7,359.1,3.7,360.7z"/>
<path d="M3.7,198.7v16.8c0,1.6,1.3,2.8,2.8,2.8h209.2h209.2c1.6,0,2.8-1.3,2.8-2.8v-16.8c0-1.6-1.3-2.8-2.8-2.8H215.7H6.5
	C4.9,195.8,3.7,197.1,3.7,198.7z"/>
<path d="M46.3,349.8h-22c-1.6,0-2.8-1.3-2.8-2.8V230.7c0-1.6,1.3-2.8,2.8-2.8h22c1.6,0,2.8,1.3,2.8,2.8V347
	C49.1,348.6,47.8,349.8,46.3,349.8z"/>
<path d="M98.9,349.8h-22c-1.6,0-2.8-1.3-2.8-2.8V230.7c0-1.6,1.3-2.8,2.8-2.8h22c1.6,0,2.8,1.3,2.8,2.8V347
	C101.7,348.6,100.4,349.8,98.9,349.8z"/>
<path d="M151.5,349.8h-22c-1.6,0-2.8-1.3-2.8-2.8V230.7c0-1.6,1.3-2.8,2.8-2.8h22c1.6,0,2.8,1.3,2.8,2.8V347
	C154.3,348.6,153,349.8,151.5,349.8z"/>
<path d="M301.8,349.8h-22c-1.6,0-2.8-1.3-2.8-2.8V230.7c0-1.6,1.3-2.8,2.8-2.8h22c1.6,0,2.8,1.3,2.8,2.8V347
	C304.7,348.6,303.4,349.8,301.8,349.8z"/>
<path d="M354.4,349.8h-22c-1.6,0-2.8-1.3-2.8-2.8V230.7c0-1.6,1.3-2.8,2.8-2.8h22c1.6,0,2.8,1.3,2.8,2.8V347
	C357.3,348.6,356,349.8,354.4,349.8z"/>
<path d="M407,349.8h-22c-1.6,0-2.8-1.3-2.8-2.8V230.7c0-1.6,1.3-2.8,2.8-2.8h22c1.6,0,2.8,1.3,2.8,2.8V347
	C409.9,348.6,408.6,349.8,407,349.8z"/>
<path d="M215.7,227.8L215.7,227.8c-23.2,0-42,18.8-42,42v77.7c0,1.6,1.3,2.8,2.8,2.8h78.3c1.6,0,2.8-1.3,2.8-2.8v-77.7
	C257.7,246.6,238.9,227.8,215.7,227.8z"/>
<path d="M215.9,5.8h-0.4c-1.6,0-2.8,1.3-2.8,2.8V107c0,1.6,1.3,2.8,2.8,2.8h0.4c1.6,0,2.8-1.3,2.8-2.8V8.7
	C218.7,7.1,217.4,5.8,215.9,5.8z"/>
<path d="M297.1,49h-67.8c-1.6,0-2.8-1.3-2.8-2.8V8.7c0-1.6,1.3-2.8,2.8-2.8h67.8c1.6,0,2.8,1.3,2.8,2.8v37.5
	C299.9,47.7,298.6,49,297.1,49z"/>
<path d="M417,179.5l-200.1-101c-0.8-0.4-1.8-0.4-2.6,0l-200.1,101c-2.7,1.3-1.7,5.4,1.3,5.4h200.1h200.1
	C418.7,184.8,419.7,180.8,417,179.5z M215.7,168.3c0,0-31.8-23.5-31.8-34.2s8.7-19.4,19.4-19.4c4.7,0,9.1,1.8,12.4,4.5
	c3.4-2.8,7.7-4.5,12.4-4.5c10.7,0,19.4,8.7,19.4,19.4S215.7,168.3,215.7,168.3z"/>
</svg>
