<?xml version="1.0" encoding="utf-8"?>
<svg version="1.1" id="Calque_1" xmlns="http://www.w3.org/2000/svg" xmlns:xlink="http://www.w3.org/1999/xlink" x="0px" y="0px"
	 viewBox="0 0 347.3 65.9">
	<linearGradient id="mariage_letter_gradient_1" gradientUnits="userSpaceOnUse" x1="31.931" y1="1.5789" x2="31.931" y2="61.9153">
		<stop class="mariage_letter_gradient_stop_1"  offset="0" style="stop-color:#FFED00"/>
		<stop class="mariage_letter_gradient_stop_2"  offset="0.5" style="stop-color:#E30613">
			<animate attributeName="offset" dur="2.5s" values="0;1;0"
			repeatCount="indefinite" />
		</stop>
		<stop class="mariage_letter_gradient_stop_3"  offset="1" style="stop-color:#FFED00"/>
	</linearGradient>
	<path class="mariage_letter_gradient_0" d="M0.7,60.1V5.9c0-0.6,0.1-1.1,0.3-1.6c0.2-0.5,0.5-1,0.9-1.3C2.2,2.5,2.7,2.2,3.2,2c0.5-0.2,1-0.3,1.6-0.3
		c1.6,0,2.8,0.7,3.7,2.2l23.4,46.8L55.4,3.9c0.9-1.5,2.2-2.2,3.7-2.2c0.6,0,1.1,0.1,1.6,0.3c0.5,0.2,1,0.5,1.3,0.9
		c0.4,0.4,0.7,0.8,0.9,1.3c0.2,0.5,0.3,1,0.3,1.6v54.2c0,1.1-0.4,2.1-1.2,2.9c-0.8,0.8-1.8,1.2-2.9,1.2c-1.1,0-2.1-0.4-2.9-1.2
		c-0.8-0.8-1.2-1.8-1.2-2.9V23.4L35.5,62.1c-0.8,1.4-2,2.1-3.6,2.1c-1.7,0-3-0.8-3.8-2.5L9,23.4v36.6c0,1.1-0.4,2.1-1.2,2.9
		c-0.8,0.8-1.8,1.2-2.9,1.2c-1.1,0-2.1-0.4-2.9-1.2C1.1,62.2,0.7,61.2,0.7,60.1z"/>
	<linearGradient id="mariage_letter_gradient_2" gradientUnits="userSpaceOnUse" x1="94.5287" y1="1.5789" x2="94.5287" y2="61.9153">
		<stop class="mariage_letter_gradient_stop_1"  offset="0" style="stop-color:#FFED00"/>
		<stop class="mariage_letter_gradient_stop_2"  offset="0.5" style="stop-color:#E30613">
			<animate attributeName="offset" dur="2.5s" values="0;1;0"
			repeatCount="indefinite" />
		</stop>
		<stop class="mariage_letter_gradient_stop_3"  offset="1" style="stop-color:#FFED00"/>
	</linearGradient>
	<path class="mariage_letter_gradient_1" d="M69.7,58.2L90.6,4.5c0.8-1.9,2.1-2.8,3.9-2.8c1.8,0,3.2,0.9,3.9,2.8l20.9,53.9c0.2,0.5,0.3,1.1,0.3,1.7
		c0,1.1-0.4,2.1-1.2,2.9c-0.8,0.8-1.8,1.2-2.9,1.2c-1.1,0-2.1-0.4-2.9-1.2c-0.4-0.4-0.7-0.9-0.9-1.3l-7.2-18.6h-20l-7.3,18.6
		c-0.2,0.5-0.5,0.9-0.9,1.3c-0.8,0.8-1.8,1.2-2.9,1.2c-1.1,0-2.1-0.4-2.9-1.2c-0.8-0.8-1.2-1.8-1.2-2.9
		C69.3,59.5,69.5,58.8,69.7,58.2z M101.3,34.8l-6.8-17.5l-6.8,17.5H101.3z"/>
	<linearGradient id="mariage_letter_gradient_3" gradientUnits="userSpaceOnUse" x1="146.1888" y1="1.5789" x2="146.1888" y2="61.9153">
		<stop class="mariage_letter_gradient_stop_1"  offset="0" style="stop-color:#FFED00"/>
		<stop class="mariage_letter_gradient_stop_2"  offset="0.5" style="stop-color:#E30613">
			<animate attributeName="offset" dur="2.5s" values="0;1;0"
			repeatCount="indefinite" />
		</stop>
		<stop class="mariage_letter_gradient_stop_3"  offset="1" style="stop-color:#FFED00"/>
	</linearGradient>
	<path class="mariage_letter_gradient_2" d="M125.5,60.1V5.9c0-0.6,0.1-1.1,0.3-1.6c0.2-0.5,0.5-1,0.9-1.3c0.4-0.4,0.8-0.7,1.3-0.9c0.5-0.2,1-0.3,1.6-0.3
		h15.1c2.6,0,5.1,0.5,7.4,1.5c2.3,1,4.4,2.4,6.1,4.1c1.7,1.7,3.1,3.8,4.1,6.1c1,2.3,1.5,4.8,1.5,7.4c0,1.7-0.2,3.4-0.6,5
		c-0.4,1.6-1.1,3.2-1.9,4.6c-0.8,1.4-1.9,2.8-3.2,4c-1.3,1.2-2.7,2.3-4.4,3.3l12.5,20c0.4,0.7,0.7,1.5,0.7,2.3
		c0,0.6-0.1,1.1-0.3,1.6c-0.2,0.5-0.5,0.9-0.9,1.3c-0.4,0.4-0.8,0.7-1.3,0.9c-0.5,0.2-1,0.3-1.6,0.3c-1.5,0-2.6-0.7-3.6-2
		l-13.8-22.1h-11.6v20c0,1.1-0.4,2.1-1.2,2.9c-0.8,0.8-1.8,1.2-2.9,1.2c-1.1,0-2.1-0.4-2.9-1.2C125.9,62.2,125.5,61.2,125.5,60.1z
		 M133.8,10v21.8h10.9c1.5,0,2.9-0.3,4.3-0.9c1.3-0.6,2.5-1.4,3.5-2.4c1-1,1.8-2.2,2.3-3.5c0.6-1.3,0.9-2.7,0.9-4.2
		c0-1.5-0.3-2.9-0.9-4.3c-0.6-1.3-1.4-2.5-2.3-3.5c-1-1-2.1-1.8-3.5-2.3c-1.3-0.6-2.7-0.9-4.2-0.9H133.8z"/>
	<linearGradient id="mariage_letter_gradient_4" gradientUnits="userSpaceOnUse" x1="179.2748" y1="1.5789" x2="179.2748" y2="61.9153">
		<stop class="mariage_letter_gradient_stop_1"  offset="0" style="stop-color:#FFED00"/>
		<stop class="mariage_letter_gradient_stop_2"  offset="0.5" style="stop-color:#E30613">
			<animate attributeName="offset" dur="2.5s" values="0;1;0"
			repeatCount="indefinite" />
		</stop>
		<stop class="mariage_letter_gradient_stop_3"  offset="1" style="stop-color:#FFED00"/>
	</linearGradient>
	<path class="mariage_letter_gradient_3" d="M183.4,60.1c0,1.1-0.4,2.1-1.2,2.9c-0.8,0.8-1.8,1.2-2.9,1.2c-1.1,0-2.1-0.4-2.9-1.2c-0.8-0.8-1.2-1.8-1.2-2.9
		V5.9c0-1.1,0.4-2.1,1.2-2.9c0.8-0.8,1.8-1.2,2.9-1.2c1.1,0,2.1,0.4,2.9,1.2c0.8,0.8,1.2,1.8,1.2,2.9V60.1z"/>
	<linearGradient id="mariage_letter_gradient_5" gradientUnits="userSpaceOnUse" x1="216.4037" y1="1.5789" x2="216.4037" y2="61.9153">
		<stop class="mariage_letter_gradient_stop_1"  offset="0" style="stop-color:#FFED00"/>
		<stop class="mariage_letter_gradient_stop_2"  offset="0.5" style="stop-color:#E30613">
			<animate attributeName="offset" dur="2.5s" values="0;1;0"
			repeatCount="indefinite" />
		</stop>
		<stop class="mariage_letter_gradient_stop_3"  offset="1" style="stop-color:#FFED00"/>
	</linearGradient>
	<path class="mariage_letter_gradient_4" d="M191.6,58.2l20.9-53.7c0.8-1.9,2.1-2.8,3.9-2.8c1.8,0,3.2,0.9,3.9,2.8l20.9,53.9c0.2,0.5,0.3,1.1,0.3,1.7
		c0,1.1-0.4,2.1-1.2,2.9c-0.8,0.8-1.8,1.2-2.9,1.2c-1.1,0-2.1-0.4-2.9-1.2c-0.4-0.4-0.7-0.9-0.9-1.3l-7.2-18.6h-20l-7.3,18.6
		c-0.2,0.5-0.5,0.9-0.9,1.3c-0.8,0.8-1.8,1.2-2.9,1.2c-1.1,0-2.1-0.4-2.9-1.2c-0.8-0.8-1.2-1.8-1.2-2.9
		C191.2,59.5,191.3,58.8,191.6,58.2z M223.2,34.8l-6.8-17.5l-6.8,17.5H223.2z"/>
	<linearGradient id="mariage_letter_gradient_6" gradientUnits="userSpaceOnUse" x1="269.8412" y1="1.5789" x2="269.8412" y2="61.9153">
		<stop class="mariage_letter_gradient_stop_1"  offset="0" style="stop-color:#FFED00"/>
		<stop class="mariage_letter_gradient_stop_2"  offset="0.5" style="stop-color:#E30613">
			<animate attributeName="offset" dur="2.5s" values="0;1;0"
			repeatCount="indefinite" />
		</stop>
		<stop class="mariage_letter_gradient_stop_3"  offset="1" style="stop-color:#FFED00"/>
	</linearGradient>
	<path class="mariage_letter_gradient_5" d="M295.8,54.3c0,1.1-0.4,2.1-1.3,3c-5.8,4.6-12.4,7-19.6,7c-8.6,0-16-3-22.1-9.1c-6.1-6.1-9.1-13.5-9.1-22.1
		c0-8.6,3-16,9.1-22.1c6.1-6.1,13.5-9.2,22.1-9.2c7.4,0,14.1,2.4,20,7.3c0.7,0.7,1.1,1.6,1.1,2.9c0,0.6-0.1,1.1-0.3,1.6
		c-0.2,0.5-0.5,0.9-0.9,1.3c-0.4,0.4-0.8,0.7-1.3,0.9c-0.5,0.2-1,0.3-1.6,0.3c-1.1,0-2-0.4-2.9-1.2c-2-1.6-4.2-2.8-6.5-3.6
		c-2.4-0.8-4.9-1.2-7.6-1.2c-6.4,0-11.8,2.3-16.3,6.8c-4.5,4.5-6.7,9.9-6.7,16.2c0,6.4,2.2,11.8,6.7,16.2c4.5,4.5,9.9,6.7,16.3,6.7
		c4.7,0,8.9-1.2,12.7-3.7V40.1h-10.8c-1.2,0-2.2-0.4-2.9-1.2c-0.8-0.8-1.2-1.8-1.2-2.9c0-0.6,0.1-1.1,0.3-1.6c0.2-0.5,0.5-1,0.9-1.3
		c0.4-0.4,0.8-0.7,1.3-0.9c0.5-0.2,1-0.3,1.6-0.3h15c0.5,0,1.1,0.1,1.6,0.3c0.5,0.2,0.9,0.5,1.3,0.9c0.4,0.4,0.7,0.8,0.9,1.3
		c0.2,0.5,0.3,1,0.3,1.6V54.3z"/>
	<linearGradient id="mariage_letter_gradient_7" gradientUnits="userSpaceOnUse" x1="324.3722" y1="1.5789" x2="324.3722" y2="61.9153">
		<stop class="mariage_letter_gradient_stop_1"  offset="0" style="stop-color:#FFED00"/>
		<stop class="mariage_letter_gradient_stop_2"  offset="0.5" style="stop-color:#E30613">
			<animate attributeName="offset" dur="2.5s" values="0;1;0"
			repeatCount="indefinite" />
		</stop>
		<stop class="mariage_letter_gradient_stop_3"  offset="1" style="stop-color:#FFED00"/>
	</linearGradient>
	<path class="mariage_letter_gradient_6" d="M342.4,55.9c1.1,0,2.1,0.4,2.9,1.2c0.8,0.8,1.2,1.8,1.2,2.9c0,1.1-0.4,2.1-1.2,2.9c-0.8,0.8-1.8,1.2-2.9,1.2
		h-36.1c-0.6,0-1.1-0.1-1.6-0.3c-0.5-0.2-0.9-0.5-1.3-0.9c-0.4-0.4-0.7-0.8-0.9-1.3c-0.2-0.5-0.3-1-0.3-1.6V5.9
		c0-0.6,0.1-1.1,0.3-1.6c0.2-0.5,0.5-1,0.9-1.3c0.4-0.4,0.8-0.7,1.3-0.9c0.5-0.2,1-0.3,1.6-0.3h36.1c1.1,0,2.1,0.4,2.9,1.2
		c0.8,0.8,1.2,1.8,1.2,2.9c0,1.1-0.4,2.1-1.2,2.9c-0.8,0.8-1.8,1.2-2.9,1.2h-32v18.8h23c1.1,0,2.1,0.4,2.9,1.2
		c0.8,0.8,1.2,1.8,1.2,2.9c0,1.1-0.4,2.1-1.2,2.9c-0.8,0.8-1.8,1.2-2.9,1.2h-23v18.8H342.4z"/>
</svg>
