<?xml version="1.0" encoding="utf-8"?>
<!-- Generator: Adobe Illustrator 24.3.0, SVG Export Plug-In . SVG Version: 6.00 Build 0)  -->
<svg version="1.1" id="Calque_1" xmlns="http://www.w3.org/2000/svg" xmlns:xlink="http://www.w3.org/1999/xlink" x="0px" y="0px"
	 viewBox="0 0 348.8 69" style="enable-background:new 0 0 348.8 69;" xml:space="preserve">
<g>
	<path d="M1.4,61.6V7.4c0-0.6,0.1-1.1,0.3-1.6c0.2-0.5,0.5-1,0.9-1.3C3,4.1,3.4,3.8,3.9,3.6c0.5-0.2,1-0.3,1.6-0.3
		c1.6,0,2.8,0.7,3.7,2.2l23.4,46.8L56.1,5.5c0.9-1.5,2.2-2.2,3.7-2.2c0.6,0,1.1,0.1,1.6,0.3c0.5,0.2,1,0.5,1.3,0.9
		c0.4,0.4,0.7,0.8,0.9,1.3c0.2,0.5,0.3,1,0.3,1.6v54.2c0,1.1-0.4,2.1-1.2,2.9c-0.8,0.8-1.8,1.2-2.9,1.2c-1.1,0-2.1-0.4-2.9-1.2
		c-0.8-0.8-1.2-1.8-1.2-2.9V25L36.3,63.7c-0.8,1.4-2,2.1-3.6,2.1c-1.7,0-3-0.8-3.8-2.5L9.7,25v36.6c0,1.1-0.4,2.1-1.2,2.9
		c-0.8,0.8-1.8,1.2-2.9,1.2c-1.1,0-2.1-0.4-2.9-1.2C1.8,63.8,1.4,62.8,1.4,61.6z"/>
	<path d="M70.5,59.8L91.4,6.1c0.8-1.9,2.1-2.8,3.9-2.8c1.8,0,3.2,0.9,3.9,2.8L120.2,60c0.2,0.5,0.3,1.1,0.3,1.7
		c0,1.1-0.4,2.1-1.2,2.9c-0.8,0.8-1.8,1.2-2.9,1.2c-1.1,0-2.1-0.4-2.9-1.2c-0.4-0.4-0.7-0.9-0.9-1.3l-7.2-18.6h-20L78,63.2
		c-0.2,0.5-0.5,0.9-0.9,1.3c-0.8,0.8-1.8,1.2-2.9,1.2c-1.1,0-2.1-0.4-2.9-1.2c-0.8-0.8-1.2-1.8-1.2-2.9C70.1,61,70.2,60.4,70.5,59.8
		z M102.1,36.4l-6.8-17.5l-6.8,17.5H102.1z"/>
	<path d="M126.2,61.6V7.4c0-0.6,0.1-1.1,0.3-1.6c0.2-0.5,0.5-1,0.9-1.3c0.4-0.4,0.8-0.7,1.3-0.9c0.5-0.2,1-0.3,1.6-0.3h15.1
		c2.6,0,5.1,0.5,7.4,1.5c2.3,1,4.4,2.4,6.1,4.1c1.7,1.7,3.1,3.8,4.1,6.1c1,2.3,1.5,4.8,1.5,7.4c0,1.7-0.2,3.4-0.6,5
		c-0.4,1.6-1.1,3.2-1.9,4.6c-0.8,1.4-1.9,2.8-3.2,4c-1.3,1.2-2.7,2.3-4.4,3.3l12.5,20c0.4,0.7,0.7,1.5,0.7,2.3
		c0,0.6-0.1,1.1-0.3,1.6c-0.2,0.5-0.5,0.9-0.9,1.3c-0.4,0.4-0.8,0.7-1.3,0.9c-0.5,0.2-1,0.3-1.6,0.3c-1.5,0-2.6-0.7-3.6-2
		l-13.8-22.1h-11.6v20c0,1.1-0.4,2.1-1.2,2.9c-0.8,0.8-1.8,1.2-2.9,1.2c-1.1,0-2.1-0.4-2.9-1.2C126.7,63.8,126.2,62.8,126.2,61.6z
		 M134.5,11.6v21.8h10.9c1.5,0,2.9-0.3,4.3-0.9c1.3-0.6,2.5-1.4,3.5-2.4c1-1,1.8-2.2,2.3-3.5c0.6-1.3,0.9-2.7,0.9-4.2
		c0-1.5-0.3-2.9-0.9-4.3c-0.6-1.3-1.4-2.5-2.3-3.5c-1-1-2.1-1.8-3.5-2.3c-1.3-0.6-2.7-0.9-4.2-0.9H134.5z"/>
	<path d="M184.2,61.6c0,1.1-0.4,2.1-1.2,2.9c-0.8,0.8-1.8,1.2-2.9,1.2c-1.1,0-2.1-0.4-2.9-1.2c-0.8-0.8-1.2-1.8-1.2-2.9V7.4
		c0-1.1,0.4-2.1,1.2-2.9c0.8-0.8,1.8-1.2,2.9-1.2c1.1,0,2.1,0.4,2.9,1.2c0.8,0.8,1.2,1.8,1.2,2.9V61.6z"/>
	<path d="M192.4,59.8l20.9-53.7c0.8-1.9,2.1-2.8,3.9-2.8c1.8,0,3.2,0.9,3.9,2.8L242.1,60c0.2,0.5,0.3,1.1,0.3,1.7
		c0,1.1-0.4,2.1-1.2,2.9c-0.8,0.8-1.8,1.2-2.9,1.2c-1.1,0-2.1-0.4-2.9-1.2c-0.4-0.4-0.7-0.9-0.9-1.3l-7.2-18.6h-20l-7.3,18.6
		c-0.2,0.5-0.5,0.9-0.9,1.3c-0.8,0.8-1.8,1.2-2.9,1.2c-1.1,0-2.1-0.4-2.9-1.2c-0.8-0.8-1.2-1.8-1.2-2.9
		C192,61,192.1,60.4,192.4,59.8z M224,36.4l-6.8-17.5l-6.8,17.5H224z"/>
	<path d="M296.6,55.9c0,1.1-0.4,2.1-1.3,3c-5.8,4.6-12.4,7-19.6,7c-8.6,0-16-3-22.1-9.1c-6.1-6.1-9.1-13.5-9.1-22.1
		c0-8.6,3-16,9.1-22.1c6.1-6.1,13.5-9.2,22.1-9.2c7.4,0,14.1,2.4,20,7.3c0.7,0.7,1.1,1.6,1.1,2.9c0,0.6-0.1,1.1-0.3,1.6
		c-0.2,0.5-0.5,0.9-0.9,1.3c-0.4,0.4-0.8,0.7-1.3,0.9c-0.5,0.2-1,0.3-1.6,0.3c-1.1,0-2-0.4-2.9-1.2c-2-1.6-4.2-2.8-6.5-3.6
		c-2.4-0.8-4.9-1.2-7.6-1.2c-6.4,0-11.8,2.3-16.3,6.8c-4.5,4.5-6.7,9.9-6.7,16.2c0,6.4,2.2,11.8,6.7,16.2c4.5,4.5,9.9,6.7,16.3,6.7
		c4.7,0,8.9-1.2,12.7-3.7V41.7h-10.8c-1.2,0-2.2-0.4-2.9-1.2c-0.8-0.8-1.2-1.8-1.2-2.9c0-0.6,0.1-1.1,0.3-1.6c0.2-0.5,0.5-1,0.9-1.3
		c0.4-0.4,0.8-0.7,1.3-0.9c0.5-0.2,1-0.3,1.6-0.3h15c0.5,0,1.1,0.1,1.6,0.3c0.5,0.2,0.9,0.5,1.3,0.9c0.4,0.4,0.7,0.8,0.9,1.3
		c0.2,0.5,0.3,1,0.3,1.6V55.9z"/>
	<path d="M343.2,57.5c1.1,0,2.1,0.4,2.9,1.2c0.8,0.8,1.2,1.8,1.2,2.9c0,1.1-0.4,2.1-1.2,2.9c-0.8,0.8-1.8,1.2-2.9,1.2h-36.1
		c-0.6,0-1.1-0.1-1.6-0.3c-0.5-0.2-0.9-0.5-1.3-0.9c-0.4-0.4-0.7-0.8-0.9-1.3c-0.2-0.5-0.3-1-0.3-1.6V7.4c0-0.6,0.1-1.1,0.3-1.6
		c0.2-0.5,0.5-1,0.9-1.3c0.4-0.4,0.8-0.7,1.3-0.9c0.5-0.2,1-0.3,1.6-0.3h36.1c1.1,0,2.1,0.4,2.9,1.2c0.8,0.8,1.2,1.8,1.2,2.9
		c0,1.1-0.4,2.1-1.2,2.9c-0.8,0.8-1.8,1.2-2.9,1.2h-32v18.8h23c1.1,0,2.1,0.4,2.9,1.2c0.8,0.8,1.2,1.8,1.2,2.9
		c0,1.1-0.4,2.1-1.2,2.9c-0.8,0.8-1.8,1.2-2.9,1.2h-23v18.8H343.2z"/>
</g>
</svg>
