<?xml version="1.0" encoding="utf-8"?>
<!-- Generator: Adobe Illustrator 27.0.0, SVG Export Plug-In . SVG Version: 6.00 Build 0)  -->
<svg version="1.1" id="Calque_1" xmlns="http://www.w3.org/2000/svg" xmlns:xlink="http://www.w3.org/1999/xlink" x="0px" y="0px"
	 viewBox="0 0 417.8 393.4" style="enable-background:new 0 0 417.8 393.4;" xml:space="preserve">
<style type="text/css">
	.st0{opacity:0.4;}
	.st1{fill:#727271;}
	.st2{opacity:0.4;fill:#E30613;enable-background:new    ;}
	.st3{opacity:0.4;fill:#F9E927;enable-background:new    ;}
	.st4{opacity:0.81;fill:#E30613;enable-background:new    ;}
	.st5{opacity:0.81;fill:#F9E927;enable-background:new    ;}
	.st6{fill:#E30613;}
	.st7{fill:#F9E927;}
	.st8{opacity:0.81;enable-background:new    ;}
	.st9{opacity:0.85;fill:#0F133B;enable-background:new    ;}
	.st10{fill:#E42313;}
	.st11{opacity:0.81;fill:#F2DC00;enable-background:new    ;}
	.st12{fill:#0F133B;}
	.st13{opacity:0.9;fill:#E42313;enable-background:new    ;}
	.st14{opacity:0.4;fill:#727271;enable-background:new    ;}
	.st15{opacity:0.95;}
	.st16{fill:#9D1D06;}
	.st17{opacity:0.95;fill:#9D1D06;enable-background:new    ;}
	.st18{opacity:0.94;}
	.st19{opacity:0.9;}
	.st20{opacity:0.9;fill:#F9E927;enable-background:new    ;}
</style>
<g id="Calque_1_00000119083987125290054290000010560953183189157805_">
	<g class="st0">
		<path class="st1" d="M2134.6-431.1c-5.8-1.2-11.5-1.8-17.3-2c18.6-17.4,35.6-38.7,34.8-65.7c-0.8-25.7-16-48.5-39.1-56.9
			c-3.9-1.8-8.2-2.8-12.7-3c-1-0.1-2-0.2-3-0.3c-6.9-1.6-13.6-3.7-21.1-3.7c-10.9-0.1-22.7,2.3-32.9,6c-18.6,6.6-36,16.7-50.4,30.2
			c-13.4,12.6-23.1,29-28.3,46.6c-4,13.5-4.8,27.7-9.4,41c-0.9,1.7-1.9,3.4-2.9,5c-0.8,0.8-1.5,1.6-2.3,2.4
			c-0.4,0.3-0.9,0.5-1.3,0.8c-2.4,0.8-4.9,1.4-7.5,1.9c-6.6,0.6-13.2,0.7-19.8,0.9c-10.6,0.3-21.1,1.4-31.5,3.4
			c-18.7,3.5-37.8,10.5-53.1,22c-20.3,15.3-34.9,35.4-44.3,58.9c-9.2,23.1-7.8,51.8,6.9,72.4c9.5,13.3,21.9,23.9,37.9,28.5
			c7.6,2.1,15.8,2.7,23.6,2.2c0.7,0,1.3-0.1,1.9-0.1c-1,2.4-1.9,4.8-2.6,7.2c-4.3,13.9-3,28.2,3.3,41.1
			c12.7,26.2,42.9,30.9,68.6,34.3c17.4,2.3,34.2,3.9,51.7-0.7c21.9-5.7,43.9-21.5,50.2-44.2c2-7.4,2.2-14.6,0.9-21.3
			c2.5-0.4,5-0.9,7.5-1.5c14.5-3.3,29-9,41.8-16.5c17-9.9,31.5-24.3,37.4-43.4c3.9-12.4,2.6-25.8-2.2-37.7c5.3-0.7,10.6-1.7,15.7-3
			c24.6-6.3,49.4-24.3,49.5-52.1C2184.9-405.3,2159.4-426,2134.6-431.1z M1911.8-326.9c0.7,1,1.5,1.9,2.2,2.8c-1-1.2-2-2.4-3-3.5
			C1911.3-327.3,1911.6-327.1,1911.8-326.9z"/>
		<path class="st1" d="M1933.1-157.7c-0.3,0-0.6-0.1-1-0.1c0,0-0.1,0-0.1,0C1932.4-157.8,1932.8-157.8,1933.1-157.7z"/>
		<path class="st1" d="M1932.1-157.9c-2.5-0.3-5.1-0.7-7.6-1C1927-158.5,1929.6-158.2,1932.1-157.9z"/>
	</g>
	<path class="st2" d="M2076-315.9c-5.3-11-15.9-20-27.6-25.9c3.2-2.2,6.4-4.7,9.4-7.5c16.4-15.1,25.7-39.8,18.8-61.7
		c-3.2-10.2-8.7-19.4-15.6-27.5c7.1-7.9,10.6-19,7.2-29.7c-5.3-16.4-22.3-27.6-39.7-22.5c0,0,0,0,0,0c-0.3,0-0.7,0-1,0
		c-9-2-17.6-5.6-26.2-8.8c-11.6-4.4-23.2-8.9-35.2-12c-13.3-3.5-27.2-5-40.9-6.3c-13.3-1.3-27.2-1.2-40.2,2.2
		c-26.7,7.1-48.3,29.6-60.9,53.4c-10.3,19.4-20.2,44.3-14.5,66.5c5.3,20.6,24.5,30.7,44.2,32.5c5.9,0.5,11.7,0,17.6-0.9
		c-3.3,5.1-6.8,10.1-9.5,15.6c-4.9,10.3-7.8,19.2-8.6,30.7c-0.7,10.9,2.5,21.7,7.2,31.4c7.8,16.1,24.4,29.8,42.1,33.4
		c10.7,2.2,21.4,2.3,32-0.7c3.5-1,7-2.2,10.5-3.3c5,6.4,10.5,12.1,18.2,15.8c10.1,4.7,20.9,6.7,32.1,6.3
		c19.1-0.8,38.2-5.6,55.2-14.4c9.5-4.9,18-12.4,23.8-21.4C2083.2-284.9,2083-301.4,2076-315.9z"/>
	<path class="st3" d="M2144.2-266.9c2.8-25.4-14.9-47-38-54.8c-3.8-1.3-7.8-2.1-11.8-2.6c12.7-9.6,22.6-23.5,26.1-39
		c5.1-23.1-0.3-47.4-17.2-64.6c-15.3-15.7-38.4-25.7-60.5-24.4c-9.2,0.5-18.4,2.2-27,5.6c-5-4.4-11.3-7.6-17.2-9.9
		c-6.3-2.5-13.3-3.4-20-4.2c-14.4-1.7-29.2,2.2-41.9,8.8c-18.8,9.7-31.6,26.9-47.8,39.9c-2.3,1.5-4.8,2.9-7.2,4.1
		c-1,0.3-2.1,0.6-3.1,0.8c-1.1,0-2.2,0-3.3-0.1c-5.3-1.2-10.3-2.9-15.4-5c-15.8-7.3-31.3-15.2-47.7-21.2c-17.8-6.5-39-9.7-56.1,0.4
		c-25.6,15-30.1,48.4-17.6,73.4c10,20,31.4,34.1,53.2,37.4c3.3,0.5,6.6,0.7,9.8,0.7c5.6,1.8,11.3,3.8,16.8,6
		c3.3,1.6,6.4,3.5,9.4,5.5c1.6,1.5,3.1,3.1,4.5,4.8c5.3,7.9,10.2,16.3,17.2,22.6c1.4,1.3,2.8,2.5,4.3,3.6
		c7.1,15.8,18.4,28.2,33.1,38.2c7.6,5.2,16.6,9.6,25.5,12.1c11.5,3.2,22.2,2.8,33.8,0.7c7.5-1.4,14.7-4,22-6.2
		c6.1-1.9,12.4-3.3,18.7-4.3c2-0.1,3.9-0.1,5.9-0.1c0,0,0,0,0.1,0c0.7,0.4,1.4,0.9,2.1,1.4c6.9,6.1,13.5,12.4,20.8,18
		c8.2,6.2,18.2,10.6,28,13.3c20.8,5.7,42.9,4.5,62.3-5.2C2127.2-221.8,2141.6-243.4,2144.2-266.9z"/>
	<path class="st4" d="M1931.4,338.4c-4.9-15.3-22.1-27.9-38.8-22c-8.4,3-17.1,5-25.9,6.4c-15.7,1.7-31.5,1.8-47.3,1.5
		c-17.9-0.2-35.9-0.2-53.8-0.5c-18.4-0.2-36.8-0.5-55.2-0.7c-16.6-0.1-33.1-0.6-49.6,1.6c-18.5,2.5-36.6,9.1-49.7,23
		c-15.1,16.1-21.5,36.7-22.4,58.4c-0.8,17.5,1.9,35.9,4.8,53c2.9,17.6,7.8,34.8,11.2,52.3c1.6,8.3,3.3,16.6,4.9,24.9
		c-4.4,9.1-4.8,19.9,1.1,29c1.6,2.5,3.6,4.9,5.9,6.9c3.5,18.7,6.8,37.5,9.5,56.3c1.8,14,3,28,3.7,42.2c0.8,16.4,13.9,32.2,31.4,31.4
		c16.7-0.8,31.8-13.8,31.4-31.4c-0.7-36.3-6.8-72.4-13.6-108.1c0.7-0.3,1.4-0.7,2.2-1c7.8-3,15.8-5.4,24.1-6.9
		c6.3-0.6,12.7-0.6,19.1,0c1.5,0.3,3,0.5,4.5,0.8c8.4,1.6,16.6,1.3,24.2-3.2c6.5-3.8,12.7-11.3,14.4-18.7c3.8-16.7-5-33.7-21.9-38.6
		c-26.3-7.6-53.3-4.5-78.6,4.5c-0.5-2.6-1-5.2-1.6-7.8c-3.7-17.9-8.6-35.6-11.3-53.7c-1.4-11.5-2.5-23.2-1.6-34.7
		c0.5-2.4,1.1-4.7,1.8-7c0.6-1.2,1.3-2.3,2-3.4c0.5-0.5,1-1,1.5-1.5c0.9-0.6,1.8-1.1,2.8-1.6c2.9-1,5.9-1.7,8.9-2.2
		c11.9-1.1,24-0.7,36-0.6c16.4,0.1,32.9,0.3,49.3,0.5c16.6,0.2,33.2,0.2,49.8,0.3c15.4,0.1,30.8,0.7,46.2-0.1
		c19.9-1,39.9-3.9,58.7-10.8c7.8-2.9,14.5-7.1,18.8-14.5C1932.2,356,1933.9,346,1931.4,338.4z"/>
	<path class="st5" d="M1919.3,656c-5-15.4-22-27.6-38.6-21.9c-18.1,6.2-36.7,10.8-55.6,13.6c-17,1.9-34.1,2.3-51.1,0.5
		c-11.5-1.8-22.8-4.8-33.7-9c-7.6-3.5-14.8-7.7-21.6-12.5c-6-5-11.5-10.5-16.5-16.5c-3.6-5-7-10.3-9.7-15.9
		c-1.3-3.8-2.3-7.6-3.1-11.5c-0.5-5.9-0.4-11.9,0.2-17.8c1.9-10.7,5-21,8.9-31.1c6.6-14.7,14.6-29,24.2-42
		c5.3-6.4,11.1-12.3,17.4-17.6c5.1-3.6,10.4-6.7,16-9.4c5.4-2,11-3.5,16.7-4.6c6.9-0.6,13.8-0.5,20.8,0.1c8.9,1.6,17.5,4.1,25.9,7.4
		c16.5,7.5,32,17.1,47.9,25.8c14.6,8,35.3,4,43.5-11.4c7.9-15,4.1-34.9-11.4-43.5c-23.3-12.9-45.5-27.4-71.1-35.8
		c-24.9-8.2-52.4-9.6-77.9-3.6c-48,11.2-82.1,50.7-103.3,93.1c-12.6,25.1-21.9,52.3-22.5,80.6c-0.5,26.6,8.4,51.8,24.5,72.8
		c14.2,18.6,31.3,34.5,52.2,45.5c18,9.4,37.5,15.8,57.6,18.7c46.6,6.7,94.4,0.9,138.5-15.4c7.8-2.9,14.4-7,18.8-14.4
		C1920,673.5,1921.7,663.6,1919.3,656z"/>
	<path class="st6" d="M1213,335c-3.1,8-5.7,16.1-7.6,24.4c4.7-1.4,9.5-2.6,14.3-3.5c6.3-0.6,12.7-0.6,19.1,0c1.5,0.3,3,0.5,4.5,0.8
		c8.4,1.6,16.6,1.3,24.2-3.2c6.5-3.8,12.7-11.3,14.4-18.7c3.8-16.7-5-33.7-21.9-38.6c-7.3-2.1-14.8-3.4-22.2-4
		c-0.2,0.2-0.4,0.5-0.6,0.7C1227.6,306.1,1219.6,320.3,1213,335z"/>
	<path class="st6" d="M1445.8,139.5c-4.9-15.3-22.1-27.9-38.8-22c-8.4,3-17.1,5-25.9,6.4c-15.7,1.7-31.5,1.8-47.3,1.5
		c-17.9-0.2-35.9-0.2-53.8-0.4c-18.4-0.2-36.8-0.5-55.2-0.7c-16.6-0.1-33.1-0.6-49.6,1.6c-18.5,2.5-36.6,9.1-49.7,23
		c-15.1,16.1-21.5,36.7-22.4,58.4c-0.8,17.5,1.9,35.8,4.8,53c2.9,17.6,7.8,34.8,11.2,52.3c1.6,8.3,3.3,16.6,4.9,24.9
		c-4.4,9.1-4.8,19.9,1.1,29c1.6,2.5,3.6,4.9,5.9,6.9c3.5,18.7,6.8,37.5,9.5,56.3c1.8,14,3,28,3.7,42.2c0.8,16.4,13.9,32.2,31.4,31.4
		c12-0.5,23.2-7.4,28.4-17.8c-15.7-10.3-29.1-23.6-40.6-38.6c-16.1-21-25-46.2-24.5-72.9c0.6-28.3,9.9-55.5,22.5-80.6
		c3.9-7.9,8.3-15.6,13.2-23.2c-2.4-10.3-4.7-20.6-6.2-31c-1.4-11.5-2.5-23.2-1.6-34.7c0.5-2.4,1.1-4.7,1.8-7c0.6-1.2,1.3-2.3,2-3.4
		c0.5-0.5,1-1,1.5-1.5c0.9-0.6,1.8-1.1,2.8-1.6c2.9-0.9,5.9-1.7,8.9-2.2c11.9-1.1,24-0.7,36-0.6c16.4,0.1,32.9,0.3,49.3,0.5
		c16.6,0.2,33.2,0.2,49.8,0.3c15.4,0.1,30.8,0.7,46.2-0.1c19.9-1,39.9-3.9,58.7-10.8c7.8-2.9,14.5-7.1,18.8-14.5
		C1446.6,157,1448.3,147.1,1445.8,139.5z"/>
	<path class="st7" d="M1193.5,363.9c6.8,35.7,12.9,71.8,13.6,108.1c0.1,5-1,9.5-3,13.6c3.7,2.5,7.6,4.8,11.6,6.9
		c18,9.4,37.5,15.8,57.6,18.7c46.6,6.7,94.4,0.9,138.5-15.4c7.8-2.9,14.4-7,18.8-14.4c3.9-6.7,5.6-16.6,3.2-24.2
		c-5-15.4-22-27.6-38.6-21.9c-18.1,6.2-36.7,10.8-55.6,13.6c-17,1.9-34.1,2.3-51.1,0.5c-11.5-1.8-22.8-4.8-33.7-9
		c-7.6-3.5-14.8-7.7-21.6-12.5c-6-5-11.5-10.5-16.5-16.5c-3.6-5-7-10.3-9.7-15.9c-1.3-3.8-2.3-7.6-3.1-11.5
		c-0.5-5.9-0.4-11.9,0.2-17.8c0.4-2.2,0.8-4.4,1.3-6.6c-3.3,1-6.5,2.1-9.8,3.4C1194.9,363.2,1194.2,363.5,1193.5,363.9z"/>
	<path class="st7" d="M1181.3,300.8c18.2-6.5,37.3-9.9,56.4-8.5c5.1-6.1,10.7-11.8,16.8-16.9c5.1-3.6,10.4-6.7,16-9.4
		c5.4-2,11-3.5,16.7-4.6c6.9-0.6,13.8-0.5,20.8,0.1c8.9,1.6,17.5,4.1,25.9,7.4c16.5,7.5,32,17.1,47.9,25.8c14.6,8,35.3,4,43.5-11.4
		c7.9-15,4.1-34.9-11.4-43.5c-23.3-12.9-45.5-27.4-71.1-35.8c-24.9-8.2-52.4-9.6-77.9-3.6c-39.1,9.1-68.9,37-90.2,69.9
		c1.7,7.6,3.5,15.1,5.1,22.7C1180.3,295.6,1180.8,298.2,1181.3,300.8z"/>
	<path class="st6" d="M1139,374.1c-0.5,26.6,8.4,51.8,24.5,72.9c11.5,15,24.8,28.3,40.6,38.6c2-4.1,3.1-8.6,3-13.6
		c-0.7-36.3-6.8-72.4-13.6-108.1c0.7-0.3,1.4-0.7,2.2-1c3.2-1.2,6.5-2.4,9.8-3.4c1.9-8.3,4.5-16.5,7.6-24.4
		c6.6-14.7,14.6-29,24.2-42c0.2-0.2,0.4-0.5,0.6-0.7c-19.1-1.4-38.2,2-56.4,8.5c-0.5-2.6-1-5.2-1.6-7.8c-1.6-7.6-3.3-15.1-5.1-22.7
		c-4.8,7.5-9.2,15.3-13.2,23.2C1148.9,318.6,1139.6,345.8,1139,374.1z"/>
	<path d="M1139,374.1c-0.5,26.6,8.4,51.8,24.5,72.9c11.5,15,24.8,28.3,40.6,38.6c2-4.1,3.1-8.6,3-13.6
		c-0.7-36.3-6.8-72.4-13.6-108.1c0.7-0.3,1.4-0.7,2.2-1c3.2-1.2,6.5-2.4,9.8-3.4c1.9-8.3,4.5-16.5,7.6-24.4
		c6.6-14.7,14.6-29,24.2-42c0.2-0.2,0.4-0.5,0.6-0.7c-19.1-1.4-38.2,2-56.4,8.5c-0.5-2.6-1-5.2-1.6-7.8c-1.6-7.6-3.3-15.1-5.1-22.7
		c-4.8,7.5-9.2,15.3-13.2,23.2C1148.9,318.6,1139.6,345.8,1139,374.1z"/>
	<path d="M1372.4,791.1c-2.5-7.7-7.2-15.1-14.6-19c-6.8-3.6-13.2-4.4-20.4-3.7c0.2,0,0.5-0.1,0.7-0.1c-0.4,0-0.8,0.1-1.1,0.1
		c-0.8,0.1-1.6,0.2-2.4,0.3c-18.8,2.1-37.9,1.7-56.8,2c-22.6,0.3-44.8,2.7-66.9,7c-17.9,3.5-35.6,7.7-53.5,10.7
		c-9.7,1.6-18.9,3.9-27.7,8.5c-11.9,6.1-20.5,17.9-23.7,30.8c-2.2,9.1-2.2,18.3-2.6,27.6c-0.4,9.9-1.3,19.8-1.7,29.7
		c-0.8,20.8-0.4,41.7,0.3,62.5c0.6,18.8,1.6,37.5,3.1,56.3c-1.8,2.5-3.3,5.3-4.3,8.2c-7.7,8.9-10.1,21.7-5.3,33
		c2.6,6.1,6.9,11.9,12.9,15.1c1.1,0.6,2.3,1.2,3.6,1.7c0.7,4.4,1.4,8.8,2.2,13.2c4.1,22.6,10.1,44.5,16.8,66.4
		c3.3,10.8,6.6,21.6,9.7,32.4c1.6,5.6,3.2,11.1,4.6,16.7c0.7,2.8,1.5,5.6,2.2,8.3c1.8,7.3,4.9,12.5,9.7,18.5
		c12.4,15.5,41.9,10.8,50.3-6.5c2.7-5.6,4.8-10.6,4.4-17c-0.3,1.9-0.5,3.8-0.8,5.7c0.9-7.6,0.8-14.3-2.8-21.3
		c-6.1-23.3-13.3-46.3-20.1-69.5c-6.7-22.9-11.5-46.3-15-69.9c1.4-1,2.7-2,4.1-2.9c12.9-9.1,27-15.8,41.4-22
		c10.6-4.4,21.5-8.7,32.7-11c4.3-0.7,8.4-1.7,12.6-3.9c11.3-6,16.9-19.9,15.3-32c-1.7-12.6-10.6-23.1-23-26.7
		c-2.7-0.8-6.9-1.3-9.7-1.2c-3.1,0.1-6.1,0.6-9.1,1.5c-3.7,0.6-7.4,1.4-11.2,2.5c-6.4,1.9-12.7,4.2-18.9,6.6
		c-13.7,5.3-27.1,11.2-40.3,17.7c-0.5-10.1-0.8-20.2-1.1-30.3c-0.5-17.7-0.6-35.4,0.1-53c0.3-8.9,1-17.7,1.5-26.6
		c0.1-2,0.2-3.9,0.2-5.9c9.2-2,18.8-2.9,27.9-4.8c16.1-3.4,32.1-7.1,48.3-9.6c16-1.8,32.1-2,48.2-2.1c19.6-0.2,38.8-1.4,58.2-4.9
		c7.4-1.3,15.3-8.3,19-14.6C1373.2,808.8,1374.9,798.8,1372.4,791.1z"/>
	<path class="st4" d="M1367.6,1124.5c-2.2-6.6-5.7-12.1-11.3-16.4c-11.8-9.1-30.8-9.3-41.4,2.5c-8.1,8.9-16.9,16.9-26.2,24.4
		c-8.9,6.7-18.2,13.1-27.4,19.4c-9.7,6.6-19.4,12.7-30.1,17.6c-6.7,2.6-13.6,4.7-20.7,6.1c-5.5,0.4-11.1,0.4-16.6,0
		c-4.6-0.9-9.1-2.1-13.5-3.6c-1.3-0.7-2.5-1.4-3.7-2.1c-0.7-0.7-1.4-1.4-2.1-2.1c-0.8-1.3-1.6-2.7-2.4-4.1c-1.3-3.9-2.3-7.8-3-11.9
		c-1.4-14.6-0.8-29.4,0.9-44c2.2-13.8,5.7-27.4,10.8-40.4c6.3-13.8,14.3-26.8,23.3-39c9.1-11.3,19.2-21.8,30.5-31
		c7.2-5.2,14.8-9.8,22.8-13.6c3.6-1.3,7.3-2.3,11-3c5.4-0.4,10.8-0.3,16.1,0.2c9.6,1.7,18.9,4.4,28.2,7.1
		c16.1,4.5,35.5-5.5,39.3-22.3c1.9-8.2,1.5-17.3-3.2-24.6c-4.8-7.4-10.9-11.5-19.1-14.7c-24.3-9.3-50.8-12.7-76.5-8.4
		c-24.3,4.1-46.1,18.6-64.8,33.9c-17.1,13.8-31.3,31-43.9,48.9c-12.8,18.2-22.9,38.3-29.9,59.5c-6.9,21.2-9.9,43.8-10.7,66
		c-0.7,18.6-0.2,38.7,6.4,56.3c4.5,11.8,9.9,22.1,18.8,31.4c9.2,9.7,20.7,15.6,33,20.1c23.3,8.6,50.9,8.7,74.6,1.8
		c24.7-7.2,45.9-20.2,66.7-34.9c22.7-16,43.9-32.7,60.9-54.8C1368.8,1143.1,1369.7,1131.2,1367.6,1124.5z"/>
	<g>
		<path class="st4" d="M1786.4,1761.4c-0.3,0.2-0.6,0.4-0.9,0.7c0.1,0,0.1-0.1,0.2-0.1C1785.9,1761.8,1786.1,1761.6,1786.4,1761.4z"
			/>
		<path class="st4" d="M1785.5,1762.1c-0.4,0.3-0.9,0.7-1.3,1c-1.4,1.1-2.8,2.2-4.2,3.3C1781.8,1764.9,1783.6,1763.5,1785.5,1762.1z
			"/>
		<path class="st4" d="M2241.4,1302.6c-5.2-16.2-21.8-26.9-38.9-22.1c-94.8,26.8-187.6,60.7-283.9,82.3c-8.4,1.9-16.8,3.7-25.2,5.3
			c-0.5-3.7-1-7.3-1.5-10.9c-1-7.3-8.5-15.4-14.5-18.9c-6.8-4-16.8-5.7-24.4-3.2c-7.7,2.5-15,7.2-18.9,14.5c-1.1,2.5-2.1,5-3.2,7.6
			c-1.5,5.6-1.5,11.2,0,16.8c0.2,1.4,0.4,2.9,0.6,4.3c-20,2.4-40.1,4-60.2,4.9c-16.4,0.7-32.3,14-31.5,31.5
			c0.8,17,13.8,31.6,31.5,31.5c22.9-0.1,45.8-1.6,68.6-4.3c7.3,57.1,14,114.2,19.7,171.5c0.7,6.9,1.3,13.7,2,20.6
			c-18.9,12.1-37.9,24.1-56.7,36.4c-11.3,7.4-22.6,15-33.6,22.8c-10.5,7.4-21.4,14.9-30.6,23.9c-11.8,11.6-12.5,33.3,0,44.8
			c6,5.5,13.9,9.7,22.4,9.3c8.3-0.4,14.5-3.4,20.9-8.2c2.6-2,5.2-4,7.8-6.1c24.3-18.5,50.2-34.9,76-51.3c3.3,43,6,86,7.9,129.1
			c1.8,41.9,2.9,83.9,3.3,125.9c0.2,16.4,14.3,32.2,31.4,31.4c17.2-0.8,31.3-13.8,31.4-31.4c0.8-78.2-2.6-156.4-8.2-234.3
			c-1.5-20.2-3.1-40.3-4.9-60.4c22.4-15.1,44.8-30.3,67.8-44.5c20.5-12.6,41.6-24.4,63.6-34.1c10.9-4.4,22-8.2,33.4-11.3
			c15.9-4.3,27.2-22.6,22-38.8c-5.5-17.1-21.5-25.7-38.8-22c-27.2,5.8-53.4,17.9-77.8,31c-24.1,12.8-47.2,27.6-69.9,42.7
			c-2.4,1.6-4.9,3.2-7.3,4.9c-3.5-33-7.3-66-11.4-99c-2.6-20.9-5.3-41.8-8.1-62.8c17.3-3.4,34.6-7.2,51.6-11.3
			c57.8-13.9,114.7-31.7,171.3-49.7c31.3-9.9,62.6-20,94-29.7C2235.2,1336.6,2246.8,1319.2,2241.4,1302.6z"/>
	</g>
	<path class="st8" d="M2369.8,1900.3c-6-5.5-13.9-9.6-22.2-9.2c-8.9,0.4-15.2,3.8-22.2,9.2c1.7-1.3,3.4-2.6,5.1-3.9
		c-24.7,18.9-51.7,34.6-80.2,47c-34.8,14.2-71.3,23.7-108.4,29.1c-41.4,5.2-83.4,5.1-124.8-0.1c-32.9-4.7-66-11.7-96.8-24.1
		c-11.6-5.2-22.7-11.3-33-18.8c-5.7-4.7-10.9-9.9-15.7-15.5c-3.6-5.1-6.7-10.5-9.4-16.1c-2.8-7.5-4.8-15.2-6.1-23.1
		c-1.3-13.3-1-26.6,0.5-39.8c3.7-23.8,10.7-46.9,19.8-69.2c10.6-24.4,23.7-47.9,39.5-69.3c13.3-16.7,28.5-31.8,45.2-45.1
		c18.2-13.5,37.9-24.8,58.7-34c27.3-11.1,55.8-18.4,84.9-22.7c16.3-2,32.8-3,49.2-3.5c16.6-0.5,32.6-14.3,31.8-31.8
		c-0.8-17.5-13.9-31.4-31.8-31.8c-41.2-0.8-83.6,5-123.1,17c-41.3,12.6-79.3,32.2-113.3,58.7c-30.1,23.4-55.1,52.8-74.7,85.5
		c-19.7,32.6-35.4,68.8-44.5,105.8c-9.2,37.3-12.7,78.8-0.6,115.8c12.9,39.6,42.1,70,78.8,88.8c33,16.9,68.9,26.2,105.2,32.6
		c40.4,7.1,81.3,10.4,122.4,8.3c83.1-4.4,168.1-27.3,237.6-74.3c9.7-6.6,19.1-13.7,28.3-21.1c5.9-4.7,9.2-15.1,9.2-22.2
		C2379,1914.8,2375.5,1905.6,2369.8,1900.3z"/>
	<path class="st8" d="M2638,897.2c-2.1-15.8-15.2-26.9-31.1-27.5c-12.1-0.5-25.3,2.8-37,6c-11.3,3-22.5,6.8-33.4,10.8
		c-25.7,9.5-50.9,20.5-76.2,31.2c-12.4,5.2-24.9,10.4-37.5,15.2c0-2.3-0.1-4.6-0.1-7c-0.5-16.4-14.1-32.2-31.4-31.4
		c-17.4,0.8-30.9,13.8-31.4,31.4c-0.4,14.6-1,29.2-1.7,43.8c-1,4-1.3,8-0.7,12.3c0,0.2,0.1,0.4,0.1,0.6c-0.9,18.8-1.9,37.6-3,56.5
		c-0.7,12-1.3,24-1.8,36c-4.7,0.9-9.4,1.7-14.2,2.4c0.5-0.1,0.9-0.1,1.4-0.2c-0.1,0-0.2,0-0.3,0c-1.2,0.2-2.4,0.3-3.6,0.5
		c1.2-0.2,2.4-0.3,3.5-0.5c-7.7,1.1-14.2,3.1-20.1,9c-5.5,5.5-9.7,14.6-9.4,22.6c0.7,15.9,14.1,33.6,31.9,31.9
		c3.3-0.3,6.6-0.7,9.8-1.1c0.1,4.6,0.2,9.2,0.4,13.8c0.6,13.6,1.7,27.2,3.2,40.7c-7.8,15.1-3.8,34.3,11.5,43.1
		c0.6,0.3,1.2,0.7,1.8,1c9.6,9.3,26.9,11.4,38.2,4.1c4.7-3,8.6-6.9,11.6-11.6c4.9-7.6,4.7-16.5,3.2-24.9c-0.6-3.4-1.1-6.8-1.6-10.2
		c-2.9-23.6-4.1-47.2-4.2-70.9c8.5-2.6,17-5.4,25.4-8.4c10.4-3.7,21.7-7.4,31.2-12.9c13.7-8,19-25.2,13-39.6
		c-5.9-14-22.2-23.1-37.4-18.3c-7.6,2.4-15,5.8-22.5,8.6c-2.6,0.9-5.2,1.9-7.9,2.8c0.9-18.5,2-37,2.9-55.4c6.9-2.4,13.8-5,20.7-7.7
		c19.1-7.3,37.9-15.4,56.7-23.3c-2.5,1.1-5.1,2.2-7.6,3.2c20.8-8.8,41.6-17.7,62.9-25.5c17.2-6.3,34.9-12.2,53.2-15
		c2.9-0.4,5.8-0.8,8.7-1.4c7.1-1.4,15.6-8.2,18.9-14.6C2637.6,911,2638.9,904.4,2638,897.2z"/>
	<path class="st8" d="M2544.5,1156.7c-13.1-12-32.2-12.2-45.2,0c-1,0.9-2,1.8-3,2.7c-3.9,2.7-8.1,5.1-12.4,7.2
		c-6.2,2.3-12.5,3.9-19,5.1c-8.2,0.8-16.5,0.7-24.7-0.1c-8.6-1.5-17.1-3.8-25.3-6.9c-6.5-3-12.7-6.6-18.5-10.7
		c-4.2-3.6-8.1-7.4-11.7-11.6c-2.6-3.7-4.8-7.5-6.8-11.5c-1.5-4.3-2.7-8.7-3.6-13.2c-0.6-7-0.4-13.9,0.3-20.9
		c1.9-11.5,5.2-22.7,9.4-33.6c3.8-8.4,8.2-16.4,13.5-23.9c3.6-4.2,7.4-8.1,11.6-11.7c4.2-2.9,8.6-5.4,13.2-7.6
		c6.8-2.5,13.8-4.2,20.9-5.4c10.8-1.1,21.7-1.1,32.5-0.5c16.7,0.9,32.7-15.4,32-32c-0.8-18.1-14.1-31-32-32
		c-35.1-2-73.3,2.9-102.1,24.6c-16.4,12.3-29.7,27.4-39.5,45.5c-10.6,19.5-18.6,41.2-21.8,63.2c-3.3,22.6-3.7,46.1,5.1,67.7
		c6.8,16.8,16.2,32,29.5,44.5c25.8,24.2,59.2,36.8,94.1,40.1c37.2,3.5,76.1-7.9,103.6-33.7
		C2556.7,1190.5,2556.9,1168.1,2544.5,1156.7z"/>
	<path class="st9" d="M2198.2-351.4c-13.1-12-32.2-12.2-45.2,0c-1,0.9-2,1.8-3,2.7c-3.9,2.7-8.1,5.1-12.4,7.2
		c-6.2,2.3-12.5,4-19,5.1c-8.2,0.8-16.5,0.7-24.7-0.1c-7.7-1.3-15.3-3.3-22.6-5.9c-0.9-0.3-1.8-0.6-2.7-1c-6.5-3-12.7-6.6-18.5-10.7
		c-4.2-3.6-8.2-7.4-11.7-11.6c-2.6-3.7-4.8-7.5-6.8-11.5c-1.5-4.3-2.7-8.7-3.6-13.2c-0.6-7-0.4-13.9,0.3-20.9
		c1.9-11.5,5.2-22.7,9.4-33.6c3.8-8.4,8.2-16.4,13.5-24c3.6-4.2,7.4-8.1,11.6-11.7c3.4-2.4,7-4.5,10.7-6.4c0.8-0.4,1.6-0.8,2.5-1.2
		c6.8-2.5,13.8-4.2,20.9-5.4c10.8-1.1,21.7-1.1,32.5-0.5c16.7,0.9,32.7-15.4,32-32c-0.2-5.1-1.4-9.8-3.5-13.9
		c-5.2-10.5-15.6-17.3-28.5-18.1c-35.1-2-73.3,2.9-102.1,24.6c-5.8,4.4-11.3,9.2-16.4,14.3c-9.1,9.2-16.9,19.6-23.2,31.2
		c-10.6,19.5-18.6,41.2-21.8,63.2c-1.1,7.6-1.8,15.3-2.1,23c0,0.8,0,1.5-0.1,2.3c-0.2,14.5,1.7,28.8,7.2,42.4
		c6.8,16.8,16.2,32,29.5,44.5c2,1.9,4,3.6,6.1,5.4c18.9,15.7,41.2,25.8,64.9,31.1c7.6,1.7,15.3,2.9,23,3.6
		c37.2,3.5,76.1-8,103.6-33.7C2210.5-317.6,2210.7-340,2198.2-351.4z"/>
	<g>
		<path class="st10" d="M2002.1,122.4c0.6,0.3,1.2,0.7,1.8,1c9.6,9.3,26.9,11.4,38.2,4.1c4.3-2.8,7.9-6.3,10.8-10.5
			c-23.7-5.3-46.1-15.4-64.9-31.1C1984.2,99.7,1989,114.9,2002.1,122.4z"/>
		<path class="st10" d="M2032.6-75.6c-5.3,7.5-9.7,15.6-13.5,24c-4.3,10.9-7.5,22.1-9.4,33.6c-0.7,6.9-0.8,13.9-0.3,20.9
			c0.8,4.5,2,8.9,3.6,13.2c2,4,4.2,7.8,6.8,11.5c3.6,4.2,7.5,8.1,11.7,11.6c5.8,4.1,12,7.7,18.5,10.7c0.9,0.3,1.8,0.7,2.7,1
			c-0.9-13.6-1.3-27.2-1.4-40.8c8.5-2.6,17-5.4,25.4-8.4c10.4-3.7,21.7-7.4,31.2-12.9c13.7-8,19-25.2,13-39.6
			c-5.9-14-22.2-23.1-37.4-18.3c-7.6,2.4-15,5.8-22.5,8.6c-2.6,1-5.2,1.9-7.9,2.8c0.6-12,1.2-23.9,1.9-35.9c-3.7,1.9-7.3,4-10.7,6.4
			C2040-83.7,2036.1-79.8,2032.6-75.6z"/>
		<path class="st10" d="M2211.1-193.4c-2.1-15.9-15.2-26.9-31.1-27.5c-12.1-0.5-25.3,2.9-37,6c-11.3,3-22.4,7.2-47.7,17.9
			c-12.4,5.2-24.9,10.4-37.5,15.2c0-2.3-0.1-4.6-0.1-7c-0.5-16.4-14.1-32.2-31.4-31.4c-17.4,0.8-30.9,13.8-31.4,31.4
			c-0.4,14.6-2.9,51.8-2.4,56.1c0,0.2-0.1,4.7-0.2,6.8c5.1-5.1,10.5-9.9,16.4-14.3c28.8-21.7,67-26.6,102.1-24.6
			c12.9,0.7,23.3,7.6,28.5,18.1c16.3-6.9,22.3-7.7,40.5-10.5c2.9-0.4,5.8-0.8,8.7-1.4c7.1-1.4,15.6-8.2,18.9-14.6
			C2210.8-179.6,2212.1-186.2,2211.1-193.4z"/>
	</g>
	<path class="st11" d="M2110.7-164.9c-35.1-1.9-73.3,2.9-102.1,24.6c-5.8,4.4-11.3,9.2-16.4,14.3c-0.8,16.8-1.7,33.5-2.7,50.2
		c-0.7,12-1.3,24-1.8,36c-4.7,0.9-9.4,1.7-14.2,2.4c0.5-0.1,0.9-0.1,1.4-0.2c-0.1,0-0.2,0-0.3,0c-1.2,0.2-2.4,0.3-3.7,0.5
		c1.2-0.2,2.3-0.3,3.5-0.5c-7.7,1.1-14.2,3.1-20.1,9c-4.9,4.9-8.8,12.7-9.3,19.9c0,0.8,0,1.5-0.1,2.3c0,0.1,0,0.2,0,0.4
		c0.7,15.9,14.1,33.6,31.9,31.9c3.3-0.3,6.6-0.7,9.8-1.1c0.1,4.6,0.2,9.2,0.4,13.8c0.6,13.6,1.7,27.2,3.2,40.7
		c-1.1,2.2-2,4.4-2.6,6.7c18.9,15.7,41.2,25.8,64.9,31.1c0.3-0.4,0.5-0.7,0.8-1.1c4.9-7.6,4.7-16.5,3.2-24.9
		c-0.6-3.4-1.1-6.8-1.6-10.2c-1.2-10-2.1-20.1-2.8-30.1c-0.9-0.3-1.8-0.6-2.7-1c-6.5-3-12.7-6.6-18.5-10.7
		c-4.2-3.6-8.2-7.4-11.7-11.6c-2.6-3.7-4.8-7.5-6.8-11.5c-1.5-4.3-2.7-8.7-3.6-13.2c-0.6-7-0.4-13.9,0.3-20.9
		c1.9-11.5,5.2-22.7,9.4-33.6c3.8-8.4,8.2-16.4,13.5-24c3.6-4.2,7.4-8.1,11.6-11.7c3.4-2.4,7-4.5,10.7-6.4c0.4-6.5,0.7-13.1,1-19.6
		c6.9-2.4,13.8-5,20.7-7.7c19.1-7.3,37.9-15.4,56.7-23.3c-2.5,1.1-5.1,2.1-7.6,3.2c4.6-1.9,9.1-3.8,13.6-5.8
		C2134.1-157.3,2123.6-164.2,2110.7-164.9z"/>
	<g>
		<path class="st12" d="M1974.6-37.5c-1.2,0.2-2.3,0.3-3.5,0.5c1.2-0.2,2.4-0.3,3.7-0.5c0.1,0,0.2,0,0.3,0c-0.5,0.1-0.9,0.1-1.4,0.2
			c4.8-0.7,9.5-1.5,14.2-2.4c0.5-12,1.1-24,1.8-36c0.9-16.8,1.8-33.5,2.7-50.2c-9.1,9.2-16.9,19.6-23.2,31.2
			c-10.6,19.5-18.6,41.2-21.8,63.2c-1.1,7.6-1.8,15.3-2.1,23c0.5-7.2,4.4-15,9.3-19.9C1960.5-34.4,1967-36.3,1974.6-37.5z"/>
		<path class="st12" d="M2133.2-144.3c-18.8,7.9-37.6,16-56.7,23.3c-6.8,2.6-13.7,5.3-20.7,7.7c-0.3,6.5-0.7,13.1-1,19.6
			c0.8-0.4,1.6-0.8,2.5-1.2c6.8-2.5,13.8-4.2,20.9-5.4c10.8-1.1,21.7-1.1,32.5-0.5c16.7,0.9,32.7-15.4,32-32
			c-0.2-5.1-1.4-9.8-3.5-13.9c-4.6,1.9-9.1,3.8-13.6,5.8C2128.1-142.1,2130.7-143.2,2133.2-144.3z"/>
		<path class="st12" d="M1987.4,38.6c-0.2-4.6-0.3-9.2-0.4-13.8c-3.3,0.4-6.6,0.8-9.8,1.1c-17.8,1.7-31.2-16-31.9-31.9
			c0-0.1,0-0.2,0-0.4c-0.2,14.4,1.7,28.8,7.2,42.4c6.8,16.8,16.2,32,29.5,44.5c2,1.9,4,3.7,6.1,5.4c0.6-2.3,1.5-4.5,2.6-6.7
			C1989.1,65.8,1988,52.2,1987.4,38.6z"/>
		<path class="st12" d="M2057,91.1c1.4,8.4,1.6,17.3-3.2,24.9c-0.2,0.4-0.5,0.8-0.8,1.1c7.6,1.7,15.3,2.9,23,3.6
			c37.2,3.5,76.1-7.9,103.6-33.7c12.2-11.5,12.4-33.8,0-45.2c-13.1-12-32.2-12.2-45.2,0c-1,0.9-2,1.8-3,2.7
			c-3.9,2.7-8.1,5.1-12.4,7.2c-6.2,2.3-12.5,4-19,5.1c-8.2,0.8-16.5,0.7-24.7-0.1c-7.7-1.3-15.3-3.3-22.6-5.9
			c0.7,10.1,1.6,20.1,2.8,30.1C2055.9,84.3,2056.4,87.7,2057,91.1z"/>
	</g>
	<path class="st13" d="M2229.8-586.7c-2.1-15.8-15.2-26.9-31.1-27.5c-12.1-0.5-25.3,2.8-37,6c-11.3,3-22.4,7.2-47.7,17.9
		c-12.4,5.2-24.9,10.4-37.5,15.2c0-2.3-0.1-4.6-0.1-7c-0.5-16.4-14.1-32.2-31.4-31.4c-17.4,0.8-30.9,13.8-31.4,31.4
		c-0.4,14.6-2.9,51.8-2.4,56.1c0,0.2-0.1,4.7-0.2,6.8c-0.8,16.8-1.7,33.5-2.7,50.2c-0.7,12-1.3,24-1.8,36c-4.7,0.9-9.4,1.7-14.2,2.4
		c0.5-0.1,0.9-0.1,1.4-0.2c-0.1,0-0.2,0-0.3,0c-1.2,0.2-2.4,0.3-3.7,0.5c1.2-0.2,2.3-0.3,3.5-0.5c-7.7,1.1-14.2,3.1-20.1,9
		c-4.9,4.9-8.8,12.7-9.3,19.9c0,0.8,0,1.5-0.1,2.3c0,0.1,0,0.2,0,0.4c0.7,15.9,14.1,33.6,31.9,31.9c3.3-0.3,6.6-0.7,9.8-1.1
		c0.1,4.6,0.2,9.2,0.4,13.8c0.6,13.6,1.7,27.2,3.2,40.7c-1.1,2.1-2,4.4-2.6,6.6c-3.8,13.7,1,28.9,14.1,36.4c0.6,0.4,1.2,0.7,1.8,1
		c9.6,9.3,26.9,11.4,38.2,4.1c4.3-2.8,7.9-6.3,10.8-10.5c0.3-0.4,0.5-0.7,0.8-1.1c4.9-7.5,4.7-16.5,3.2-24.9
		c-0.6-3.4-1.1-6.8-1.6-10.2c-1.2-10-2.1-20.1-2.8-30.1c-0.9-13.6-1.3-27.2-1.4-40.8c8.5-2.6,17-5.4,25.4-8.4
		c10.4-3.7,21.7-7.4,31.2-12.9c13.7-8,19-25.2,13-39.6c-5.9-14-22.2-23.1-37.4-18.3c-7.6,2.4-15,5.8-22.5,8.6
		c-2.6,1-5.2,1.9-7.9,2.8c0.6-12,1.2-23.9,1.9-35.9c0.4-6.5,0.7-13.1,1-19.6c6.9-2.4,13.8-5,20.7-7.6c18.5-7.1,36.7-14.9,54.9-22.6
		c2.6-1.1,5.2-2.2,7.8-3.3c16.3-6.9,22.3-7.7,40.5-10.5c2.9-0.4,5.8-0.8,8.7-1.4c7.1-1.4,15.6-8.2,18.9-14.6
		C2229.4-572.9,2230.8-579.5,2229.8-586.7z"/>
</g>
<g id="Calque_2_00000062878618765352063570000010778337204890669219_">
	<path class="st3" d="M330.1,286c-0.5-26.4-40.9-64.8-58.4-38.1s-28.1,54.7-75.2,49.3s-33.1-42.7-4.8-49.3
		c28.3-6.6,84.3-47.9,69.2-70.3c-15.1-22.4-42.1-44.8-57.8-21.6s-52.7,66.3-61.7,29.8s78.4-84.6,105.3-73.1s64.7-37.3,83.3-28.8
		c28.4,13.1,16.8-48.2,5.4-62.8C299.8-24.4,239.2,38.4,219,58.2s-64.4-15.1-77.7-39s-64.9-5.7-58.1,24.9
		c6.7,30.7,28.1,86.9,24.7,108.9s-76.3,38.3-83.1,64.1s48.1,52.5,67.3,44.1c19.2-8.4,38.4,0,27.3,26.4c-11.1,26.4-60,68.8-52.1,77.9
		s80.5,40.2,94.1,11.6c13.6-28.6,41-44.5,71.7-38.8C263.9,344,330.6,311.1,330.1,286z"/>
	<path class="st14" d="M319.6,288.2c-13.4,41-51,65.1-75.4,66s-34.4-12.4-68.2-7.9s-98.9-58.1-115.8-96.8s-6.2-87.4,19.6-103.9
		s37.4-47.9,42.8-75.9c5.3-28,18.3-57.4,42.6-58.4c23.4-0.9,29.6,27.9,29.6,27.9S277.7-7.4,319.6,8.1s25.5,38.6-6.9,41
		s-34.2,8.2-55.6,20.6s2.3,29.3,9.2,41.9c6.9,12.6-26.9,34.6-56.4,29.1c-29.6-5.5-40.5,6-44.8,24.9c-4.3,18.8,65.7,10,81.5,0
		s42.8,41.5-7.4,52.2s-69.6,25.6-70,50.6s89,25,112.9-14.2C299.1,226.4,328.5,261,319.6,288.2z"/>
	<path class="st2" d="M331.3,83c8.5-13.4-100.6-55.1-133.9-39.6S89.9-0.2,67.4,29.9C54.1,47.5,71.5,45,76.7,60.3
		c8.7,25.6-23.5,51.2-3.9,53.4c22.7,2.6,0.2,97.5-17.5,109.2c-17.7,11.7,38.7,36.8,54.3,51s8.3,56,5.2,72.3
		c-3.1,16.3,135.6,11.3,149.2-27.2c13.6-38.5,72.7-58.6,53.5-76.2s-85.3,31-131,6.7c-45.7-24.3,25.2-71.2,57.6-72.6
		s-57.9-20.7-76.5-43.9s82.7-54.2,114-38.3S322.1,97.4,331.3,83z"/>
	<path class="st8" d="M87.7,207.5c0-0.8,0-1.5,0.1-2.3C87.7,206,87.7,206.7,87.7,207.5z"/>
	<g class="st15">
		<path class="st16" d="M176.9,181.4c16.3,2.2,42.4-1.8,49.2-5c6.8-3.3-20.4-5.3-27-5.3C192.7,171,168.3,180.2,176.9,181.4z"/>
		<path class="st16" d="M224.7,166.6c-8.3-1.8-8.3,1.5-1.5,4.5C230,174,232.9,168.3,224.7,166.6z"/>
		<path class="st16" d="M175.1,43.9c7.4-6.9,21.9-17.8,38.8-7.6s27.4,8.6,23.9,1.6s-21.3-7.1-36.7-12.1s-29.6,2.2-33.6,9
			S170.2,48.5,175.1,43.9z"/>
		<path class="st16" d="M220.5,19c-9.9-1.5-21.1-1.5-19.3,2.3c1.7,3.7,19.9,7,26.1,7C233.4,28.4,227.1,20.1,220.5,19z"/>
		<path class="st16" d="M322.6,51c-7.2-0.3-15,8.4-13.2,14.2s14,5.8,13.2,0S332.3,51.5,322.6,51z"/>
		<path class="st16" d="M122.4,34.1c-19-0.3-32.2,7.4-32.4,19.3s-7.7-1.8-4.3-8.4s10.7-14.4,25.6-15.1S133.7,34.3,122.4,34.1z"/>
		<path class="st16" d="M86.4,36.8c5.7-4.1,14.7-8.5,17.7-9.3c3-0.8-9.2-4.6-15.5,0.5S81.2,40.6,86.4,36.8z"/>
		<path class="st16" d="M117,340.8c-3.4,10.1,8.5,22,19.3,23.8s19.6,2.6,6.6,5.5c-13,3-18.1-1.2-22.5-8s-12.4-21.9-8.3-24.3
			C116.2,335.5,117,340.8,117,340.8z"/>
		<path class="st16" d="M110.9,350.6c0,0,9.2,13.1,10.9,16.9s-4.4-4.7-8.6-8.5C109.1,355.3,108.6,347.3,110.9,350.6z"/>
		<path class="st16" d="M201.2,216.9c1.2-6.8,13-11.1,22.8-9.4s-3.2,3.9-8.2,4.5C210.8,212.6,199.8,224.6,201.2,216.9z"/>
	</g>
	<path class="st17" d="M321.5,30c-6.1-15.2-52-9.4-69.5,10.4s-69.8,17-92.8,8.2s-60.3-18.6-63.4,0s19.1,86.9,22.6,114.3
		s9.1,165.6,5.4,182.9s60,26.1,60,0c0.1-26.1,3.6-58-6.1-76.6c-9.7-18.6,12.7-57.3,30.7-62.8s76.4,3.3,71.1-21
		c-5.3-24.3-25.7-31.6-41.6-12s-84.2,18.2-87.3-6.8s11.8-65.8,46.9-64c35.1,1.8,101.5-19.9,104.2-35.6
		C304.5,51.2,327.9,45.9,321.5,30z M166.4,227.6c3.6-8.9,12.9-18.8,8.7-9.3c0,0-9.4,14.8-6.7,35.7s-3.9,26.4-6.6,7.4
		C159.1,242.4,162.8,236.6,166.4,227.6z M298.3,36.2c5.3,3.8-5.8,21.8-2.5,9.2c3.3-12.6-9.6-3-13-10.6c-3.3-7.6,17-11.8,26.3-6.4
		C316,32.4,293,32.4,298.3,36.2z"/>
	<g class="st18">
		<g class="st19">
			<path class="st7" d="M165.2,46.4c-27.1,0-68.6,38.9-66.6,57.5S176.9,46.4,165.2,46.4z"/>
			<path class="st7" d="M81.9,122.4c2.7,2.4,17.6-6.3,15.2-10.8c-2.3-4.4-4.5-17.6-8.1-16.4S78.6,119.5,81.9,122.4z"/>
			<path class="st7" d="M218.2,356.8c21.8-1.8,44.9-8,52.1-14.7c7.1-6.7,12.9,14.2,0,14.7s-25.8,4.4-35.6,9.3
				C224.9,371,205.3,357.9,218.2,356.8z"/>
			<path class="st7" d="M261.4,362.1c-11.5,1-21.8,4.4-20.9,7.5s14.2,4.4,20.9,1.8C268.1,368.8,266.5,361.7,261.4,362.1z"/>
			<path class="st7" d="M201,294.6c16.7-2.9,34.5-15.1,39.5-20.4c4.9-5.3-10.6,0.8-19.7,5.9C211.6,285.2,191.3,296.3,201,294.6z"/>
			<path class="st7" d="M97.3,84c-15.4,5.6-12.5-7-4.4-14.2C101,62.7,112.7,78.4,97.3,84z"/>
			<path class="st7" d="M325,270.4c2.9,8.9,1.1,21.3-4.3,27c-5.4,5.7,9.4-0.5,9.7-13.5C330.7,270.9,323.6,266.1,325,270.4z"/>
		</g>
		<path class="st20" d="M264.6,253.6c-21.3,31.4-60.2,53.8-93,46.1s-75.3-43.1-60.2-88.2s48.8-69.6,62.1-102.1s95.3,6.6,119.8-5.2
			s29-17.7,3-29.4c-64.3-28.9-98.9-46.7-117.5-26.2c-18.6,20.4-64.7,64.7-95.2,81.5c-30.5,16.8-50,184.2,65.1,210.8
			s173.6-36.3,174.1-58.5C323.1,260.3,285.9,222.2,264.6,253.6z M181.8,60.3c1-5.7,9.1-14,24.1-12.2c15.1,1.8,24.5,5.1,23.9,8.8
			s-21.1-0.9-27.3-1.7C196.2,54.5,180.3,68.9,181.8,60.3z M99.7,149.3c-5.3,7.3-27.3,7.5-14.9,0c16.3-9.9,20.2-16.7,26.1-26.4
			s19.1-20,14.7-5.8C121.2,131.2,105.1,141.9,99.7,149.3z M140.5,334.9c-8.6-3.9-10.6-11.3-18.3-12.1c-7.7-0.9-18.2-24.7-12.6-18.1
			c6.5,7.7,27.1,25.2,34.2,23.4C150.9,326.3,149.1,338.7,140.5,334.9z M281.5,270.4c-5.1,0,0.1-6.4,0.1-11.5s-1-9.2,4.1-9.2
			s9.2,4.1,9.2,9.2C294.8,264,286.5,270.4,281.5,270.4z"/>
	</g>
	<path class="st16" d="M196.8,219.8c3.3-0.2,5.6,4.2,9.9,0c4.3-4.2,2.5,7.4-6.2,8.4c-8.7,0.9-6.6-4.6-13.4,3.2
		c-4.6,5.2,1.4-7.1,5.7-7.1S194.4,219.9,196.8,219.8z"/>
</g>
</svg>
