<?xml version="1.0" encoding="utf-8"?>
<svg xmlns="http://www.w3.org/2000/svg" xmlns:xlink="http://www.w3.org/1999/xlink" x="0px" y="0px" viewBox="0 0 431.3 408.7">
	<path class="party-svg-1" d="M107.9,150.6c16-11.6,30.1-6.4,37.3,4.6c7.2,10.9,38.8-23.1,51.8-13.5l-31.1,83.9l-30.6,28.6l-24.2,3.7
		l-19.7-29.7l-0.7-31L107.9,150.6z"/>
	<path class="party-svg-1" d="M254.9,154.3c9.2-12.9,31.9-11.6,31.7,4.9s28.4,29.6,35.7,12.3c7.4-17.3,20.5-14.3,20.5-14.3l10.9,55.2
		c0,0-2.1,41.1-27.6,47.9c-25.5,6.8-51.3-38.3-51.3-38.3L254.9,154.3z"/>
	<circle class="party-svg-1" cx="303.1" cy="149.3" r="5.7"/>
	<circle class="party-svg-1" cx="277.6" cy="120.7" r="3"/>
	<circle class="party-svg-1" cx="179" cy="121.9" r="2.5"/>
	<circle class="party-svg-1" cx="153.7" cy="130.7" r="3.7"/>
	<path class="party-svg-2" d="M205.7,76.6c-2.3,0-4.7-1-6.3-3L162.5,28c-2.8-3.5-2.3-8.5,1.2-11.3c3.5-2.8,8.5-2.3,11.3,1.2l36.9,45.6
		c2.8,3.5,2.3,8.5-1.2,11.3C209.2,76,207.5,76.6,205.7,76.6z"/>
	<path class="party-svg-2" d="M246.3,76.6c-1.8,0-3.6-0.6-5.1-1.8c-3.5-2.8-4-7.9-1.2-11.3l36.9-45.6c2.8-3.5,7.9-4,11.3-1.2
		c3.5,2.8,4,7.9,1.2,11.3l-36.9,45.6C250.9,75.5,248.6,76.6,246.3,76.6z"/>
	<path class="party-svg-2" d="M226,56.6c-4.4,0-8.1-3.6-8.1-8.1V12.2c0-4.4,3.6-8.1,8.1-8.1c4.4,0,8.1,3.6,8.1,8.1v36.4
		C234,53,230.4,56.6,226,56.6z"/>
	<path class="party-svg-2" d="M118.5,398.2l-39-29.4l39.6-106.9c22.5,1.5,48-20,60.1-52.8l40.2-108.4c0.8-2.3-0.3-4.8-2.6-5.6l-80-29.6
		c-2.3-0.8-4.8,0.3-5.6,2.6L91.1,176.4c-12.1,32.7-6.9,65.7,11.2,79.2L62.7,362.5l-48.8-3.1c-2.3-0.1-2.4,2.2-0.2,3l103,38.2
		C118.9,401.5,120.3,399.6,118.5,398.2z M101.3,180.2l36.4-98.2c0.8-2.3,3.4-3.4,5.6-2.6l59.5,22.1c2.3,0.8,3.4,3.4,2.6,5.6
		L169,205.3c-11.4,30.9-36.6,51.2-55,44.4C95.7,242.9,89.9,211.1,101.3,180.2z"/>
	<path class="party-svg-2" d="M417.6,371.4l-48.9-0.7L337.6,261c19.1-12.1,26.9-44.5,17.4-78.1L323.4,71.7c-0.7-2.3-3.1-3.7-5.4-3
		l-82.1,23.3c-2.3,0.7-3.7,3.1-3,5.4l31.6,111.2c9.5,33.6,33.2,57.1,55.8,57.3l31.1,109.6l-41.2,26.3c-1.9,1.2-0.7,3.2,1.6,2.6
		l105.7-30C419.8,373.8,419.8,371.4,417.6,371.4z M275,205.6l-28.6-100.7c-0.7-2.3,0.7-4.7,3-5.4l61-17.3c2.3-0.7,4.7,0.7,5.4,3
		l28.6,100.7c9,31.7,0.7,63-18.1,68.3C307.5,259.5,284,237.3,275,205.6z"/>
</svg>
