<?xml version="1.0" encoding="utf-8"?>
<!-- Generator: Adobe Illustrator 27.0.0, SVG Export Plug-In . SVG Version: 6.00 Build 0)  -->
<svg version="1.1" id="Calque_1" xmlns="http://www.w3.org/2000/svg" xmlns:xlink="http://www.w3.org/1999/xlink" x="0px" y="0px"
	 viewBox="0 0 425.2 425.2" style="enable-background:new 0 0 425.2 425.2;" xml:space="preserve">
<style type="text/css">
	.st0{opacity:0.4;fill:#E30613;}
</style>
<path class="st0" d="M378.7,202.6c-11.1-7.2-28.8-8.4-35.1-22.3c5-0.9,9.7-2.1,14-3.6s8.2-3.2,11.8-5.1c26-14,51.2-54.3,33.5-66.9
	c-17.7-13.9-54.2,0-79.5-25.2c-18.9-21.4-55.5-3.8-71.9,18.9c-2.1,2.5-4.3,4.9-6.6,7.2c-2.3,2.3-4.7,4.6-7.2,6.7
	c-8.8,8.8-24,2.5-34.1-6.3c-8.8-7.6-12.6-18.9-12.6-31.5c0-5,3.5-8.2,7.7-11c4.3-2.8,9.3-5.4,12.5-9.1c8.8-10.1,0-27.7-8.8-26.5
	c-25.2,5.5-39.1,18.9-46,38.7c-1.4,3.9-2.5,8.1-3.5,12.6c-2.2,11.8-2.2,21.9-4.8,33.3C112.8,92,83.7,78.1,67.4,123.5
	c-6.3,16.4,11.4,34.1,13,52.7c1,3.9,2.6,7.9,4.5,11.7c4,7.7,9.9,15.3,17.8,22.6c2.5,2.5,5,12.6-2.1,15.2c-2.3,1.5-5.2,2.5-8.4,3.1
	c-3.6,0.5-7.2,1.1-10.8,1.7c-3.6,0.6-7.3,1.3-10.9,2c-20.7,8.2-63.6-6.9-61.1,22.1c3.8,27.7,39.1,18.9,61.8,17.7
	c3.8-0.1,7.6,0.1,11.4,0.6c3.8,0.5,7.6,1.5,11.4,2.9c3.3,0.9,6.6,1.8,9.9,2.7c4.4,1.3,9.8,3.5,13.6,6.6c2.8,3.5,5.4,8.5,4.1,12.3
	c-15.1,25.2-40.4,49.2-32.8,80.7c2.5,7.6,12.6,13.9,22.7,11.4c35.3-13.9,40.4-54.2,70.6-76.9c8.8-5,17.7,1.3,26.7,3.7
	c2.9,0.9,5.7,1.8,8.5,2.7c2.8,0.9,5.5,1.9,8.2,3c3.6,1.4,7,3,10.5,4.8c20.6,11.1,30.7,32.5,38.3,52.7c6.3,13.9,29,21.4,34.1,2.5
	c6.3-24,20.2-49.2,45.6-54.2c3.8-1.1,7.6-2.1,11.4-3.3c7.6-2.4,15.2-5.2,22.4-9.3c2.5-1.3,2.5-6.3,1.3-8.8
	c-7.2-9.1-15.4-17.3-23.5-25.3c-2.7-2.7-5.4-5.4-8-8c-12.6-13.2-5.1-27.6,5.8-39.4c2.2-2.4,4.5-4.6,6.9-6.7
	c7.5-5.1,5-17.7,14.5-18.9C383.9,206.4,382.1,204.7,378.7,202.6z"/>
</svg>
