<?xml version="1.0" encoding="utf-8"?>
<!-- Generator: Adobe Illustrator 27.0.0, SVG Export Plug-In . SVG Version: 6.00 Build 0)  -->
<svg version="1.1" id="Calque_1" xmlns="http://www.w3.org/2000/svg" xmlns:xlink="http://www.w3.org/1999/xlink" x="0px" y="0px"
	 viewBox="0 0 420.2 134" style="enable-background:new 0 0 420.2 134;" xml:space="preserve">
<g>
	<path d="M63.6,75.2c-3.6-0.1-6.2-1.7-7.9-4.4c-1-1.8-1-4-0.4-6.2c0.3-1.4,0.9-2,2.3-2c1.8,0,3.6,0,5.6,0c1,0,1.6,0.5,1.7,1.7
		c0,1,0,2.1,0.1,3.1c0.1,1.4,0.9,2.6,1.9,3.5c1.4,1.3,3.1,1.7,5.5,0.7c3.2-1.3,6.4-3,9.2-5.2c13.9-10.7,25-23.3,32.1-38.6
		c2.1-4.2,3-8.5,2.9-12.7c-0.1-4.7-2.6-7.7-6.5-9.4c-1.7-0.8-3.6-0.4-5.6-0.1c-4.2,0.8-8.3,2.5-12.4,4.7c-5.3,3-10.4,6.5-15.3,10.3
		c-20.3,15.9-36.7,34.8-50.2,56c-5.3,8.5-9.8,17.2-13.1,26.1c-1.6,4.2-2.7,8.2-2.6,12.4c0,8.2,5.5,13.7,13.7,13.5
		c1.2,0,2.2-0.1,3.4-0.5c8.7-2.7,16.9-7.3,24.6-12.9c7.4-5.5,13.8-12.1,19.1-19.8c1.3-2,2.6-3.9,3.5-6.1c0.5-1.2,1.3-1.8,2.5-2
		c1.8-0.3,3.6-0.7,5.3-0.8c1.7-0.3,2.1,0.4,1.4,2c-1.2,2.5-2.9,4.7-4.3,7c-7.3,10.7-16.6,18.9-27.7,25.5c-7.5,4.5-15.3,7.9-23.4,9.5
		c-4.4,0.8-9,1.7-13.1,1.4c-8.1-0.8-13.1-4.6-14.7-12.2c-1-5.3,0.1-10.9,2.1-16.5c4-11.4,9.9-22.5,17-33c7.8-11.8,16.6-23,26.8-33.4
		c9.9-9.9,20.4-18.9,32.2-26.3c3-2,6.1-3.6,9.4-5.1c6.8-3.1,13.3-4,19.6-2.7c1.9,0.4,3.8,0.6,5.7,1c7.9,1.8,11.4,7.3,10.3,16
		c-0.7,4.4-2.5,8.8-4.8,13c-4.5,8.7-10.7,16.5-17.6,23.8c-3.5,3.9-7.3,7.5-11.6,10.8c-1.6,1-3.1,2.2-4.8,3.3
		c-4.8,3.1-9.9,4.4-15.1,4.5c-1.2,0.1-2.3,0-3.5,0v0.1C65.8,75.2,64.8,75.2,63.6,75.2z"/>
	<path d="M115.8,69.7c5.6-5.7,11.4-11.2,17.8-16c2.3-1.8,4.8-3.4,7.4-4.8c1.8-0.9,3.5-1.3,5.1-0.5c0.5,0.3,1.3,0.4,1.8,0.5
		c1.3,0.4,1.6,1.3,1.3,2.6s-0.8,2.5-1.4,3.6c-2.6,4.9-6,9.6-9,14.6c-3.8,6.2-7.3,12.5-9.9,19c-0.6,1.6-1,3.1-1.3,4.6
		c0,0.3-0.1,0.6,0.1,0.8c0.3,0.1,0.6-0.1,0.9-0.4c2.2-2,4.6-4,6.6-6.1c4.8-4.7,9.6-9.4,14.3-14.2c0.6-0.5,1.2-1.2,2.1-1.3
		c0.9,0,1.2,0.5,0.6,1.3c-0.4,0.5-0.8,1-1.2,1.4c-5.2,5.6-10.3,11.2-15.5,16.6c-1.3,1.4-2.7,2.7-4.3,3.9c-2.7,2.1-5.3,2.1-7.9,1.4
		c-1.2-0.3-1.6-1.4-1.6-2.6c-0.3-2.6,0.3-5.2,1.2-7.9c2.1-5.3,4.9-10.5,8.1-15.7c2.9-4.6,5.7-9.1,8.6-13.8c0.6-0.9,1.3-2,1.8-3.2
		c-1.2,0.3-1.9,0.9-2.7,1.4c-3.2,2.5-6.4,5.1-9.5,7.8c-9.8,8.6-18.2,18.1-26.3,28c-1.2,1.4-2.3,2.9-3.2,4.5
		c-0.8,1.3-1.7,1.8-3.1,1.7c-3.5,0-3.6-0.3-2-3.6c7.4-14.6,15.6-28.9,23.5-43.2c6-11.1,12.2-22,18.3-32.9c0.6-1.2,1.3-2.3,2.2-3.5
		c0.8-1.2,1.3-1.3,2.2-0.8c4.2,2.5,4,1.9,1.6,6.5c-9.1,16.6-18.3,33.2-27.7,49.8c-0.4,0.6-0.9,1.3-0.9,2.2
		C114.7,70.9,115.2,70.2,115.8,69.7z"/>
	<path d="M182.7,53.9c0.5-0.9,1.2-2,2-3c1-1.3,1.6-1.6,2.9-0.9c0.9,0.4,1.8,0.9,2.7,1.4c1.4,0.8,1.6,1.3,0.8,3.1
		c-0.8,1.6-1.6,3-2.5,4.6c-3.9,6.4-7.9,12.7-11.1,19.2c-2.2,4.4-4.2,8.8-5.1,13.4c-0.1,0.8-0.8,2,0.1,2.3c0.8,0.3,1.6-0.8,2.2-1.4
		c3.4-3,6.5-6.4,9.6-9.6c2.9-3.1,5.7-6.1,8.5-9.2c0.3-0.3,0.5-0.5,0.8-0.8c0.7-0.4,1.3-0.6,1.8-0.1c0.4,0.4,0,1-0.4,1.4
		c-1.7,2.1-3.5,4.2-5.2,6.2c-3.1,3.4-6.1,6.9-9.1,10.4c-1.4,1.6-2.9,3-4.6,4.3c-2.7,2.1-5.6,2.2-8.3,1.7c-1.3-0.3-1.8-1.4-2.1-2.6
		c-0.4-2.3-0.1-4.7,0.6-7.1c0.5-2.1,0.9-4.2,2-6.2c-0.7,0-0.9,0.5-1.3,0.8c-4.2,4.2-8.3,8.2-12.5,12.2c-3.2,3-6.4,3.3-9.6,2.6
		c-1.4-0.3-2-1.4-2.1-2.7c-0.3-1.8-0.1-3.8,0.4-5.7c2.7-11.4,7.9-22.1,16.3-31.9c1.2-1.3,2.5-2.6,3.8-3.8c2.6-2.2,5.9-4,9.4-2.3
		c0.6,0.3,1.3,0.5,1.8,0.8c2.7,1.2,4,3.4,4,6.5c0.1,0.8,0,1.7,0,2.6c0.1,0,0.3,0,0.4,0C180.1,57.9,181.4,55.9,182.7,53.9z
		 M149.7,90.5c-0.1,0.7-0.7,1.6,0,2c0.6,0.3,1.3-0.7,2-1.2c5.7-4.7,11.1-9.9,16.4-15c2.3-2.2,4.6-4.6,4.8-7.5c0-0.1,0-0.1,0-0.3
		c1.4-3.9,1.8-7.7,1.7-11.4c0-1.3-0.3-2.5-0.8-3.4c-0.8-1.3-1.4-1.4-3-0.6c-0.8,0.4-1.4,0.8-2,1.3c-1.2,1-2.2,2.2-3.1,3.4
		c-7.7,9.4-12.5,19.5-15.5,30.3C150.1,88.8,149.8,89.6,149.7,90.5z"/>
	<path d="M212,59.1c3.6-3.4,7.4-6.6,12-8.7c0.9-0.5,2-0.9,2.9-1.3c1.8-0.6,3.5-0.8,5.1,0c0.8,0.4,1.6,0.7,2.3,1
		c1.6,0.7,2.3,3.5,1.3,5.3c-0.4,0.7-0.8,0.9-1.4,0.8c-1-0.3-2.3-0.5-2.5-1.8c-0.4-2.5-0.6-2.6-3.9-1.3c-4.7,2-8.7,4.9-12.5,8.3
		c-9.4,8.3-17.3,17.7-24.3,27.7c-1.3,1.7-2.5,3.5-3.5,5.3c-0.8,1.4-1.7,1.9-3.1,1.9c-3.4,0.3-3.6-0.1-2.2-3.4
		c1.4-3.1,3.1-6.1,4.8-9.2c6-11.1,12.4-22.1,18.7-33c1.2-2,1.4-2.1,3.2-1.2c0.4,0.1,0.9,0.4,1.3,0.6c1.6,0.8,1.7,1.2,0.8,3
		c-1.3,3.1-2.9,6-4.6,9c-1.2,1.7-2.1,3.5-3.1,5.3c0,0,0.1,0.1,0.3,0.1C206.4,64.8,209,61.8,212,59.1z"/>
	<path d="M228.1,78.8c3-6.5,6.4-12.9,9.8-19.2c4.8-8.7,9.8-17.4,14.6-26.1c3.4-6.1,7-12.1,10.7-17.9c2.1-3.4,2.2-3.4,5.1-1.8
		c0.4,0.3,0.6,0.4,1,0.7c0.6,0.4,0.8,1,0.4,1.8c-0.4,0.6-0.6,1.3-1,2c-6.5,11.8-13.1,23.4-19.9,35.1c-5.3,9.5-11.1,19-15.6,28.9
		c-1.2,2.3-2.1,4.7-3,7c-0.4,1.2-0.6,2.2-0.8,3.4c0,0.4-0.1,1,0.3,1.2c0.5,0.3,0.9-0.4,1.2-0.6c1.4-1.4,2.9-2.7,4.2-4.2
		c4.5-4.9,9.2-9.9,13.8-14.8c0.5-0.5,0.9-1,1.4-1.6s1-0.8,1.7-0.8c1,0,1.3,0.4,0.7,1.3c-1.3,1.6-2.5,3-3.8,4.4
		c-3.5,4.2-7.2,8.3-10.5,12.5c-1.6,2-3.4,3.8-5.3,5.5c-2.3,2.1-4.8,1.9-7.3,1.4c-1.2-0.3-1.6-1.3-1.7-2.3c-0.3-1.8-0.1-3.6,0.3-5.7
		C225,85.4,226.5,82.2,228.1,78.8z"/>
	<path d="M278.9,80.5c3.2-1.4,6.2-3,9.4-4.8c1-0.7,2.2-1.4,3.2-2.3c0.5-0.3,0.9-0.8,1.4-0.8c0.7-0.1,1.4-0.4,1.7,0.3
		c0.3,0.5-0.4,0.9-0.8,1.3c-0.8,0.8-1.6,1.4-2.5,2.1c-3.1,2.1-6.4,3.8-9.6,5.6c-2.6,1.3-5.2,2.1-7.8,2.2c-1.4,0.1-2.2,0.6-3.1,1.8
		c-1.8,2.5-4,4.8-6.4,6.9c-1.3,1.3-2.7,2.5-4.3,3.4c-2.1,1.2-4.3,2-6.5,1.7c-1-0.1-2.1-0.1-3.1-0.1c-4.2,0-6.4-2.2-7.4-5.6
		c-0.6-2-0.6-4-0.1-6.2c0.8-4.4,2.6-8.6,5.1-12.6c1.2-2.1,2.5-4,3.8-5.9c0.6-1,1.3-2.1,2.5-2.6c0.8-0.4,1-1.2,1.3-1.8
		c1.6-3.5,3.8-6.6,6.8-9.2c3-2.7,6.4-4.3,10-4.7c0.6-0.1,1.3,0,2,0.1c1.6,0.3,3.1,0.8,4.7,1.3c3,1.2,4.5,3.5,4.5,6.9
		c0.1,3.6-0.6,7.4-2.3,11.2c-1.8,3.9-3.9,7.7-6.2,11.4c-0.3,0.5-0.9,1-0.8,2C275.9,81.8,277.5,81.2,278.9,80.5z M250.3,88.7
		c-0.1,1.8,0.3,3.6,1.2,5.1c0.9,1.4,1.6,1.6,3.4,0.5c1.4-0.9,2.7-2.1,3.9-3.1c2.1-1.8,4-3.6,5.9-5.7c1.4-1.7,1.4-1.8-0.3-2.5
		c-1.3-0.5-2.5-1-3.5-1.8c-2.2-1.7-4.2-3.5-5.7-6.2C252.5,79.7,250.8,84.1,250.3,88.7z M261,71.7c0.6,3.9,2.9,6.6,5.7,8.8
		c0.9,0.6,1.4,0.5,2.3-0.9c3.6-5.3,6.8-10.9,8.6-16.8c0.6-2.5,1.2-4.8,0.8-7c-0.9-4.3-2.1-4.9-6.6-2.5c-5.6,3.1-8.8,7.8-10.4,13.5
		C261,68.5,260.7,70.1,261,71.7z"/>
	<path d="M323,35.1c4.7-0.8,9.4-1.8,14-2.9c1.3-0.3,2.1-0.9,2.7-2.1c2.1-3.2,4.3-6.5,6.4-9.8c0.3-0.4,0.5-0.8,0.9-1.2
		c0.6-0.9,1.6-1.4,2.6-1.2c0.8,0.3,1.6,0.4,2.3,0.5c1.4,0.4,1.6,0.6,0.8,2.2c-1,2-2.1,3.9-3.3,5.9c-0.1,0.4-0.4,0.8-0.6,1
		c-0.1,0.5-0.6,0.9-0.4,1.3c0.3,0.5,0.9,0.1,1.4,0c6.6-1.7,13.3-3.5,19.9-5.3c8.3-2.2,16.8-4.4,25.1-5.6c4.9-0.8,9.8-0.8,14.4-0.3
		c1.7,0.3,3.2,0.8,4.7,1.4c0.9,0.4,1.7,0.9,2.1,1.8c1,1.7,2,3.5,2.9,5.3c0.6,1.2,0.5,1.8-0.3,2.3c-0.7,0.5-1.3,0.4-2-0.9
		c-0.5-1-1.3-1.7-2.5-2.1c-4.2-1.4-8.8-1.7-13.7-1.4c-10.1,0.6-20.4,3.1-30.6,5.7c-8.1,2-16.1,3.9-24.2,5.9c-1.4,0.4-2.3,1-3,2.3
		c-7.3,12-14.2,24.2-20,36.7c-3.1,6.8-5.9,13.5-7.4,20.4c-1,4-0.5,7.5,1,10.8c0.8,1.6,2.1,2.5,3.5,3.1c0.6,0.4,1.2,0.3,1.8-0.1
		c2.9-1.8,5.3-3.8,6.8-6.8c0.7-1.2,1.4-1.7,2.6-1.9c1.4-0.3,2.9-0.5,4.3-0.8c1.8-0.3,2.3,0.6,1.2,2.1c-4,5.1-8.6,9.2-15,10.1
		c-1.3,0.1-2.7,0.5-4.2,0.7c-3.9,0.5-6.6-0.9-8.3-3.6c-2.2-3.4-2.7-7.3-2-11.8c1.4-8.1,4.8-16.1,8.3-23.9c0.5-1.2,1.2-2.3,1.8-3.9
		c-0.8,0.5-1,1-1.4,1.6c-4.2,5.9-8.7,11.4-13.4,16.9c-1.8,2.2-3.8,4.2-5.9,6.1c-1.7,1.7-3.6,2.7-5.9,2.6c-0.7-0.1-1.3-0.1-2,0
		c-2.1,0.1-3-0.8-3.5-2.5c-0.6-2.6-0.4-5.3,0.4-8.2c1.6-5.9,4.4-11.4,7.2-17c3.8-7.4,8.3-14.6,12.5-21.8c0.5-0.9,1.2-2,1.7-2.9
		c1.3-2.3,1.3-2.3-1-2.5c-3.8,0-7.3-0.7-10.5-1.7c-3.1-0.9-5.9-2.5-7.9-4.8c-0.3-0.3-0.5-0.8-0.8-1.2c-0.1-0.3-0.1-0.5,0.1-0.8
		c0.3-0.3,0.5-0.3,0.7-0.1c0.3,0,0.4,0.1,0.5,0.3c3.6,2.6,8.5,3.1,13.3,3.5c2.6,0.1,5.2,0.1,7.8,0c2.2,0,2.2,0,3.4-2.1
		c3.9-7,8.5-13.8,12.9-20.7c0.3-0.3,0.5-0.6,0.8-1c1.2-1.7,1.6-1.8,3.2-1.2c0.4,0.3,0.9,0.4,1.3,0.5c1.6,0.8,1.8,1.2,0.8,3
		c-1.8,3.1-3.6,6.1-5.5,9.2c-2,3.1-3.8,6.2-5.7,9.4c-0.3,0.5-0.6,0.9-0.6,1.6C320.9,35.6,321.9,35.3,323,35.1z M331.7,39
		c-4.5,0.9-9,1.7-13.4,2.1c-1.8,0.1-2.9,0.8-3.8,2.5c-2.7,4.8-5.6,9.6-8.3,14.6c-5.1,8.6-9.9,17.3-13.1,26.4
		c-0.8,2.3-1.6,4.8-1.4,7.2c0,1.2,0.4,1.2,1.3,0.4c1.3-1.3,2.7-2.6,3.9-4c13.5-15.1,25-31.2,36.4-47.5c0.3-0.5,0.8-1,0.6-1.8
		C333.2,38.6,332.5,38.9,331.7,39z"/>
	<path d="M336.1,97.3c-6,0.1-8.6-3.2-8.5-8.8c0.1-3.9,1.4-7.7,3.2-11.4c3.9-8.5,9.4-16,16.6-22.4c2.9-2.5,5.9-4.6,9.5-5.5
		c2.2-0.4,4.2-0.3,5.9,0.7c0.9,0.5,1.7,1,2.6,1.4c3.9,1.6,5.2,5.9,2.9,11.1c-1,2.2-2.6,4.4-4.4,6.2c-4,3.8-8.5,6.6-13.5,8.3
		c-3.5,1.2-6.9,1.4-10,0.6c-1.7-0.4-1.8-0.3-2.7,1.4c-1.4,3-2.3,6.1-2.7,9.2c-0.4,2.2,0,4.2,1.2,5.8c0.9,1.2,2.2,1.4,3.9,0.8
		c2.2-0.6,4.3-1.7,6.2-2.9c5.9-3.2,11.3-7.1,16.6-11c3.4-2.5,6.8-4.9,10-7.5c0.3-0.3,0.5-0.5,0.9-0.6c0.6-0.3,1.4-0.4,1.8,0.1
		s-0.3,1-0.6,1.6c-0.6,0.5-1.2,1-1.7,1.6c-7,6.1-14.6,11.4-22.1,16.6c-2,1.3-4,2.3-6.2,3.2c-2.6,1.2-5.2,1.6-7.4,1.4
		C336.8,97.3,336.4,97.3,336.1,97.3z M362.8,55.3c0.4-2.3,0-2.6-2.3-1.7c-2.2,0.9-4.3,2.2-6.2,3.8c-5.5,4.2-9.6,9.4-13,15.1
		c-0.4,0.5-1,1.2-0.6,1.6c0.3,0.7,1.2,0.3,1.8,0c6.4-1.4,11.7-5.2,16.1-10.4c2-2.2,3.5-4.8,4.2-7.5
		C362.6,55.8,362.8,55.5,362.8,55.3z"/>
</g>
</svg>
