<?xml version="1.0" encoding="utf-8"?>
<svg class="wedding_name_column" xmlns="http://www.w3.org/2000/svg" xmlns:xlink="http://www.w3.org/1999/xlink" x="0px" y="0px"
	 viewBox="0 0 603.9 372.9">
	<g class="wedding_name_decoration">
		<path class="wedding_name_ring-charlotte" d="M281.8,365.7c-18.1,0-32.8-14.7-32.8-32.8c0-18.1,14.7-32.8,32.8-32.8c18.1,0,32.8,14.7,32.8,32.8
			C314.6,351,299.9,365.7,281.8,365.7z M281.8,310.2c-12.6,0-22.8,10.2-22.8,22.8c0,12.5,10.2,22.8,22.8,22.8s22.8-10.2,22.8-22.8
			C304.6,320.4,294.3,310.2,281.8,310.2z"/>
		<path class="wedding_name_ring-felix" d="M322.1,300.2c-6,0-11.6,1.6-16.5,4.5c2.6,2.2,5,4.8,6.9,7.7c2.9-1.4,6.2-2.1,9.6-2.1
			c12.6,0,22.8,10.2,22.8,22.8c0,12.5-10.2,22.8-22.8,22.8s-22.8-10.2-22.8-22.8c0-1.5,0.2-3,0.4-4.4c-1-4.2-3.5-7.9-6.9-10.4
			c-2.3,4.4-3.5,9.5-3.5,14.8c0,18.1,14.7,32.8,32.8,32.8s32.8-14.7,32.8-32.8C354.9,314.9,340.2,300.2,322.1,300.2z"/>
		<path class="wedding_name_heart" d="M308.3,259.1c-2.4,0-4.6,0.9-6.3,2.3c-1.7-1.4-3.9-2.3-6.3-2.3c-5.4,0-9.8,4.4-9.8,9.8s16.1,17.3,16.1,17.3
			s16.1-11.9,16.1-17.3S313.7,259.1,308.3,259.1z"/>
		<g>
			<g>
				<path d="M196.1,339.1c-17.2-88.4-89.9-103.4-89.9-103.4c24,5.2,46.9,17.2,63.4,35.8c4.2,4.6,8,9.5,11.4,14.7
					c6.8,10.4,11.4,22.2,13.8,34.4c1.2,6.1,2,12.2,1.7,18.4C196.6,339.1,196.1,339.1,196.1,339.1L196.1,339.1z"/>
				<path d="M47,114.3c-9.7,8.2-16.4,22-11.6,34.6c4.4,11.7,15.3,21.5,26.2,27.3c11.7,6.1,24.8,6.8,37.7,8.7
					c13.2,1.8,27.3,5.6,36.7,15.6c0,0-0.3,0.4-0.3,0.4c-5.5-3.7-11.5-6.3-17.8-7.9c-6.3-1.6-12.7-2.4-19.2-3.1
					c-13.2-1.2-27.2-3.4-39-10.2c-6-3.4-11.3-7.7-15.9-12.7c-9.7-10-15.4-23.7-9.5-37.4C39.2,117.9,47,114.3,47,114.3L47,114.3z"/>
				<path d="M209.5,288.9c-19-50.7-71.8-84.8-125.3-90.4c-10.5-1.2-21-3.9-30.2-8.8c0,0-2.3-1.2-2.3-1.2c-1.2-0.8-3.1-1.9-4.3-2.7
					c-2-1.4-4.1-3-5.9-4.6c-0.5-0.4-1.4-1.2-1.8-1.7c-20.9-19.4-22.3-48.5-4.8-70.9c2.5-3.3,5.5-6.4,8.7-9.3c0.3-0.3,0.6-0.6,0.9-0.8
					c0.5-0.5,1.1-0.9,1.6-1.4c5.4-4.3,12-5.1,12-5.1c-8.2-4.3-1.9-14.3-1.9-14.3s-36.5,17-46.3,56c0,0.1-0.1,0.2-0.1,0.3
					c0,0.1,0,0.1-0.1,0.2l0,0c-6.5,26.2,6.6,54.3,31.1,67.8c11,6.4,24,9.5,36.4,10.6c2.9,0.2,8.7,0.6,11.6,0.7
					c33.3,3,65,18.7,89,41.8c21.5,20.7,38.1,49.1,37.6,79.7C215.2,334.9,218.8,313.9,209.5,288.9z"/>
			</g>
			<g>
				<path d="M407.8,339.1c17.2-88.4,89.9-103.4,89.9-103.4c-24,5.2-46.9,17.2-63.4,35.8c-4.2,4.6-8,9.5-11.4,14.7
					c-6.8,10.4-11.4,22.2-13.8,34.4c-1.2,6.1-2,12.2-1.7,18.4C407.3,339.1,407.8,339.1,407.8,339.1L407.8,339.1z"/>
				<path d="M556.9,114.3c9.7,8.2,16.4,22,11.6,34.6c-4.4,11.7-15.3,21.5-26.2,27.3c-11.7,6.1-24.8,6.8-37.7,8.7
					c-13.2,1.8-27.3,5.6-36.7,15.6c0,0,0.3,0.4,0.3,0.4c5.5-3.7,11.5-6.3,17.8-7.9c6.3-1.6,12.7-2.4,19.2-3.1
					c13.2-1.2,27.2-3.4,39-10.2c6-3.4,11.3-7.7,15.9-12.7c9.7-10,15.4-23.7,9.5-37.4C564.7,117.9,556.9,114.3,556.9,114.3
					L556.9,114.3z"/>
				<path d="M394.4,288.9c19-50.7,71.8-84.8,125.3-90.4c10.5-1.2,21-3.9,30.2-8.8c0,0,2.3-1.2,2.3-1.2c1.2-0.8,3.1-1.9,4.3-2.7
					c2-1.4,4.1-3,5.9-4.6c0.5-0.4,1.4-1.2,1.8-1.7c20.9-19.4,22.3-48.5,4.8-70.9c-2.5-3.3-5.5-6.4-8.7-9.3c-0.3-0.3-0.6-0.6-0.9-0.8
					c-0.5-0.5-1.1-0.9-1.6-1.4c-5.4-4.3-12-5.1-12-5.1c8.2-4.3,1.9-14.3,1.9-14.3s36.5,17,46.3,56c0,0.1,0.1,0.2,0.1,0.3
					c0,0.1,0,0.1,0.1,0.2l0,0c6.5,26.2-6.6,54.3-31.1,67.8c-11,6.4-24,9.5-36.4,10.6c-2.9,0.2-8.7,0.6-11.6,0.7
					c-33.3,3-65,18.7-89,41.8c-21.5,20.7-38.1,49.1-37.6,79.7C388.7,334.9,385.1,313.9,394.4,288.9z"/>
			</g>
		</g>
	</g>
	<g class="wedding_name_felix">
		<path d="M286.4,154c-7.4-0.4-14.8,0.3-22.5,1.6c-11.1,2-21.8,5.7-32.2,11.7c-8.3,4.7-15.6,10.8-20.9,19c-2.5,3.8-4.3,7.7-5.3,11.8
			c-3,11.4,1.6,19.3,11.3,22.6c2.2,0.7,4.5,1.3,7.2,1.3c0.5,0,1.6-0.1,1.3,0.7s-1.2,0.8-1.7,0.8c-1.4,0-2.7,0-4-0.3
			c-4.4-0.5-8.7-1.3-12.5-3.1c-7.8-4-11.3-10.5-10.1-20.2c1-7.8,4.7-14.8,10-21.6c4.6-5.6,10.1-10.1,16.1-14.2
			c14.2-9.4,29-14.4,44.5-16.5c7.7-1,15.1-0.9,22.6-0.6c5.1,0.1,10.3,0,15.5-0.6c4.9-0.6,9.8-1.8,14.7-3.1c2.7-0.6,5.5-1.8,8.2-3.1
			c2-1,3.9-2.3,5.6-3.9c0.8-0.8,1.4-1.7,2.1-2.7c0.9-1.8,1.7-2.1,3-1.2c2.1,1.6,4,3,6,4.6c1.7,1.4,1.7,2.3,0,4.5s-3.8,3.9-6.1,5.3
			c-3.6,2.2-7.5,3.6-11.4,4.7c-8.6,2.1-17.2,3.6-24.8,3.2C296.8,154.6,291.6,154.3,286.4,154z M255.6,208.3
			c4.2-0.5,8.2-0.5,12.1,0.1c1.8,0.3,3.1,1,3.9,2.6c0.5,0.8,1,1.7,1.4,2.6c0.3,0.4,0.4,0.9-0.1,1.3c-0.5,0.6-0.9,0.1-1.2-0.1
			c-1.4-1.3-3.2-1.6-5.2-1.6c-5.2-0.3-10.4,0.5-15.7,1.3c-1.4,0.1-2.7,0.4-4,0.5c-1.2,0.1-1.8,0.7-2.3,1.7
			c-2.1,3.8-4.2,7.5-6.4,11.4c-5.2,9.2-10.4,18.5-15.9,27.6c-2.2,3.6-2.2,3.6-6,3.6c-0.8,0.1-1.6,0.1-2.3,0.1
			c-1.4-0.1-1.7-0.5-1.2-2c0.3-0.9,0.6-1.7,1-2.5c2.5-4.7,4.9-9.4,7.5-14c4.2-7.5,8.3-15,12.5-22.5c0.1-0.3,0.4-0.6,0.5-0.9
			c0.6-1.4,0.6-1.7-0.7-1.7c-4.2-0.3-5.9-3-7.7-5.9c-0.1,0-0.1-0.1-0.1-0.3c-0.1-0.4-0.1-0.8,0.3-1c0.5-0.4,0.8-0.3,1,0
			c0.6,0.7,1.2,1.3,2.1,1.6c2.5,0.6,5.2,0.4,7.8,0.1c1.2,0,1.7-0.8,2.2-1.7c2.6-4.8,5.3-9.6,7.9-14.3c6.6-11.4,12.8-23,19.7-34.6
			c2.6-4.4,3-3.4,5.6-2.2c0.8,0.4,1.6,0.8,2.3,1.2c1.2,0.6,1.3,1.2,0.5,2.6c-1.2,2.3-2.3,4.7-3.5,6.9c-7,12.9-14.4,25.6-21.6,38.5
			c-0.4,0.6-0.9,1.4-1.2,2.5C251.3,208.9,253.5,208.6,255.6,208.3z"/>
		<path d="M288.8,226.9c-6,0.1-8.6-3.2-8.5-8.8c0.1-3.9,1.4-7.7,3.2-11.4c3.9-8.5,9.4-16,16.6-22.4c2.9-2.5,5.8-4.6,9.5-5.5
			c2.2-0.4,4.2-0.3,5.8,0.7c0.9,0.5,1.7,1,2.6,1.4c3.9,1.6,5.2,5.9,2.9,11.1c-1,2.2-2.6,4.4-4.4,6.2c-4,3.8-8.5,6.6-13.5,8.3
			c-3.5,1.2-6.9,1.4-10,0.6c-1.7-0.4-1.8-0.3-2.7,1.4c-1.4,3-2.3,6.1-2.7,9.2c-0.4,2.2,0,4.2,1.2,5.8c0.9,1.2,2.2,1.4,3.9,0.8
			c2.2-0.6,4.3-1.7,6.2-2.9c5.9-3.2,11.3-7.1,16.6-11c3.4-2.5,6.8-4.9,10-7.5c0.3-0.3,0.5-0.5,0.9-0.6c0.6-0.3,1.4-0.4,1.8,0.1
			s-0.3,1-0.7,1.6c-0.7,0.5-1.2,1-1.7,1.6c-7,6.1-14.6,11.4-22.1,16.6c-2,1.3-4,2.3-6.2,3.2c-2.6,1.2-5.2,1.6-7.4,1.4
			C289.5,226.9,289.1,226.9,288.8,226.9z M315.5,184.9c0.4-2.3,0-2.6-2.3-1.7c-2.2,0.9-4.3,2.2-6.2,3.8c-5.5,4.2-9.6,9.4-13,15.1
			c-0.4,0.5-1,1.2-0.6,1.6c0.3,0.7,1.2,0.3,1.8,0c6.4-1.4,11.7-5.2,16.1-10.4c2-2.2,3.5-4.8,4.2-7.5
			C315.4,185.5,315.5,185.2,315.5,184.9z M307,172.1c-0.5-0.4-0.1-0.9,0.4-1.4c0.6-0.5,1.4-0.6,2.1-0.9c8.6-2.5,14.8-8.2,19.8-15.7
			c0.7-0.9,1.2-2.1,1.6-3.1c0.5-1.2,1.3-1.4,2.1-0.6c1.2,1,2.2,2.2,3.4,3.4c0.8,0.8,0.8,2,0.4,3.1c-0.4,0.9-0.8,1.8-1.3,2.6
			c-5.7,8.5-13.5,13.3-22.9,15.1c-0.3,0-0.5,0-0.9,0C309.6,174.3,308.3,173.1,307,172.1z"/>
		<path d="M322,208.5c3-6.5,6.4-12.9,9.8-19.2c4.8-8.7,9.8-17.4,14.6-26.1c3.4-6.1,7-12.1,10.7-17.9c2.1-3.4,2.2-3.4,5.1-1.8
			c0.4,0.3,0.7,0.4,1,0.7c0.7,0.4,0.8,1,0.4,1.8c-0.4,0.6-0.7,1.3-1,2c-6.5,11.8-13.1,23.4-19.9,35.1c-5.3,9.5-11.1,19-15.6,28.9
			c-1.2,2.3-2.1,4.7-3,7c-0.4,1.2-0.7,2.2-0.8,3.4c0,0.4-0.1,1,0.3,1.2c0.5,0.3,0.9-0.4,1.2-0.6c1.4-1.4,2.9-2.7,4.2-4.2
			c4.6-4.9,9.2-9.9,13.8-14.8c0.5-0.5,0.9-1,1.4-1.6s1-0.8,1.7-0.8c1,0,1.3,0.4,0.6,1.3c-1.3,1.6-2.5,3-3.8,4.4
			c-3.5,4.2-7.2,8.3-10.5,12.5c-1.6,2-3.4,3.8-5.3,5.5c-2.3,2.1-4.8,1.9-7.3,1.4c-1.2-0.3-1.6-1.3-1.7-2.3c-0.3-1.8-0.1-3.6,0.3-5.7
			C318.9,215.1,320.4,211.9,322,208.5z"/>
		<path d="M343,201.2c3.4-6.5,7-13,11.2-19.2c2-3.1,2.2-3.2,4.8-1.8c0.6,0.4,1.3,0.6,1.9,1c1.2,0.6,1.3,1.2,0.7,2.6
			c-0.7,1.7-1.7,3.2-2.6,4.9c-3.9,6.4-7.9,12.7-11.1,19.2c-2.2,4.6-4.3,9.1-5.1,13.8c-0.1,0.6-0.7,1.6,0,1.9
			c0.8,0.4,1.6-0.6,2.1-1.2c3.5-3.1,6.8-6.5,9.9-9.9c2.9-3.1,5.7-6.1,8.6-9.2c0.3-0.3,0.4-0.5,0.6-0.8c0.7-0.4,1.4-0.6,1.8-0.1
			c0.4,0.4,0,1-0.4,1.4c-1.8,2.1-3.5,4.3-5.3,6.4c-3,3.4-6,6.9-9,10.3c-1.3,1.6-2.9,3-4.5,4.3c-2.7,2.1-5.6,2.2-8.3,1.7
			c-1.3-0.3-1.8-1.6-2.1-2.9c-0.4-2.5,0.1-5.2,0.9-8.1C338.5,210.8,340.6,206,343,201.2z"/>
		<path d="M366.3,162.1c1.3-1.6,1.8-1.7,3.4-1c1,0.4,2.1,0.9,3.1,1.3c1.2,0.6,1.2,0.9,0.4,2.3c-1,1.7-2.2,3.3-3.6,4.7
			c-1.2,1-2.3,2.1-2.6,3.8c-0.1,0.8-0.9,1-1.6,0.9c-1-0.3-2-0.5-2.9-1s-0.7-1.6-0.5-2.6C362.9,167.4,364,164.5,366.3,162.1z"/>
		<path d="M372.3,224.5c-1.2-2.3-1.7-4.8-2.2-7.3c-0.1-0.8,0.1-1.8-0.8-2c-0.8,0-1.3,1-1.8,1.6c-2.7,2.9-5.3,5.7-8.1,8.5
			c-1.4,1.3-3,1.6-4.3,0.8c-0.4-0.4-0.4-0.8,0-1.2c0.4-0.5,0.8-1,1.2-1.6c3.1-3.8,6.5-7.4,10-10.9c2-2,2.9-3.8,2.9-6.2
			c0-6.5,0.7-13.3,1.6-20c0.1-1.8,0.4-3.6,0.9-5.5c0.4-1.8,0.9-2.2,2.6-1.8c0.9,0.3,1.8,0.5,2.9,0.7c1.3,0.3,1.7,1,1.7,2.3
			c0,3.4-0.1,6.8-0.4,10.3c-0.1,2-0.3,4-0.4,6c0,0.5-0.3,1.2,0.4,1.3c0.5,0.1,0.9-0.5,1.3-0.9c2.2-2.2,4.4-4.5,6.6-6.8
			c3.6-3.9,7.5-7.7,11.3-11.4c0.3-0.3,0.5-0.4,0.8-0.6c0.1-0.1,0.3-0.4,0.5-0.4c1.9-0.9,2.2,0.8,3.2,1.4c0.8,0.4,0.5,1.2-0.1,2
			c-0.7,0.6-1.2,1.3-1.8,1.8c-6.1,6-12.4,12-18.5,17.9c-1.2,1-2.2,2.1-3.2,3.1c-0.5,0.6-0.8,1.2-0.8,1.8c0,3.9,0.1,7.9,0.8,11.7
			c0.1,1,0.4,2.2,0.9,3.1c0.8,1.3,1.4,1.4,2.9,0.3c2.9-2.1,5.5-4.5,8.2-7c4.3-4,8.7-8.1,13.1-12.2c0.9-0.8,1.8-1.4,2.9-1.6
			c0.5-0.1,0.6,0.3,0.4,0.7c-0.3,0.4-0.5,0.6-0.8,1c-5.9,5.6-11.6,11.3-17.3,16.9c-3.1,3.2-6.9,5.1-10.9,6.4
			c-0.5,0.1-1.2,0.3-1.6,0.3C374.2,226.7,373.1,225.9,372.3,224.5z"/>
	</g>
	<g class="wedding_name_ampersand">
		<path d="M288.6,112.9c-0.9-1.9-0.9-3.9-0.1-6.2c1.4-4.2,4.3-7.1,8.4-9c1.7-0.8,3.5-1,5.1-0.6c1.4,0.4,2.7,1.1,3.7,2.1
			c0.8,0.8,1,1.9,0.9,3c-0.1,2-0.9,3.9-2.3,5.7c-1.3,1.6-2.7,3.2-4.5,4.3c-0.4,0.3-0.9,0.5-1.3,0.8c-0.9,0.3-1.7,0.5-2.5,0.3
			c-0.7-0.2-1.4-0.3-2.1-0.6c-1.3-0.4-1.9-1.8-1.3-3.2c0.1-0.5,0.3-0.9,0.6-1.2c0.3-0.5,0.5-0.5,0.9-0.4c0.6,0.1,1.2,0.3,1.9,0.5
			c0.5,0.1,0.5,0.3,0.3,0.8c-0.1,0.2-0.2,0.5-0.3,0.8c-0.2,0.5-0.3,1-0.3,1.6c0.1,0.4,0.1,0.5,0.6,0.3c0.3-0.1,0.8-0.3,1.1-0.5
			c2.1-1.4,4-3.2,5.4-5.4c0.9-1.5,1.3-3.1,1.4-4.7c0.1-0.8-0.1-1.4-0.4-2c-0.2-0.4-0.5-0.6-1-0.6c-1.1-0.1-2.2,0.1-3.3,0.5
			c-3.2,1.4-5.8,3.6-7.3,6.7c-1.6,3.5-1.3,6.6,1,8.9c0.2,0.2,0.3,0.3,0.5,0.5c0.2,0.2,0.3,0.3,0.1,0.7c-0.2,0.3-0.5,0.3-0.7,0.2
			c-1-0.2-2,0.3-3,0.8c-0.6,0.3-1.3,0.8-1.9,1.2c-2.7,1.9-4.3,4.3-5,7.1c-0.5,2,0,3.6,1.3,4.7c0.7,0.6,1.6,1,2.6,1.2
			c0.2,0,0.3,0,0.6,0c2.5-0.5,5-1.4,7.3-3.1c0.3-0.2,0.8-0.3,0.7-0.7c0-0.3-0.4-0.3-0.7-0.3c-0.8-0.2-1.7-0.2-2.6-0.2
			c-0.4,0.1-0.8,0.1-1.2,0.3c-0.5,0.2-0.9,0.5-1.2,1c-0.1,0.3-0.3,0.5-0.5,0.8c-0.3,0.3-0.5,0.5-0.8,0.2c-0.5-0.5-1.1-1.1-1.6-1.7
			c-0.3-0.5-0.2-1.1,0.2-1.7c0.3-0.6,0.9-1,1.5-1.3c1.4-0.6,2.7-0.7,4-0.5c1.4,0.2,2.6,0.9,3.6,1.9c0.5,0.5,0.5,0.8,1.3-0.2
			c1.4-1.4,2.6-3,3.4-4.7c0.8-1.6,1-3.2,0.5-4.6c-0.1-0.3-0.3-0.6-0.5-0.9c-0.3-0.3-0.5-0.3-1-0.1c-1.6,0.8-3,1.7-4.2,3
			c-0.7,0.8-1.1,1.6-1.2,2.6c-0.1,0.6-0.1,1.2,0.3,1.7c0.1,0.1,0.1,0.2,0.2,0.3c0.1,0.1,0.1,0.3,0,0.5c-0.2,0.2-0.3,0.3-0.6,0.3
			c-0.4-0.1-0.8-0.1-1.2-0.1c-0.4-0.1-0.8-0.1-1.3-0.1c-0.5-0.1-0.8-0.3-0.9-0.8c-0.5-1.3-0.2-2.7,0.6-4c0.5-0.8,1-1.5,1.9-2.1
			c1-0.8,2.1-1.6,3.2-2.1c1.2-0.5,2.3-0.8,3.4-0.5c0.6,0.1,1.3,0.2,1.9,0.3c2.6,0.4,3.4,2.6,3,4.7c-0.3,2.1-1.4,3.9-2.8,5.7
			c-0.9,1.2-1.9,2.3-3,3.2c-0.5,0.3-0.5,0.5-0.1,0.8c0.5,0.3,1,0.5,1.6,0.5c0.9,0.1,1.7-0.1,2.5-0.5c0.6-0.2,1.2-0.6,1.6-1.2
			c0.3-0.6,0.6-0.7,1-0.3c0.5,0.5,1.1,1.1,1.6,1.6c0.4,0.5,0.3,0.8-0.2,1.4c-0.3,0.3-0.6,0.5-1,0.7c-1.5,0.8-3,1.1-4.5,0.9
			c-0.9-0.1-1.6-0.5-2.3-1.1c-0.5-0.4-0.9-0.9-1.3-1.3c-0.4-0.4-0.4-0.4-1-0.1c-2.1,1.4-4.4,2.3-6.7,2.7c-0.5,0.1-1,0.1-1.5,0.1
			c-1.6,0-3.4,0.1-4.9-0.3c-2.1-0.5-3.6-1.6-4.1-3.7c-0.5-1.8-0.1-3.6,0.9-5.5c0.5-1,1.2-2,1.9-3c1-1.3,2.2-2.2,3.5-3.1
			c1.2-0.8,2.3-1.3,3.8-1.7C289.3,114.2,288.9,113.6,288.6,112.9z"/>
	</g>
	<g class="wedding_name_charlotte">
		<path d="M155.5,77.7c-3.6-0.1-6.2-1.7-7.9-4.4c-1-1.8-1-4-0.4-6.2c0.3-1.4,0.9-2,2.3-2c1.8,0,3.6,0,5.6,0c1,0,1.6,0.5,1.7,1.7
			c0,1,0,2.1,0.1,3.1c0.1,1.4,0.9,2.6,1.9,3.5c1.4,1.3,3.1,1.7,5.5,0.7c3.2-1.3,6.4-3,9.2-5.2c13.9-10.7,25-23.3,32.1-38.6
			c2.1-4.2,3-8.5,2.9-12.7c-0.1-4.7-2.6-7.7-6.5-9.4c-1.7-0.8-3.6-0.4-5.6-0.1c-4.2,0.8-8.3,2.5-12.4,4.7c-5.3,3-10.4,6.5-15.3,10.3
			c-20.3,15.9-36.7,34.8-50.2,56c-5.3,8.5-9.8,17.2-13.1,26.1c-1.6,4.2-2.7,8.2-2.6,12.4c0,8.2,5.5,13.7,13.7,13.5
			c1.2,0,2.2-0.1,3.4-0.5c8.7-2.7,16.9-7.3,24.6-12.9c7.4-5.5,13.8-12.1,19.1-19.8c1.3-2,2.6-3.9,3.5-6.1c0.5-1.2,1.3-1.8,2.5-2
			c1.8-0.3,3.6-0.7,5.3-0.8c1.7-0.3,2.1,0.4,1.4,2c-1.2,2.5-2.9,4.7-4.3,7c-7.3,10.7-16.6,18.9-27.7,25.5
			c-7.5,4.5-15.3,7.9-23.4,9.5c-4.4,0.8-9,1.7-13.1,1.4c-8.1-0.8-13.1-4.6-14.7-12.2c-1-5.3,0.1-10.9,2.1-16.5
			c4-11.4,9.9-22.5,17-33c7.8-11.8,16.6-23,26.8-33.4c9.9-9.9,20.4-18.9,32.2-26.3c3-2,6.1-3.6,9.4-5.1c6.8-3.1,13.3-4,19.6-2.7
			c1.9,0.4,3.8,0.6,5.7,1c7.9,1.8,11.4,7.3,10.3,16c-0.7,4.4-2.5,8.8-4.8,13c-4.5,8.7-10.7,16.5-17.6,23.8
			c-3.5,3.9-7.3,7.5-11.6,10.8c-1.6,1-3.1,2.2-4.8,3.3c-4.8,3.1-9.9,4.4-15.1,4.5c-1.2,0.1-2.3,0-3.5,0v0.1
			C157.7,77.7,156.7,77.7,155.5,77.7z"/>
		<path d="M207.7,72.2c5.6-5.7,11.4-11.2,17.8-16c2.3-1.8,4.8-3.4,7.4-4.8c1.8-0.9,3.5-1.3,5.1-0.5c0.5,0.3,1.3,0.4,1.8,0.5
			c1.3,0.4,1.6,1.3,1.3,2.6s-0.8,2.5-1.4,3.6c-2.6,4.9-6,9.6-9,14.6c-3.8,6.2-7.3,12.5-9.9,19c-0.6,1.6-1,3.1-1.3,4.6
			c0,0.3-0.1,0.6,0.1,0.8c0.3,0.1,0.6-0.1,0.9-0.4c2.2-2,4.6-4,6.6-6.1c4.8-4.7,9.6-9.4,14.3-14.2c0.6-0.5,1.2-1.2,2.1-1.3
			c0.9,0,1.2,0.5,0.6,1.3c-0.4,0.5-0.8,1-1.2,1.4c-5.2,5.6-10.3,11.2-15.5,16.6c-1.3,1.4-2.7,2.7-4.3,3.9c-2.7,2.1-5.3,2.1-7.9,1.4
			c-1.2-0.3-1.6-1.4-1.6-2.6c-0.3-2.6,0.3-5.2,1.2-7.9c2.1-5.3,4.9-10.5,8.1-15.7c2.9-4.6,5.7-9.1,8.6-13.8c0.6-0.9,1.3-2,1.8-3.2
			c-1.2,0.3-1.9,0.9-2.7,1.4c-3.2,2.5-6.4,5.1-9.5,7.8c-9.8,8.6-18.2,18.1-26.3,28c-1.2,1.4-2.3,2.9-3.2,4.5
			c-0.8,1.3-1.7,1.8-3.1,1.7c-3.5,0-3.6-0.3-2-3.6c7.4-14.6,15.6-28.9,23.5-43.2c6-11.1,12.2-22,18.3-32.9c0.6-1.2,1.3-2.3,2.2-3.5
			c0.8-1.2,1.3-1.3,2.2-0.8c4.2,2.5,4,1.9,1.6,6.5c-9.1,16.6-18.3,33.2-27.7,49.8c-0.4,0.6-0.9,1.3-0.9,2.2
			C206.6,73.4,207.1,72.7,207.7,72.2z"/>
		<path d="M274.6,56.4c0.5-0.9,1.2-2,2-3c1-1.3,1.6-1.6,2.9-0.9c0.9,0.4,1.8,0.9,2.7,1.4c1.4,0.8,1.6,1.3,0.8,3.1
			c-0.8,1.6-1.6,3-2.5,4.6c-3.9,6.4-7.9,12.7-11.1,19.2c-2.2,4.4-4.2,8.8-5.1,13.4c-0.1,0.8-0.8,2,0.1,2.3c0.8,0.3,1.6-0.8,2.2-1.4
			c3.4-3,6.5-6.4,9.6-9.6c2.9-3.1,5.7-6.1,8.5-9.2c0.3-0.3,0.5-0.5,0.8-0.8c0.7-0.4,1.3-0.6,1.8-0.1c0.4,0.4,0,1-0.4,1.4
			c-1.7,2.1-3.5,4.2-5.2,6.2c-3.1,3.4-6.1,6.9-9.1,10.4c-1.4,1.6-2.9,3-4.6,4.3c-2.7,2.1-5.6,2.2-8.3,1.7c-1.3-0.3-1.8-1.4-2.1-2.6
			c-0.4-2.3-0.1-4.7,0.6-7.1c0.5-2.1,0.9-4.2,2-6.2c-0.7,0-0.9,0.5-1.3,0.8c-4.2,4.2-8.3,8.2-12.5,12.2c-3.2,3-6.4,3.3-9.6,2.6
			c-1.4-0.3-2-1.4-2.1-2.7c-0.3-1.8-0.1-3.8,0.4-5.7c2.7-11.4,7.9-22.1,16.3-31.9c1.2-1.3,2.5-2.6,3.8-3.8c2.6-2.2,5.9-4,9.4-2.3
			c0.6,0.3,1.3,0.5,1.8,0.8c2.7,1.2,4,3.4,4,6.5c0.1,0.8,0,1.7,0,2.6c0.1,0,0.3,0,0.4,0C272,60.4,273.3,58.4,274.6,56.4z M241.6,93
			c-0.1,0.7-0.7,1.6,0,2c0.6,0.3,1.3-0.7,2-1.2c5.7-4.7,11.1-9.9,16.4-15c2.3-2.2,4.6-4.6,4.8-7.5c0-0.1,0-0.1,0-0.3
			c1.4-3.9,1.8-7.7,1.7-11.4c0-1.3-0.3-2.5-0.8-3.4c-0.8-1.3-1.4-1.4-3-0.6c-0.8,0.4-1.4,0.8-2,1.3c-1.2,1-2.2,2.2-3.1,3.4
			c-7.7,9.4-12.5,19.5-15.5,30.3C242,91.3,241.7,92.1,241.6,93z"/>
		<path d="M303.9,61.6c3.6-3.4,7.4-6.6,12-8.7c0.9-0.5,2-0.9,2.9-1.3c1.8-0.6,3.5-0.8,5.1,0c0.8,0.4,1.6,0.7,2.3,1
			c1.6,0.7,2.3,3.5,1.3,5.3c-0.4,0.7-0.8,0.9-1.4,0.8c-1-0.3-2.3-0.5-2.5-1.8c-0.4-2.5-0.6-2.6-3.9-1.3c-4.7,2-8.7,4.9-12.5,8.3
			c-9.4,8.3-17.3,17.7-24.3,27.7c-1.3,1.7-2.5,3.5-3.5,5.3c-0.8,1.4-1.7,1.9-3.1,1.9c-3.4,0.3-3.6-0.1-2.2-3.4
			c1.4-3.1,3.1-6.1,4.8-9.2c6-11.1,12.4-22.1,18.7-33c1.2-2,1.4-2.1,3.2-1.2c0.4,0.1,0.9,0.4,1.3,0.6c1.6,0.8,1.7,1.2,0.8,3
			c-1.3,3.1-2.9,6-4.6,9c-1.2,1.7-2.1,3.5-3.1,5.3c0,0,0.1,0.1,0.3,0.1C298.3,67.3,300.9,64.3,303.9,61.6z"/>
		<path d="M320,81.3c3-6.5,6.4-12.9,9.8-19.2c4.8-8.7,9.8-17.4,14.6-26.1c3.4-6.1,7-12.1,10.7-17.9c2.1-3.4,2.2-3.4,5.1-1.8
			c0.4,0.3,0.6,0.4,1,0.7c0.6,0.4,0.8,1,0.4,1.8c-0.4,0.6-0.6,1.3-1,2c-6.5,11.8-13.1,23.4-19.9,35.1c-5.3,9.5-11.1,19-15.6,28.9
			c-1.2,2.3-2.1,4.7-3,7c-0.4,1.2-0.6,2.2-0.8,3.4c0,0.4-0.1,1,0.3,1.2c0.5,0.3,0.9-0.4,1.2-0.6c1.4-1.4,2.9-2.7,4.2-4.2
			c4.5-4.9,9.2-9.9,13.8-14.8c0.5-0.5,0.9-1,1.4-1.6s1-0.8,1.7-0.8c1,0,1.3,0.4,0.7,1.3c-1.3,1.6-2.5,3-3.8,4.4
			c-3.5,4.2-7.2,8.3-10.5,12.5c-1.6,2-3.4,3.8-5.3,5.5c-2.3,2.1-4.8,1.9-7.3,1.4c-1.2-0.3-1.6-1.3-1.7-2.3c-0.3-1.8-0.1-3.6,0.3-5.7
			C316.9,87.9,318.4,84.7,320,81.3z"/>
		<path d="M370.8,83c3.2-1.4,6.2-3,9.4-4.8c1-0.7,2.2-1.4,3.2-2.3c0.5-0.3,0.9-0.8,1.4-0.8c0.7-0.1,1.4-0.4,1.7,0.3
			c0.3,0.5-0.4,0.9-0.8,1.3c-0.8,0.8-1.6,1.4-2.5,2.1c-3.1,2.1-6.4,3.8-9.6,5.6c-2.6,1.3-5.2,2.1-7.8,2.2c-1.4,0.1-2.2,0.6-3.1,1.8
			c-1.8,2.5-4,4.8-6.4,6.9c-1.3,1.3-2.7,2.5-4.3,3.4c-2.1,1.2-4.3,2-6.5,1.7c-1-0.1-2.1-0.1-3.1-0.1c-4.2,0-6.4-2.2-7.4-5.6
			c-0.6-2-0.6-4-0.1-6.2c0.8-4.4,2.6-8.6,5.1-12.6c1.2-2.1,2.5-4,3.8-5.9c0.6-1,1.3-2.1,2.5-2.6c0.8-0.4,1-1.2,1.3-1.8
			c1.6-3.5,3.8-6.6,6.8-9.2c3-2.7,6.4-4.3,10-4.7c0.6-0.1,1.3,0,2,0.1c1.6,0.3,3.1,0.8,4.7,1.3c3,1.2,4.5,3.5,4.5,6.9
			c0.1,3.6-0.6,7.4-2.3,11.2c-1.8,3.9-3.9,7.7-6.2,11.4c-0.3,0.5-0.9,1-0.8,2C367.8,84.3,369.4,83.7,370.8,83z M342.2,91.2
			c-0.1,1.8,0.3,3.6,1.2,5.1c0.9,1.4,1.6,1.6,3.4,0.5c1.4-0.9,2.7-2.1,3.9-3.1c2.1-1.8,4-3.6,5.9-5.7c1.4-1.7,1.4-1.8-0.3-2.5
			c-1.3-0.5-2.5-1-3.5-1.8c-2.2-1.7-4.2-3.5-5.7-6.2C344.4,82.2,342.7,86.6,342.2,91.2z M352.9,74.2c0.6,3.9,2.9,6.6,5.7,8.8
			c0.9,0.6,1.4,0.5,2.3-0.9c3.6-5.3,6.8-10.9,8.6-16.8c0.6-2.5,1.2-4.8,0.8-7c-0.9-4.3-2.1-4.9-6.6-2.5c-5.6,3.1-8.8,7.8-10.4,13.5
			C352.9,71,352.6,72.6,352.9,74.2z"/>
		<path d="M414.9,37.6c4.7-0.8,9.4-1.8,14-2.9c1.3-0.3,2.1-0.9,2.7-2.1c2.1-3.2,4.3-6.5,6.4-9.8c0.3-0.4,0.5-0.8,0.9-1.2
			c0.6-0.9,1.6-1.4,2.6-1.2c0.8,0.3,1.6,0.4,2.3,0.5c1.4,0.4,1.6,0.6,0.8,2.2c-1,2-2.1,3.9-3.3,5.9c-0.1,0.4-0.4,0.8-0.6,1
			c-0.1,0.5-0.6,0.9-0.4,1.3c0.3,0.5,0.9,0.1,1.4,0c6.6-1.7,13.3-3.5,19.9-5.3c8.3-2.2,16.8-4.4,25.1-5.6c4.9-0.8,9.8-0.8,14.4-0.3
			c1.7,0.3,3.2,0.8,4.7,1.4c0.9,0.4,1.7,0.9,2.1,1.8c1,1.7,2,3.5,2.9,5.3c0.6,1.2,0.5,1.8-0.3,2.3c-0.7,0.5-1.3,0.4-2-0.9
			c-0.5-1-1.3-1.7-2.5-2.1c-4.2-1.4-8.8-1.7-13.7-1.4c-10.1,0.6-20.4,3.1-30.6,5.7c-8.1,2-16.1,3.9-24.2,5.9c-1.4,0.4-2.3,1-3,2.3
			c-7.3,12-14.2,24.2-20,36.7c-3.1,6.8-5.9,13.5-7.4,20.4c-1,4-0.5,7.5,1,10.8c0.8,1.6,2.1,2.5,3.5,3.1c0.6,0.4,1.2,0.3,1.8-0.1
			c2.9-1.8,5.3-3.8,6.8-6.8c0.7-1.2,1.4-1.7,2.6-1.9c1.4-0.3,2.9-0.5,4.3-0.8c1.8-0.3,2.3,0.6,1.2,2.1c-4,5.1-8.6,9.2-15,10.1
			c-1.3,0.1-2.7,0.5-4.2,0.7c-3.9,0.5-6.6-0.9-8.3-3.6c-2.2-3.4-2.7-7.3-2-11.8c1.4-8.1,4.8-16.1,8.3-23.9c0.5-1.2,1.2-2.3,1.8-3.9
			c-0.8,0.5-1,1-1.4,1.6c-4.2,5.9-8.7,11.4-13.4,16.9c-1.8,2.2-3.8,4.2-5.9,6.1c-1.7,1.7-3.6,2.7-5.9,2.6c-0.7-0.1-1.3-0.1-2,0
			c-2.1,0.1-3-0.8-3.5-2.5c-0.6-2.6-0.4-5.3,0.4-8.2c1.6-5.9,4.4-11.4,7.2-17c3.8-7.4,8.3-14.6,12.5-21.8c0.5-0.9,1.2-2,1.7-2.9
			c1.3-2.3,1.3-2.3-1-2.5c-3.8,0-7.3-0.7-10.5-1.7c-3.1-0.9-5.9-2.5-7.9-4.8c-0.3-0.3-0.5-0.8-0.8-1.2c-0.1-0.3-0.1-0.5,0.1-0.8
			c0.3-0.3,0.5-0.3,0.7-0.1c0.3,0,0.4,0.1,0.5,0.3c3.6,2.6,8.5,3.1,13.3,3.5c2.6,0.1,5.2,0.1,7.8,0c2.2,0,2.2,0,3.4-2.1
			c3.9-7,8.5-13.8,12.9-20.7c0.3-0.3,0.5-0.6,0.8-1c1.2-1.7,1.6-1.8,3.2-1.2c0.4,0.3,0.9,0.4,1.3,0.5c1.6,0.8,1.8,1.2,0.8,3
			c-1.8,3.1-3.6,6.1-5.5,9.2c-2,3.1-3.8,6.2-5.7,9.4c-0.3,0.5-0.6,0.9-0.6,1.6C412.8,38.1,413.8,37.8,414.9,37.6z M423.6,41.5
			c-4.5,0.9-9,1.7-13.4,2.1c-1.8,0.1-2.9,0.8-3.8,2.5c-2.7,4.8-5.6,9.6-8.3,14.6C393,69.3,388.2,78,385,87.1
			c-0.8,2.3-1.6,4.8-1.4,7.2c0,1.2,0.4,1.2,1.3,0.4c1.3-1.3,2.7-2.6,3.9-4c13.5-15.1,25-31.2,36.4-47.5c0.3-0.5,0.8-1,0.6-1.8
			C425.1,41.1,424.4,41.4,423.6,41.5z"/>
		<path d="M428,99.8c-6,0.1-8.6-3.2-8.5-8.8c0.1-3.9,1.4-7.7,3.2-11.4c3.9-8.5,9.4-16,16.6-22.4c2.9-2.5,5.9-4.6,9.5-5.5
			c2.2-0.4,4.2-0.3,5.9,0.7c0.9,0.5,1.7,1,2.6,1.4c3.9,1.6,5.2,5.9,2.9,11.1c-1,2.2-2.6,4.4-4.4,6.2c-4,3.8-8.5,6.6-13.5,8.3
			c-3.5,1.2-6.9,1.4-10,0.6c-1.7-0.4-1.8-0.3-2.7,1.4c-1.4,3-2.3,6.1-2.7,9.2c-0.4,2.2,0,4.2,1.2,5.8c0.9,1.2,2.2,1.4,3.9,0.8
			c2.2-0.6,4.3-1.7,6.2-2.9c5.9-3.2,11.3-7.1,16.6-11c3.4-2.5,6.8-4.9,10-7.5c0.3-0.3,0.5-0.5,0.9-0.6c0.6-0.3,1.4-0.4,1.8,0.1
			s-0.3,1-0.6,1.6c-0.6,0.5-1.2,1-1.7,1.6c-7,6.1-14.6,11.4-22.1,16.6c-2,1.3-4,2.3-6.2,3.2c-2.6,1.2-5.2,1.6-7.4,1.4
			C428.7,99.8,428.3,99.8,428,99.8z M454.7,57.8c0.4-2.3,0-2.6-2.3-1.7c-2.2,0.9-4.3,2.2-6.2,3.8c-5.5,4.2-9.6,9.4-13,15.1
			c-0.4,0.5-1,1.2-0.6,1.6c0.3,0.7,1.2,0.3,1.8,0c6.4-1.4,11.7-5.2,16.1-10.4c2-2.2,3.5-4.8,4.2-7.5C454.5,58.3,454.7,58,454.7,57.8
			z"/>
	</g>
</svg>
