<?xml version="1.0" encoding="utf-8"?>
<svg version="1.1" xmlns="http://www.w3.org/2000/svg" xmlns:xlink="http://www.w3.org/1999/xlink" x="0px" y="0px"
	 viewBox="0 0 212.9 129.9">
	<path d="M91,23.3c-7.4-0.4-14.8,0.3-22.5,1.6c-11.1,2-21.8,5.7-32.2,11.7c-8.3,4.7-15.6,10.8-20.9,19c-2.5,3.8-4.3,7.7-5.3,11.8
		C7.1,78.8,11.7,86.7,21.4,90c2.2,0.7,4.5,1.3,7.2,1.3c0.5,0,1.6-0.1,1.3,0.7c-0.3,0.8-1.2,0.8-1.7,0.8c-1.4,0-2.7,0-4-0.3
		c-4.4-0.5-8.7-1.3-12.5-3.1c-7.8-4-11.3-10.5-10.1-20.2c1-7.8,4.7-14.8,10-21.6c4.6-5.6,10.1-10.1,16.1-14.2
		c14.2-9.4,29-14.4,44.5-16.5c7.7-1,15.1-0.9,22.6-0.6c5.1,0.1,10.3,0,15.5-0.6c4.9-0.6,9.8-1.8,14.7-3.1c2.7-0.6,5.5-1.8,8.2-3.1
		c2-1,3.9-2.3,5.6-3.9c0.8-0.8,1.4-1.7,2.1-2.7c0.9-1.8,1.7-2.1,3-1.2c2.1,1.6,4,3,6,4.6c1.7,1.4,1.7,2.3,0,4.5
		c-1.7,2.2-3.8,3.9-6.1,5.3c-3.6,2.2-7.5,3.6-11.4,4.7c-8.6,2.1-17.2,3.6-24.8,3.2C101.4,23.9,96.2,23.6,91,23.3z M60.2,77.6
		c4.2-0.5,8.2-0.5,12.1,0.1c1.8,0.3,3.1,1,3.9,2.6c0.5,0.8,1,1.7,1.4,2.6c0.3,0.4,0.4,0.9-0.1,1.3c-0.5,0.6-0.9,0.1-1.2-0.1
		c-1.4-1.3-3.2-1.6-5.2-1.6c-5.2-0.3-10.4,0.5-15.7,1.3c-1.4,0.1-2.7,0.4-4,0.5c-1.2,0.1-1.8,0.7-2.3,1.7c-2.1,3.8-4.2,7.5-6.4,11.4
		c-5.2,9.2-10.4,18.5-15.9,27.6c-2.2,3.6-2.2,3.6-6,3.6c-0.8,0.1-1.6,0.1-2.3,0.1c-1.4-0.1-1.7-0.5-1.2-2c0.3-0.9,0.6-1.7,1-2.5
		c2.5-4.7,4.9-9.4,7.5-14c4.2-7.5,8.3-15,12.5-22.5c0.1-0.3,0.4-0.6,0.5-0.9c0.6-1.4,0.6-1.7-0.7-1.7c-4.2-0.3-5.9-3-7.7-5.9
		c-0.1,0-0.1-0.1-0.1-0.3c-0.1-0.4-0.1-0.8,0.3-1c0.5-0.4,0.8-0.3,1,0c0.6,0.7,1.2,1.3,2.1,1.6c2.5,0.6,5.2,0.4,7.8,0.1
		c1.2,0,1.7-0.8,2.2-1.7c2.6-4.8,5.3-9.6,7.9-14.3C58.2,52.2,64.4,40.6,71.3,29c2.6-4.4,3-3.4,5.6-2.2c0.8,0.4,1.6,0.8,2.3,1.2
		c1.2,0.6,1.3,1.2,0.5,2.6c-1.2,2.3-2.3,4.7-3.5,6.9c-7,12.9-14.4,25.6-21.6,38.5c-0.4,0.6-0.9,1.4-1.2,2.5
		C55.9,78.2,58.1,77.9,60.2,77.6z"/>
	<path d="M93.4,96.2c-6,0.1-8.6-3.2-8.5-8.8c0.1-3.9,1.4-7.7,3.2-11.4c3.9-8.5,9.4-16,16.6-22.4c2.9-2.5,5.8-4.6,9.5-5.5
		c2.2-0.4,4.2-0.3,5.8,0.7c0.9,0.5,1.7,1,2.6,1.4c3.9,1.6,5.2,5.9,2.9,11.1c-1,2.2-2.6,4.4-4.4,6.2c-4,3.8-8.5,6.6-13.5,8.3
		c-3.5,1.2-6.9,1.4-10,0.6c-1.7-0.4-1.8-0.3-2.7,1.4c-1.4,3-2.3,6.1-2.7,9.2c-0.4,2.2,0,4.2,1.2,5.8c0.9,1.2,2.2,1.4,3.9,0.8
		c2.2-0.6,4.3-1.7,6.2-2.9c5.9-3.2,11.3-7.1,16.6-11c3.4-2.5,6.8-4.9,10-7.5c0.3-0.3,0.5-0.5,0.9-0.6c0.6-0.3,1.4-0.4,1.8,0.1
		c0.4,0.5-0.3,1-0.7,1.6c-0.7,0.5-1.2,1-1.7,1.6c-7,6.1-14.6,11.4-22.1,16.6c-2,1.3-4,2.3-6.2,3.2c-2.6,1.2-5.2,1.6-7.4,1.4
		C94.1,96.2,93.7,96.2,93.4,96.2z M120.1,54.2c0.4-2.3,0-2.6-2.3-1.7c-2.2,0.9-4.3,2.2-6.2,3.8c-5.5,4.2-9.6,9.4-13,15.1
		c-0.4,0.5-1,1.2-0.6,1.6c0.3,0.7,1.2,0.3,1.8,0c6.4-1.4,11.7-5.2,16.1-10.4c2-2.2,3.5-4.8,4.2-7.5C120,54.8,120.1,54.5,120.1,54.2z
		 M111.6,41.4c-0.5-0.4-0.1-0.9,0.4-1.4c0.6-0.5,1.4-0.6,2.1-0.9c8.6-2.5,14.8-8.2,19.8-15.7c0.7-0.9,1.2-2.1,1.6-3.1
		c0.5-1.2,1.3-1.4,2.1-0.6c1.2,1,2.2,2.2,3.4,3.4c0.8,0.8,0.8,2,0.4,3.1c-0.4,0.9-0.8,1.8-1.3,2.6c-5.7,8.5-13.5,13.3-22.9,15.1
		c-0.3,0-0.5,0-0.9,0C114.2,43.6,112.9,42.4,111.6,41.4z"/>
	<path d="M126.6,77.8c3-6.5,6.4-12.9,9.8-19.2c4.8-8.7,9.8-17.4,14.6-26.1c3.4-6.1,7-12.1,10.7-17.9c2.1-3.4,2.2-3.4,5.1-1.8
		c0.4,0.3,0.7,0.4,1,0.7c0.7,0.4,0.8,1,0.4,1.8c-0.4,0.6-0.7,1.3-1,2c-6.5,11.8-13.1,23.4-19.9,35.1c-5.3,9.5-11.1,19-15.6,28.9
		c-1.2,2.3-2.1,4.7-3,7c-0.4,1.2-0.7,2.2-0.8,3.4c0,0.4-0.1,1,0.3,1.2c0.5,0.3,0.9-0.4,1.2-0.6c1.4-1.4,2.9-2.7,4.2-4.2
		c4.6-4.9,9.2-9.9,13.8-14.8c0.5-0.5,0.9-1,1.4-1.6s1-0.8,1.7-0.8c1,0,1.3,0.4,0.6,1.3c-1.3,1.6-2.5,3-3.8,4.4
		c-3.5,4.2-7.2,8.3-10.5,12.5c-1.6,2-3.4,3.8-5.3,5.5c-2.3,2.1-4.8,1.9-7.3,1.4c-1.2-0.3-1.6-1.3-1.7-2.3c-0.3-1.8-0.1-3.6,0.3-5.7
		C123.5,84.4,125,81.2,126.6,77.8z"/>
	<path d="M147.6,70.5c3.4-6.5,7-13,11.2-19.2c2-3.1,2.2-3.2,4.8-1.8c0.6,0.4,1.3,0.6,1.9,1c1.2,0.6,1.3,1.2,0.7,2.6
		c-0.7,1.7-1.7,3.2-2.6,4.9c-3.9,6.4-7.9,12.7-11.1,19.2c-2.2,4.6-4.3,9.1-5.1,13.8c-0.1,0.6-0.7,1.6,0,1.9c0.8,0.4,1.6-0.6,2.1-1.2
		c3.5-3.1,6.8-6.5,9.9-9.9c2.9-3.1,5.7-6.1,8.6-9.2c0.3-0.3,0.4-0.5,0.6-0.8c0.7-0.4,1.4-0.6,1.8-0.1c0.4,0.4,0,1-0.4,1.4
		c-1.8,2.1-3.5,4.3-5.3,6.4c-3,3.4-6,6.9-9,10.3c-1.3,1.6-2.9,3-4.5,4.3c-2.7,2.1-5.6,2.2-8.3,1.7c-1.3-0.3-1.8-1.6-2.1-2.9
		c-0.4-2.5,0.1-5.2,0.9-8.1C143.1,80.1,145.2,75.3,147.6,70.5z M170.9,31.4c1.3-1.6,1.8-1.7,3.4-1c1,0.4,2.1,0.9,3.1,1.3
		c1.2,0.6,1.2,0.9,0.4,2.3c-1,1.7-2.2,3.3-3.6,4.7c-1.2,1-2.3,2.1-2.6,3.8c-0.1,0.8-0.9,1-1.6,0.9c-1-0.3-2-0.5-2.9-1
		s-0.7-1.6-0.5-2.6C167.5,36.7,168.6,33.8,170.9,31.4z"/>
	<path d="M176.9,93.8c-1.2-2.3-1.7-4.8-2.2-7.3c-0.1-0.8,0.1-1.8-0.8-2c-0.8,0-1.3,1-1.8,1.6c-2.7,2.9-5.3,5.7-8.1,8.5
		c-1.4,1.3-3,1.6-4.3,0.8c-0.4-0.4-0.4-0.8,0-1.2c0.4-0.5,0.8-1,1.2-1.6c3.1-3.8,6.5-7.4,10-10.9c2-2,2.9-3.8,2.9-6.2
		c0-6.5,0.7-13.3,1.6-20c0.1-1.8,0.4-3.6,0.9-5.5c0.4-1.8,0.9-2.2,2.6-1.8c0.9,0.3,1.8,0.5,2.9,0.7c1.3,0.3,1.7,1,1.7,2.3
		c0,3.4-0.1,6.8-0.4,10.3c-0.1,2-0.3,4-0.4,6c0,0.5-0.3,1.2,0.4,1.3c0.5,0.1,0.9-0.5,1.3-0.9c2.2-2.2,4.4-4.5,6.6-6.8
		c3.6-3.9,7.5-7.7,11.3-11.4c0.3-0.3,0.5-0.4,0.8-0.6c0.1-0.1,0.3-0.4,0.5-0.4c1.9-0.9,2.2,0.8,3.2,1.4c0.8,0.4,0.5,1.2-0.1,2
		c-0.7,0.6-1.2,1.3-1.8,1.8c-6.1,6-12.4,12-18.5,17.9c-1.2,1-2.2,2.1-3.2,3.1c-0.5,0.6-0.8,1.2-0.8,1.8c0,3.9,0.1,7.9,0.8,11.7
		c0.1,1,0.4,2.2,0.9,3.1c0.8,1.3,1.4,1.4,2.9,0.3c2.9-2.1,5.5-4.5,8.2-7c4.3-4,8.7-8.1,13.1-12.2c0.9-0.8,1.8-1.4,2.9-1.6
		c0.5-0.1,0.6,0.3,0.4,0.7c-0.3,0.4-0.5,0.6-0.8,1c-5.9,5.6-11.6,11.3-17.3,16.9c-3.1,3.2-6.9,5.1-10.9,6.4
		c-0.5,0.1-1.2,0.3-1.6,0.3C178.8,96,177.7,95.2,176.9,93.8z"/>
</svg>
