<?xml version="1.0" encoding="utf-8"?>
<svg class="wedding_name_line" xmlns="http://www.w3.org/2000/svg" xmlns:xlink="http://www.w3.org/1999/xlink" x="0px" y="0px"
	 viewBox="0 0 759.1 252.2">
	<g class="wedding_name_decoration">
		<g class="wedding_name_rings">
			<path class="wedding_name_ring-charlotte" d="M358.4,246.5c-18.1,0-32.8-14.7-32.8-32.8c0-18.1,14.7-32.8,32.8-32.8c18.1,0,32.8,14.7,32.8,32.8
				C391.2,231.8,376.5,246.5,358.4,246.5z M358.4,191c-12.6,0-22.8,10.2-22.8,22.8c0,12.5,10.2,22.8,22.8,22.8s22.8-10.2,22.8-22.8
				C381.2,201.2,370.9,191,358.4,191z"/>
			<path class="wedding_name_ring-felix" d="M398.7,181c-6,0-11.6,1.6-16.5,4.5c2.6,2.2,5,4.8,6.9,7.7c2.9-1.4,6.2-2.1,9.6-2.1
				c12.6,0,22.8,10.2,22.8,22.8c0,12.5-10.2,22.8-22.8,22.8s-22.8-10.2-22.8-22.8c0-1.5,0.2-3,0.4-4.4c-1-4.2-3.5-7.9-6.9-10.4
				c-2.3,4.4-3.5,9.5-3.5,14.8c0,18.1,14.7,32.8,32.8,32.8s32.8-14.7,32.8-32.8C431.4,195.7,416.8,181,398.7,181z"/>
		</g>
		<path class="wedding_name_heart" d="M384.9,139.9c-2.4,0-4.6,0.9-6.3,2.3c-1.7-1.4-3.9-2.3-6.3-2.3c-5.4,0-9.8,4.4-9.8,9.8s16.1,17.3,16.1,17.3
			s16.1-11.9,16.1-17.3S390.3,139.9,384.9,139.9z"/>
		<g>
			<path d="M298.4,191.5c-77.8-45.2-137-0.4-137-0.4c19.7-14.6,43.8-23.9,68.6-24.2c6.2-0.1,12.4,0.3,18.6,1.1
				c12.3,1.7,24.2,6.1,35,12.2c5.4,3.1,10.5,6.6,15,10.8C298.7,191.1,298.4,191.5,298.4,191.5L298.4,191.5z"/>
			<path d="M31,155.8c-0.2,12.7,5.8,26.8,18.4,31.5c11.7,4.5,26.3,2.6,37.8-1.7c12.3-4.8,21.4-14.2,31.4-22.7
				c10-8.8,22.2-16.9,35.9-17.4c0,0,0.1,0.5,0.1,0.5c-6.4,1.8-12.3,4.5-17.6,8.2c-5.4,3.7-10.2,8-15,12.5
				c-9.6,9.2-20.5,18.2-33.3,22.7c-6.5,2.3-13.3,3.4-20,3.6c-13.9,0.7-28-4.1-34.4-17.5C28.7,164,31,155.8,31,155.8L31,155.8z"/>
			<path d="M269.5,148.4c-50.6-19.1-111.1-1.8-150.5,34.8c-7.8,7.1-16.8,13.3-26.5,16.9c0,0-2.4,0.9-2.4,0.9
				c-1.4,0.4-3.5,1.1-4.8,1.5c-2.3,0.6-5,1.1-7.4,1.4c-0.7,0.1-1.8,0.3-2.5,0.3c-28.4,3-51.3-15.1-56.6-43c-0.8-4.1-1.2-8.3-1.3-12.6
				c0-0.4,0-0.8,0-1.2c0-0.7,0-1.4,0-2.1c0.4-6.9,4.1-12.4,4.1-12.4c-8.7,3.3-12-8-12-8s-11.2,38.7,11.7,71.7
				c0.1,0.1,0.1,0.2,0.2,0.3c0,0.1,0.1,0.1,0.1,0.2l0,0C37,219.3,66.7,227.9,93,218.4c12-4.1,23-11.8,31.9-20.4c2-2,6.1-6.2,8.1-8.2
				c24.2-23.1,56.9-36.7,90.1-39.5c29.7-2.6,62.1,3.6,84.7,24.2C307.9,174.3,294.4,157.8,269.5,148.4z"/>
		</g>
		<g>
			<path d="M458.6,155.6c77.8,45.2,137,0.4,137,0.4c-19.7,14.6-43.8,23.9-68.6,24.2c-6.2,0.1-12.4-0.3-18.6-1.1
				c-12.3-1.7-24.2-6.1-35-12.2c-5.4-3.1-10.5-6.6-15-10.8C458.3,156,458.6,155.6,458.6,155.6L458.6,155.6z"/>
			<path d="M726.1,191.4c0.2-12.7-5.8-26.8-18.4-31.5c-11.7-4.5-26.3-2.6-37.8,1.7c-12.3,4.8-21.4,14.2-31.4,22.7
				c-10,8.8-22.2,16.9-35.9,17.4c0,0-0.1-0.5-0.1-0.5c6.4-1.8,12.3-4.5,17.6-8.2c5.4-3.7,10.2-8,15-12.5c9.6-9.2,20.5-18.2,33.3-22.7
				c6.5-2.3,13.3-3.4,20-3.6c13.9-0.7,28,4.1,34.4,17.5C728.4,183.1,726.1,191.4,726.1,191.4L726.1,191.4z"/>
			<path d="M487.6,198.7c50.6,19.1,111.1,1.8,150.5-34.8c7.8-7.1,16.8-13.3,26.5-16.9c0,0,2.4-0.9,2.4-0.9c1.4-0.4,3.5-1.1,4.8-1.5
				c2.3-0.6,5-1.1,7.4-1.4c0.7-0.1,1.8-0.3,2.5-0.3c28.4-3,51.3,15.1,56.6,43c0.8,4.1,1.2,8.3,1.3,12.6c0,0.4,0,0.8,0,1.2
				c0,0.7,0,1.4,0,2.1c-0.4,6.9-4.1,12.4-4.1,12.4c8.7-3.3,12,8,12,8s11.2-38.7-11.7-71.7c-0.1-0.1-0.1-0.2-0.2-0.3
				c0-0.1-0.1-0.1-0.1-0.2l0,0c-15.5-22.2-45.2-30.8-71.5-21.3c-12,4.1-23,11.8-31.9,20.4c-2,2-6.1,6.2-8.1,8.2
				c-24.2,23.1-56.9,36.7-90.1,39.5c-29.7,2.6-62.1-3.6-84.7-24.2C449.2,172.8,462.6,189.3,487.6,198.7z"/>
		</g>
	</g>
	<g class="wedding_name_felix">
		<path d="M603.4,29.6c-7.4-0.4-14.8,0.3-22.5,1.6c-11.1,2-21.8,5.7-32.2,11.7c-8.3,4.7-15.6,10.8-20.9,19c-2.5,3.8-4.3,7.7-5.3,11.8
			c-3,11.4,1.6,19.3,11.3,22.6c2.2,0.7,4.5,1.3,7.2,1.3c0.5,0,1.6-0.1,1.3,0.7c-0.3,0.8-1.2,0.8-1.7,0.8c-1.4,0-2.7,0-4-0.3
			c-4.4-0.5-8.7-1.3-12.5-3.1c-7.8-4-11.3-10.5-10.1-20.2c1-7.8,4.7-14.8,10-21.6c4.6-5.6,10.1-10.1,16.1-14.2
			c14.2-9.4,29-14.4,44.5-16.5c7.7-1,15.1-0.9,22.6-0.6c5.1,0.1,10.3,0,15.5-0.6c4.9-0.6,9.8-1.8,14.7-3.1c2.7-0.6,5.5-1.8,8.2-3.1
			c2-1,3.9-2.3,5.6-3.9c0.8-0.8,1.4-1.7,2.1-2.7c0.9-1.8,1.7-2.1,3-1.2c2.1,1.6,4,3,6,4.6c1.7,1.4,1.7,2.3,0,4.5s-3.8,3.9-6.1,5.3
			c-3.6,2.2-7.5,3.6-11.4,4.7c-8.6,2.1-17.2,3.6-24.8,3.2C613.8,30.2,608.6,29.9,603.4,29.6z M572.6,83.9c4.2-0.5,8.2-0.5,12.1,0.1
			c1.8,0.3,3.1,1,3.9,2.6c0.5,0.8,1,1.7,1.4,2.6c0.3,0.4,0.4,0.9-0.1,1.3c-0.5,0.6-0.9,0.1-1.2-0.1c-1.4-1.3-3.2-1.6-5.2-1.6
			c-5.2-0.3-10.4,0.5-15.7,1.3c-1.4,0.1-2.7,0.4-4,0.5c-1.2,0.1-1.8,0.7-2.3,1.7c-2.1,3.8-4.2,7.5-6.4,11.4
			c-5.2,9.2-10.4,18.5-15.9,27.6c-2.2,3.6-2.2,3.6-6,3.6c-0.8,0.1-1.6,0.1-2.3,0.1c-1.4-0.1-1.7-0.5-1.2-2c0.3-0.9,0.6-1.7,1-2.5
			c2.5-4.7,4.9-9.4,7.5-14c4.2-7.5,8.3-15,12.5-22.5c0.1-0.3,0.4-0.6,0.5-0.9c0.6-1.4,0.6-1.7-0.7-1.7c-4.2-0.3-5.9-3-7.7-5.9
			c-0.1,0-0.1-0.1-0.1-0.3c-0.1-0.4-0.1-0.8,0.3-1c0.5-0.4,0.8-0.3,1,0c0.6,0.7,1.2,1.3,2.1,1.6c2.5,0.6,5.2,0.4,7.8,0.1
			c1.2,0,1.7-0.8,2.2-1.7c2.6-4.8,5.3-9.6,7.9-14.3c6.6-11.4,12.8-23,19.7-34.6c2.6-4.4,3-3.4,5.6-2.2c0.8,0.4,1.6,0.8,2.3,1.2
			c1.2,0.6,1.3,1.2,0.5,2.6c-1.2,2.3-2.3,4.7-3.5,6.9c-7,12.9-14.4,25.6-21.6,38.5c-0.4,0.6-0.9,1.4-1.2,2.5
			C568.3,84.5,570.5,84.2,572.6,83.9z"/>
		<path d="M645.2,78c-0.4-0.5-1.2-0.4-1.8-0.1c-0.4,0.1-0.6,0.3-0.9,0.6c-3.2,2.6-6.6,5-10,7.5c-5.3,3.9-10.7,7.8-16.6,11
			c-1.9,1.2-4,2.3-6.2,2.9c-1.7,0.6-3,0.4-3.9-0.8c-1.2-1.6-1.6-3.6-1.2-5.8c0.4-3.1,1.3-6.2,2.7-9.2c0.9-1.7,1-1.8,2.7-1.4
			c3.1,0.8,6.5,0.6,10-0.6c5-1.7,9.5-4.5,13.5-8.3c1.8-1.8,3.4-4,4.4-6.2c2.3-5.2,1-9.5-2.9-11.1c-0.9-0.4-1.7-0.9-2.6-1.4
			c-1.6-1-3.6-1.1-5.8-0.7c-3.7,0.9-6.6,3-9.5,5.5c-7.2,6.4-12.7,13.9-16.6,22.4c-1.8,3.7-3.1,7.5-3.2,11.4c-0.1,5.6,2.5,8.9,8.5,8.8
			c0.3,0,0.7,0,1.3-0.1c2.2,0.2,4.8-0.2,7.4-1.4c2.2-0.9,4.2-1.9,6.2-3.2c7.5-5.2,15.1-10.5,22.1-16.6c0.5-0.6,1-1.1,1.7-1.6
			C644.9,79,645.6,78.5,645.2,78z M611,77.7c3.4-5.7,7.5-10.9,13-15.1c1.9-1.6,4-2.9,6.2-3.8c2.3-0.9,2.7-0.6,2.3,1.7
			c0,0.3-0.1,0.6,0,0.9c-0.7,2.7-2.2,5.3-4.2,7.5c-4.4,5.2-9.7,9-16.1,10.4c-0.6,0.3-1.5,0.7-1.8,0C610,78.9,610.6,78.2,611,77.7z"/>
		<path d="M624,47.7c-0.5-0.4-0.1-0.9,0.4-1.4c0.6-0.5,1.4-0.6,2.1-0.9c8.6-2.5,14.8-8.2,19.8-15.7c0.7-0.9,1.2-2.1,1.6-3.1
			c0.5-1.2,1.3-1.4,2.1-0.6c1.2,1,2.2,2.2,3.4,3.4c0.8,0.8,0.8,2,0.4,3.1c-0.4,0.9-0.8,1.8-1.3,2.6c-5.7,8.5-13.5,13.3-22.9,15.1
			c-0.3,0-0.5,0-0.9,0C626.6,49.9,625.3,48.7,624,47.7z"/>
		<path d="M639,84.1c3-6.5,6.4-12.9,9.8-19.2c4.8-8.7,9.8-17.4,14.6-26.1c3.4-6.1,7-12.1,10.7-17.9c2.1-3.4,2.2-3.4,5.1-1.8
			c0.4,0.3,0.7,0.4,1,0.7c0.7,0.4,0.8,1,0.4,1.8c-0.4,0.6-0.7,1.3-1,2c-6.5,11.8-13.1,23.4-19.9,35.1c-5.3,9.5-11.1,19-15.6,28.9
			c-1.2,2.3-2.1,4.7-3,7c-0.4,1.2-0.7,2.2-0.8,3.4c0,0.4-0.1,1,0.3,1.2c0.5,0.3,0.9-0.4,1.2-0.6c1.4-1.4,2.9-2.7,4.2-4.2
			c4.6-4.9,9.2-9.9,13.8-14.8c0.5-0.5,0.9-1,1.4-1.6s1-0.8,1.7-0.8c1,0,1.3,0.4,0.6,1.3c-1.3,1.6-2.5,3-3.8,4.4
			c-3.5,4.2-7.2,8.3-10.5,12.5c-1.6,2-3.4,3.8-5.3,5.5c-2.3,2.1-4.8,1.9-7.3,1.4c-1.2-0.3-1.6-1.3-1.7-2.3c-0.3-1.8-0.1-3.6,0.3-5.7
			C635.9,90.7,637.4,87.5,639,84.1z"/>
		<path d="M660,76.8c3.4-6.5,7-13,11.2-19.2c2-3.1,2.2-3.2,4.8-1.8c0.6,0.4,1.3,0.6,1.9,1c1.2,0.6,1.3,1.2,0.7,2.6
			c-0.7,1.7-1.7,3.2-2.6,4.9c-3.9,6.4-7.9,12.7-11.1,19.2c-2.2,4.6-4.3,9.1-5.1,13.8c-0.1,0.6-0.7,1.6,0,1.9c0.8,0.4,1.6-0.6,2.1-1.2
			c3.5-3.1,6.8-6.5,9.9-9.9c2.9-3.1,5.7-6.1,8.6-9.2c0.3-0.3,0.4-0.5,0.6-0.8c0.7-0.4,1.4-0.6,1.8-0.1c0.4,0.4,0,1-0.4,1.4
			c-1.8,2.1-3.5,4.3-5.3,6.4c-3,3.4-6,6.9-9,10.3c-1.3,1.6-2.9,3-4.5,4.3c-2.7,2.1-5.6,2.2-8.3,1.7c-1.3-0.3-1.8-1.6-2.1-2.9
			c-0.4-2.5,0.1-5.2,0.9-8.1C655.5,86.4,657.6,81.6,660,76.8z"/>
		<path d="M683.3,37.7c1.3-1.6,1.8-1.7,3.4-1c1,0.4,2.1,0.9,3.1,1.3c1.2,0.6,1.2,0.9,0.4,2.3c-1,1.7-2.2,3.3-3.6,4.7
			c-1.2,1-2.3,2.1-2.6,3.8c-0.1,0.8-0.9,1-1.6,0.9c-1-0.3-2-0.5-2.9-1c-0.9-0.5-0.7-1.6-0.5-2.6C679.9,43,681,40.1,683.3,37.7z"/>
		<path d="M689.3,100.1c-1.2-2.3-1.7-4.8-2.2-7.3c-0.1-0.8,0.1-1.8-0.8-2c-0.8,0-1.3,1-1.8,1.6c-2.7,2.9-5.3,5.7-8.1,8.5
			c-1.4,1.3-3,1.6-4.3,0.8c-0.4-0.4-0.4-0.8,0-1.2c0.4-0.5,0.8-1,1.2-1.6c3.1-3.8,6.5-7.4,10-10.9c2-2,2.9-3.8,2.9-6.2
			c0-6.5,0.7-13.3,1.6-20c0.1-1.8,0.4-3.6,0.9-5.5c0.4-1.8,0.9-2.2,2.6-1.8c0.9,0.3,1.8,0.5,2.9,0.7c1.3,0.3,1.7,1,1.7,2.3
			c0,3.4-0.1,6.8-0.4,10.3c-0.1,2-0.3,4-0.4,6c0,0.5-0.3,1.2,0.4,1.3c0.5,0.1,0.9-0.5,1.3-0.9c2.2-2.2,4.4-4.5,6.6-6.8
			c3.6-3.9,7.5-7.7,11.3-11.4c0.3-0.3,0.5-0.4,0.8-0.6c0.1-0.1,0.3-0.4,0.5-0.4c1.9-0.9,2.2,0.8,3.2,1.4c0.8,0.4,0.5,1.2-0.1,2
			c-0.7,0.6-1.2,1.3-1.8,1.8c-6.1,6-12.4,12-18.5,17.9c-1.2,1-2.2,2.1-3.2,3.1c-0.5,0.6-0.8,1.2-0.8,1.8c0,3.9,0.1,7.9,0.8,11.7
			c0.1,1,0.4,2.2,0.9,3.1c0.8,1.3,1.4,1.4,2.9,0.3c2.9-2.1,5.5-4.5,8.2-7c4.3-4,8.7-8.1,13.1-12.2c0.9-0.8,1.8-1.4,2.9-1.6
			c0.5-0.1,0.6,0.3,0.4,0.7c-0.3,0.4-0.5,0.6-0.8,1c-5.9,5.6-11.6,11.3-17.3,16.9c-3.1,3.2-6.9,5.1-10.9,6.4
			c-0.5,0.1-1.2,0.3-1.6,0.3C691.2,102.3,690.1,101.5,689.3,100.1z"/>
	</g>
	<g class="wedding_name_ampersand">
		<path d="M456.2,69.7c-0.9-1.9-0.9-3.9-0.1-6.2c1.4-4.2,4.3-7.1,8.4-9c1.7-0.8,3.5-1,5.1-0.6c1.4,0.4,2.7,1.1,3.7,2.1
			c0.8,0.8,1,1.9,0.9,3c-0.1,2-0.9,3.9-2.3,5.7c-1.3,1.6-2.7,3.2-4.5,4.3c-0.4,0.3-0.9,0.5-1.3,0.8c-0.9,0.3-1.7,0.5-2.5,0.3
			c-0.7-0.2-1.4-0.3-2.1-0.6c-1.3-0.4-1.9-1.8-1.3-3.2c0.1-0.5,0.3-0.9,0.6-1.2c0.3-0.5,0.5-0.5,0.9-0.4c0.6,0.1,1.2,0.3,1.9,0.5
			c0.5,0.1,0.5,0.3,0.3,0.8c-0.1,0.2-0.2,0.5-0.3,0.8c-0.2,0.5-0.3,1-0.3,1.6c0.1,0.4,0.1,0.5,0.6,0.3c0.3-0.1,0.8-0.3,1.1-0.5
			c2.1-1.4,4-3.2,5.4-5.4c0.9-1.5,1.3-3.1,1.4-4.7c0.1-0.8-0.1-1.4-0.4-2c-0.2-0.4-0.5-0.6-1-0.6c-1.1-0.1-2.2,0.1-3.3,0.5
			c-3.2,1.4-5.8,3.6-7.3,6.7c-1.6,3.5-1.3,6.6,1,8.9c0.2,0.2,0.3,0.3,0.5,0.5c0.2,0.2,0.3,0.3,0.1,0.7c-0.2,0.3-0.5,0.3-0.7,0.2
			c-1-0.2-2,0.3-3,0.8c-0.6,0.3-1.3,0.8-1.9,1.2c-2.7,1.9-4.3,4.3-5,7.1c-0.5,2,0,3.6,1.3,4.7c0.7,0.6,1.6,1,2.6,1.2
			c0.2,0,0.3,0,0.6,0c2.5-0.5,5-1.4,7.3-3.1c0.3-0.2,0.8-0.3,0.7-0.7c0-0.3-0.4-0.3-0.7-0.3c-0.8-0.2-1.7-0.2-2.6-0.2
			c-0.4,0.1-0.8,0.1-1.2,0.3c-0.5,0.2-0.9,0.5-1.2,1c-0.1,0.3-0.3,0.5-0.5,0.8c-0.3,0.3-0.5,0.5-0.8,0.2c-0.5-0.5-1.1-1.1-1.6-1.7
			c-0.3-0.5-0.2-1.1,0.2-1.7c0.3-0.6,0.9-1,1.5-1.3c1.4-0.6,2.7-0.7,4-0.5c1.4,0.2,2.6,0.9,3.6,1.9c0.5,0.5,0.5,0.8,1.3-0.2
			c1.4-1.4,2.6-3,3.4-4.7c0.8-1.6,1-3.2,0.5-4.6c-0.1-0.3-0.3-0.6-0.5-0.9c-0.3-0.3-0.5-0.3-1-0.1c-1.6,0.8-3,1.7-4.2,3
			c-0.7,0.8-1.1,1.6-1.2,2.6c-0.1,0.6-0.1,1.2,0.3,1.7c0.1,0.1,0.1,0.2,0.2,0.3c0.1,0.1,0.1,0.3,0,0.5c-0.2,0.2-0.3,0.3-0.6,0.3
			c-0.4-0.1-0.8-0.1-1.2-0.1c-0.4-0.1-0.8-0.1-1.3-0.1c-0.5-0.1-0.8-0.3-0.9-0.8c-0.5-1.3-0.2-2.7,0.6-4c0.5-0.8,1-1.5,1.9-2.1
			c1-0.8,2.1-1.6,3.2-2.1c1.2-0.5,2.3-0.8,3.4-0.5c0.6,0.1,1.3,0.2,1.9,0.3c2.6,0.4,3.4,2.6,3,4.7c-0.3,2.1-1.4,3.9-2.8,5.7
			c-0.9,1.2-1.9,2.3-3,3.2c-0.5,0.3-0.5,0.5-0.1,0.8c0.5,0.3,1,0.5,1.6,0.5c0.9,0.1,1.7-0.1,2.5-0.5c0.6-0.2,1.2-0.6,1.6-1.2
			c0.3-0.6,0.6-0.7,1-0.3c0.5,0.5,1.1,1.1,1.6,1.6c0.4,0.5,0.3,0.8-0.2,1.4c-0.3,0.3-0.6,0.5-1,0.7c-1.5,0.8-3,1.1-4.5,0.9
			c-0.9-0.1-1.6-0.5-2.3-1.1c-0.5-0.4-0.9-0.9-1.3-1.3c-0.4-0.4-0.4-0.4-1-0.1c-2.1,1.4-4.4,2.3-6.7,2.7c-0.5,0.1-1,0.1-1.5,0.1
			c-1.6,0-3.4,0.1-4.9-0.3c-2.1-0.5-3.6-1.6-4.1-3.7c-0.5-1.8-0.1-3.6,0.9-5.5c0.5-1,1.2-2,1.9-3c1-1.3,2.2-2.2,3.5-3.1
			c1.2-0.8,2.3-1.3,3.8-1.7C456.9,71,456.5,70.4,456.2,69.7z"/>
	</g>
	<g class="wedding_name_charlotte">
		<path d="M95.6,79.4c-3.6-0.1-6.2-1.7-7.9-4.4c-1-1.8-1-4-0.4-6.2c0.3-1.4,0.9-2,2.3-2c1.8,0,3.6,0,5.6,0c1,0,1.6,0.5,1.7,1.7
			c0,1,0,2.1,0.1,3.1c0.1,1.4,0.9,2.6,1.9,3.5c1.4,1.3,3.1,1.7,5.5,0.7c3.2-1.3,6.4-3,9.2-5.2c13.9-10.7,25-23.3,32.1-38.6
			c2.1-4.2,3-8.5,2.9-12.7c-0.1-4.7-2.6-7.7-6.5-9.4c-1.7-0.8-3.6-0.4-5.6-0.1c-4.2,0.8-8.3,2.5-12.4,4.7c-5.3,3-10.4,6.5-15.3,10.3
			c-20.3,15.9-36.7,34.8-50.2,56c-5.3,8.5-9.8,17.2-13.1,26.1c-1.6,4.2-2.7,8.2-2.6,12.4c0,8.2,5.5,13.7,13.7,13.5
			c1.2,0,2.2-0.1,3.4-0.5c8.7-2.7,16.9-7.3,24.6-12.9c7.4-5.5,13.8-12.1,19.1-19.8c1.3-2,2.6-3.9,3.5-6.1c0.5-1.2,1.3-1.8,2.5-2
			c1.8-0.3,3.6-0.7,5.3-0.8c1.7-0.3,2.1,0.4,1.4,2c-1.2,2.5-2.9,4.7-4.3,7c-7.3,10.7-16.6,18.9-27.7,25.5c-7.5,4.5-15.3,7.9-23.4,9.5
			c-4.4,0.8-9,1.7-13.1,1.4c-8.1-0.8-13.1-4.6-14.7-12.2c-1-5.3,0.1-10.9,2.1-16.5c4-11.4,9.9-22.5,17-33c7.8-11.8,16.6-23,26.8-33.4
			c9.9-9.9,20.4-18.9,32.2-26.3c3-2,6.1-3.6,9.4-5.1c6.8-3.1,13.3-4,19.6-2.7c1.9,0.4,3.8,0.6,5.7,1c7.9,1.8,11.4,7.3,10.3,16
			c-0.7,4.4-2.5,8.8-4.8,13c-4.5,8.7-10.7,16.5-17.6,23.8c-3.5,3.9-7.3,7.5-11.6,10.8c-1.6,1-3.1,2.2-4.8,3.3
			c-4.8,3.1-9.9,4.4-15.1,4.5c-1.2,0.1-2.3,0-3.5,0v0.1C97.8,79.4,96.8,79.4,95.6,79.4z"/>
		<path d="M147.8,73.9c5.6-5.7,11.4-11.2,17.8-16c2.3-1.8,4.8-3.4,7.4-4.8c1.8-0.9,3.5-1.3,5.1-0.5c0.5,0.3,1.3,0.4,1.8,0.5
			c1.3,0.4,1.6,1.3,1.3,2.6s-0.8,2.5-1.4,3.6c-2.6,4.9-6,9.6-9,14.6c-3.8,6.2-7.3,12.5-9.9,19c-0.6,1.6-1,3.1-1.3,4.6
			c0,0.3-0.1,0.6,0.1,0.8c0.3,0.1,0.6-0.1,0.9-0.4c2.2-2,4.6-4,6.6-6.1c4.8-4.7,9.6-9.4,14.3-14.2c0.6-0.5,1.2-1.2,2.1-1.3
			c0.9,0,1.2,0.5,0.6,1.3c-0.4,0.5-0.8,1-1.2,1.4c-5.2,5.6-10.3,11.2-15.5,16.6c-1.3,1.4-2.7,2.7-4.3,3.9c-2.7,2.1-5.3,2.1-7.9,1.4
			c-1.2-0.3-1.6-1.4-1.6-2.6c-0.3-2.6,0.3-5.2,1.2-7.9c2.1-5.3,4.9-10.5,8.1-15.7c2.9-4.6,5.7-9.1,8.6-13.8c0.6-0.9,1.3-2,1.8-3.2
			c-1.2,0.3-1.9,0.9-2.7,1.4c-3.2,2.5-6.4,5.1-9.5,7.8c-9.8,8.6-18.2,18.1-26.3,28c-1.2,1.4-2.3,2.9-3.2,4.5
			c-0.8,1.3-1.7,1.8-3.1,1.7c-3.5,0-3.6-0.3-2-3.6c7.4-14.6,15.6-28.9,23.5-43.2c6-11.1,12.2-22,18.3-32.9c0.6-1.2,1.3-2.3,2.2-3.5
			c0.8-1.2,1.3-1.3,2.2-0.8c4.2,2.5,4,1.9,1.6,6.5c-9.1,16.6-18.3,33.2-27.7,49.8c-0.4,0.6-0.9,1.3-0.9,2.2
			C146.7,75.1,147.2,74.4,147.8,73.9z"/>
		<path d="M214.7,58.1c0.5-0.9,1.2-2,2-3c1-1.3,1.6-1.6,2.9-0.9c0.9,0.4,1.8,0.9,2.7,1.4c1.4,0.8,1.6,1.3,0.8,3.1
			c-0.8,1.6-1.6,3-2.5,4.6c-3.9,6.4-7.9,12.7-11.1,19.2c-2.2,4.4-4.2,8.8-5.1,13.4c-0.1,0.8-0.8,2,0.1,2.3c0.8,0.3,1.6-0.8,2.2-1.4
			c3.4-3,6.5-6.4,9.6-9.6c2.9-3.1,5.7-6.1,8.5-9.2c0.3-0.3,0.5-0.5,0.8-0.8c0.7-0.4,1.3-0.6,1.8-0.1c0.4,0.4,0,1-0.4,1.4
			c-1.7,2.1-3.5,4.2-5.2,6.2c-3.1,3.4-6.1,6.9-9.1,10.4c-1.4,1.6-2.9,3-4.6,4.3c-2.7,2.1-5.6,2.2-8.3,1.7c-1.3-0.3-1.8-1.4-2.1-2.6
			c-0.4-2.3-0.1-4.7,0.6-7.1c0.5-2.1,0.9-4.2,2-6.2c-0.7,0-0.9,0.5-1.3,0.8c-4.2,4.2-8.3,8.2-12.5,12.2c-3.2,3-6.4,3.3-9.6,2.6
			c-1.4-0.3-2-1.4-2.1-2.7c-0.3-1.8-0.1-3.8,0.4-5.7c2.7-11.4,7.9-22.1,16.3-31.9c1.2-1.3,2.5-2.6,3.8-3.8c2.6-2.2,5.9-4,9.4-2.3
			c0.6,0.3,1.3,0.5,1.8,0.8c2.7,1.2,4,3.4,4,6.5c0.1,0.8,0,1.7,0,2.6c0.1,0,0.3,0,0.4,0C212.1,62.1,213.4,60.1,214.7,58.1z
			M181.7,94.7c-0.1,0.7-0.7,1.6,0,2c0.6,0.3,1.3-0.7,2-1.2c5.7-4.7,11.1-9.9,16.4-15c2.3-2.2,4.6-4.6,4.8-7.5c0-0.1,0-0.1,0-0.3
			c1.4-3.9,1.8-7.7,1.7-11.4c0-1.3-0.3-2.5-0.8-3.4c-0.8-1.3-1.4-1.4-3-0.6c-0.8,0.4-1.4,0.8-2,1.3c-1.2,1-2.2,2.2-3.1,3.4
			c-7.7,9.4-12.5,19.5-15.5,30.3C182.1,93,181.8,93.8,181.7,94.7z"/>
		<path d="M244,63.3c3.6-3.4,7.4-6.6,12-8.7c0.9-0.5,2-0.9,2.9-1.3c1.8-0.6,3.5-0.8,5.1,0c0.8,0.4,1.6,0.7,2.3,1
			c1.6,0.7,2.3,3.5,1.3,5.3c-0.4,0.7-0.8,0.9-1.4,0.8c-1-0.3-2.3-0.5-2.5-1.8c-0.4-2.5-0.6-2.6-3.9-1.3c-4.7,2-8.7,4.9-12.5,8.3
			c-9.4,8.3-17.3,17.7-24.3,27.7c-1.3,1.7-2.5,3.5-3.5,5.3c-0.8,1.4-1.7,1.9-3.1,1.9c-3.4,0.3-3.6-0.1-2.2-3.4
			c1.4-3.1,3.1-6.1,4.8-9.2c6-11.1,12.4-22.1,18.7-33c1.2-2,1.4-2.1,3.2-1.2c0.4,0.1,0.9,0.4,1.3,0.6c1.6,0.8,1.7,1.2,0.8,3
			c-1.3,3.1-2.9,6-4.6,9c-1.2,1.7-2.1,3.5-3.1,5.3c0,0,0.1,0.1,0.3,0.1C238.4,69,241,66,244,63.3z"/>
		<path d="M260.1,83c3-6.5,6.4-12.9,9.8-19.2c4.8-8.7,9.8-17.4,14.6-26.1c3.4-6.1,7-12.1,10.7-17.9c2.1-3.4,2.2-3.4,5.1-1.8
			c0.4,0.3,0.6,0.4,1,0.7c0.6,0.4,0.8,1,0.4,1.8c-0.4,0.6-0.6,1.3-1,2c-6.5,11.8-13.1,23.4-19.9,35.1c-5.3,9.5-11.1,19-15.6,28.9
			c-1.2,2.3-2.1,4.7-3,7c-0.4,1.2-0.6,2.2-0.8,3.4c0,0.4-0.1,1,0.3,1.2c0.5,0.3,0.9-0.4,1.2-0.6c1.4-1.4,2.9-2.7,4.2-4.2
			c4.5-4.9,9.2-9.9,13.8-14.8c0.5-0.5,0.9-1,1.4-1.6s1-0.8,1.7-0.8c1,0,1.3,0.4,0.7,1.3c-1.3,1.6-2.5,3-3.8,4.4
			c-3.5,4.2-7.2,8.3-10.5,12.5c-1.6,2-3.4,3.8-5.3,5.5c-2.3,2.1-4.8,1.9-7.3,1.4c-1.2-0.3-1.6-1.3-1.7-2.3c-0.3-1.8-0.1-3.6,0.3-5.7
			C257,89.6,258.5,86.4,260.1,83z"/>
		<path d="M310.9,84.7c3.2-1.4,6.2-3,9.4-4.8c1-0.7,2.2-1.4,3.2-2.3c0.5-0.3,0.9-0.8,1.4-0.8c0.7-0.1,1.4-0.4,1.7,0.3
			c0.3,0.5-0.4,0.9-0.8,1.3c-0.8,0.8-1.6,1.4-2.5,2.1c-3.1,2.1-6.4,3.8-9.6,5.6c-2.6,1.3-5.2,2.1-7.8,2.2c-1.4,0.1-2.2,0.6-3.1,1.8
			c-1.8,2.5-4,4.8-6.4,6.9c-1.3,1.3-2.7,2.5-4.3,3.4c-2.1,1.2-4.3,2-6.5,1.7c-1-0.1-2.1-0.1-3.1-0.1c-4.2,0-6.4-2.2-7.4-5.6
			c-0.6-2-0.6-4-0.1-6.2c0.8-4.4,2.6-8.6,5.1-12.6c1.2-2.1,2.5-4,3.8-5.9c0.6-1,1.3-2.1,2.5-2.6c0.8-0.4,1-1.2,1.3-1.8
			c1.6-3.5,3.8-6.6,6.8-9.2c3-2.7,6.4-4.3,10-4.7c0.6-0.1,1.3,0,2,0.1c1.6,0.3,3.1,0.8,4.7,1.3c3,1.2,4.5,3.5,4.5,6.9
			c0.1,3.6-0.6,7.4-2.3,11.2c-1.8,3.9-3.9,7.7-6.2,11.4c-0.3,0.5-0.9,1-0.8,2C307.9,86,309.5,85.4,310.9,84.7z M282.3,92.9
			c-0.1,1.8,0.3,3.6,1.2,5.1c0.9,1.4,1.6,1.6,3.4,0.5c1.4-0.9,2.7-2.1,3.9-3.1c2.1-1.8,4-3.6,5.9-5.7c1.4-1.7,1.4-1.8-0.3-2.5
			c-1.3-0.5-2.5-1-3.5-1.8c-2.2-1.7-4.2-3.5-5.7-6.2C284.5,83.9,282.8,88.3,282.3,92.9z M293,75.9c0.6,3.9,2.9,6.6,5.7,8.8
			c0.9,0.6,1.4,0.5,2.3-0.9c3.6-5.3,6.8-10.9,8.6-16.8c0.6-2.5,1.2-4.8,0.8-7c-0.9-4.3-2.1-4.9-6.6-2.5c-5.6,3.1-8.8,7.8-10.4,13.5
			C293,72.7,292.7,74.3,293,75.9z"/>
		<path d="M355,39.3c4.7-0.8,9.4-1.8,14-2.9c1.3-0.3,2.1-0.9,2.7-2.1c2.1-3.2,4.3-6.5,6.4-9.8c0.3-0.4,0.5-0.8,0.9-1.2
			c0.6-0.9,1.6-1.4,2.6-1.2c0.8,0.3,1.6,0.4,2.3,0.5c1.4,0.4,1.6,0.6,0.8,2.2c-1,2-2.1,3.9-3.3,5.9c-0.1,0.4-0.4,0.8-0.6,1
			c-0.1,0.5-0.6,0.9-0.4,1.3c0.3,0.5,0.9,0.1,1.4,0c6.6-1.7,13.3-3.5,19.9-5.3c8.3-2.2,16.8-4.4,25.1-5.6c4.9-0.8,9.8-0.8,14.4-0.3
			c1.7,0.3,3.2,0.8,4.7,1.4c0.9,0.4,1.7,0.9,2.1,1.8c1,1.7,2,3.5,2.9,5.3c0.6,1.2,0.5,1.8-0.3,2.3c-0.7,0.5-1.3,0.4-2-0.9
			c-0.5-1-1.3-1.7-2.5-2.1c-4.2-1.4-8.8-1.7-13.7-1.4c-10.1,0.6-20.4,3.1-30.6,5.7c-8.1,2-16.1,3.9-24.2,5.9c-1.4,0.4-2.3,1-3,2.3
			c-7.3,12-14.2,24.2-20,36.7c-3.1,6.8-5.9,13.5-7.4,20.4c-1,4-0.5,7.5,1,10.8c0.8,1.6,2.1,2.5,3.5,3.1c0.6,0.4,1.2,0.3,1.8-0.1
			c2.9-1.8,5.3-3.8,6.8-6.8c0.7-1.2,1.4-1.7,2.6-1.9c1.4-0.3,2.9-0.5,4.3-0.8c1.8-0.3,2.3,0.6,1.2,2.1c-4,5.1-8.6,9.2-15,10.1
			c-1.3,0.1-2.7,0.5-4.2,0.7c-3.9,0.5-6.6-0.9-8.3-3.6c-2.2-3.4-2.7-7.3-2-11.8c1.4-8.1,4.8-16.1,8.3-23.9c0.5-1.2,1.2-2.3,1.8-3.9
			c-0.8,0.5-1,1-1.4,1.6c-4.2,5.9-8.7,11.4-13.4,16.9c-1.8,2.2-3.8,4.2-5.9,6.1c-1.7,1.7-3.6,2.7-5.9,2.6c-0.7-0.1-1.3-0.1-2,0
			c-2.1,0.1-3-0.8-3.5-2.5c-0.6-2.6-0.4-5.3,0.4-8.2c1.6-5.9,4.4-11.4,7.2-17c3.8-7.4,8.3-14.6,12.5-21.8c0.5-0.9,1.2-2,1.7-2.9
			c1.3-2.3,1.3-2.3-1-2.5c-3.8,0-7.3-0.7-10.5-1.7c-3.1-0.9-5.9-2.5-7.9-4.8c-0.3-0.3-0.5-0.8-0.8-1.2c-0.1-0.3-0.1-0.5,0.1-0.8
			c0.3-0.3,0.5-0.3,0.7-0.1c0.3,0,0.4,0.1,0.5,0.3c3.6,2.6,8.5,3.1,13.3,3.5c2.6,0.1,5.2,0.1,7.8,0c2.2,0,2.2,0,3.4-2.1
			c3.9-7,8.5-13.8,12.9-20.7c0.3-0.3,0.5-0.6,0.8-1c1.2-1.7,1.6-1.8,3.2-1.2c0.4,0.3,0.9,0.4,1.3,0.5c1.6,0.8,1.8,1.2,0.8,3
			c-1.8,3.1-3.6,6.1-5.5,9.2c-2,3.1-3.8,6.2-5.7,9.4c-0.3,0.5-0.6,0.9-0.6,1.6C352.9,39.8,353.9,39.5,355,39.3z M363.7,43.2
			c-4.5,0.9-9,1.7-13.4,2.1c-1.8,0.1-2.9,0.8-3.8,2.5c-2.7,4.8-5.6,9.6-8.3,14.6c-5.1,8.6-9.9,17.3-13.1,26.4
			c-0.8,2.3-1.6,4.8-1.4,7.2c0,1.2,0.4,1.2,1.3,0.4c1.3-1.3,2.7-2.6,3.9-4c13.5-15.1,25-31.2,36.4-47.5c0.3-0.5,0.8-1,0.6-1.8
			C365.2,42.8,364.5,43.1,363.7,43.2z"/>
		<path d="M368.1,101.5c-6,0.1-8.6-3.2-8.5-8.8c0.1-3.9,1.4-7.7,3.2-11.4c3.9-8.5,9.4-16,16.6-22.4c2.9-2.5,5.9-4.6,9.5-5.5
			c2.2-0.4,4.2-0.3,5.9,0.7c0.9,0.5,1.7,1,2.6,1.4c3.9,1.6,5.2,5.9,2.9,11.1c-1,2.2-2.6,4.4-4.4,6.2c-4,3.8-8.5,6.6-13.5,8.3
			c-3.5,1.2-6.9,1.4-10,0.6c-1.7-0.4-1.8-0.3-2.7,1.4c-1.4,3-2.3,6.1-2.7,9.2c-0.4,2.2,0,4.2,1.2,5.8c0.9,1.2,2.2,1.4,3.9,0.8
			c2.2-0.6,4.3-1.7,6.2-2.9c5.9-3.2,11.3-7.1,16.6-11c3.4-2.5,6.8-4.9,10-7.5c0.3-0.3,0.5-0.5,0.9-0.6c0.6-0.3,1.4-0.4,1.8,0.1
			s-0.3,1-0.6,1.6c-0.6,0.5-1.2,1-1.7,1.6c-7,6.1-14.6,11.4-22.1,16.6c-2,1.3-4,2.3-6.2,3.2c-2.6,1.2-5.2,1.6-7.4,1.4
			C368.8,101.5,368.4,101.5,368.1,101.5z M394.8,59.5c0.4-2.3,0-2.6-2.3-1.7c-2.2,0.9-4.3,2.2-6.2,3.8c-5.5,4.2-9.6,9.4-13,15.1
			c-0.4,0.5-1,1.2-0.6,1.6c0.3,0.7,1.2,0.3,1.8,0c6.4-1.4,11.7-5.2,16.1-10.4c2-2.2,3.5-4.8,4.2-7.5C394.6,60,394.8,59.7,394.8,59.5z
			"/>
	</g>
</svg>
